<svg width="208" height="156" viewBox="0 0 208 156" fill="none" xmlns="http://www.w3.org/2000/svg">
<g filter="url(#filter0_d_329_261)">
<mask id="mask0_329_261" style="mask-type:alpha" maskUnits="userSpaceOnUse" x="14" y="14" width="180" height="128">
<rect x="14" y="14" width="180" height="128" rx="12" fill="white"/>
</mask>
<g mask="url(#mask0_329_261)">
<rect x="14" y="14" width="180" height="128" fill="white"/>
<path d="M69.125 117.5C69.1311 120.492 69.769 123.448 70.9968 126.176C72.2247 128.903 74.0148 131.341 76.25 133.329V142.438C76.25 143.382 76.6253 144.288 77.2934 144.957C77.9615 145.625 78.8677 146 79.8125 146H86.9375C87.8823 146 88.7885 145.625 89.4566 144.957C90.1247 144.288 90.5 143.382 90.5 142.438V138.875H147.5V142.438C147.5 143.382 147.875 144.288 148.543 144.957C149.212 145.625 150.118 146 151.062 146H158.188C159.132 146 160.038 145.625 160.707 144.957C161.375 144.288 161.75 143.382 161.75 142.438V133.329C163.985 131.341 165.775 128.903 167.003 126.176C168.231 123.448 168.869 120.492 168.875 117.5V106.813H69.125V117.5ZM172.438 89.0006H79.8125V47.4201C79.8145 46.4851 80.0934 45.5716 80.614 44.7949C81.1345 44.0182 81.8734 43.4131 82.7375 43.0558C83.6016 42.6986 84.5521 42.6052 85.4692 42.7876C86.3862 42.9699 87.2287 43.4197 87.8905 44.0802L92.1811 48.3686C89.2576 55.0215 90.4866 61.5296 94.1004 66.1207L94.0625 66.1586C93.3969 66.8263 93.0232 67.7307 93.0232 68.6735C93.0232 69.6162 93.3969 70.5206 94.0625 71.1883L96.5807 73.7066C96.9116 74.0374 97.3043 74.2999 97.7366 74.479C98.1689 74.6581 98.6322 74.7503 99.1001 74.7503C99.568 74.7503 100.031 74.6581 100.464 74.479C100.896 74.2999 101.289 74.0374 101.619 73.7066L125.081 50.2455C125.412 49.9147 125.674 49.522 125.853 49.0897C126.032 48.6574 126.124 48.1941 126.124 47.7262C126.124 47.2583 126.032 46.795 125.853 46.3627C125.674 45.9304 125.412 45.5377 125.081 45.2069L122.562 42.6887C121.894 42.0211 120.989 41.6461 120.044 41.6461C119.1 41.6461 118.194 42.0211 117.526 42.6887L117.488 42.7265C112.897 39.1128 106.393 37.8838 99.7358 40.8072L95.4474 36.5167C93.291 34.3601 90.5435 32.8914 87.5524 32.2963C84.5612 31.7013 81.4608 32.0066 78.6432 33.1738C75.8256 34.3409 73.4174 36.3173 71.7232 38.8532C70.0289 41.389 69.1247 44.3703 69.125 47.4201V89.0006H65.5625C64.6177 89.0006 63.7115 89.376 63.0434 90.0441C62.3753 90.7121 62 91.6183 62 92.5631V96.1256C62 97.0704 62.3753 97.9765 63.0434 98.6446C63.7115 99.3127 64.6177 99.688 65.5625 99.688H172.438C173.382 99.688 174.288 99.3127 174.957 98.6446C175.625 97.9765 176 97.0704 176 96.1256V92.5631C176 91.6183 175.625 90.7121 174.957 90.0441C174.288 89.376 173.382 89.0006 172.438 89.0006Z" fill="#60C8FA" fill-opacity="0.2"/>
<path d="M39.88 65V51H46.44C48.12 51 49.4 51.3333 50.28 52C51.16 52.6533 51.6 53.5333 51.6 54.64C51.6 55.3867 51.4267 56.0267 51.08 56.56C50.7333 57.08 50.2667 57.4867 49.68 57.78C49.1067 58.06 48.48 58.2 47.8 58.2L48.16 57.48C48.9467 57.48 49.6533 57.6267 50.28 57.92C50.9067 58.2 51.4 58.6133 51.76 59.16C52.1333 59.7067 52.32 60.3867 52.32 61.2C52.32 62.4 51.86 63.3333 50.94 64C50.02 64.6667 48.6533 65 46.84 65H39.88ZM42.48 62.96H46.68C47.6533 62.96 48.4 62.8 48.92 62.48C49.44 62.16 49.7 61.6467 49.7 60.94C49.7 60.2467 49.44 59.74 48.92 59.42C48.4 59.0867 47.6533 58.92 46.68 58.92H42.28V56.9H46.16C47.0667 56.9 47.76 56.74 48.24 56.42C48.7333 56.1 48.98 55.62 48.98 54.98C48.98 54.3267 48.7333 53.84 48.24 53.52C47.76 53.2 47.0667 53.04 46.16 53.04H42.48V62.96ZM61.4348 65V62.84L61.2948 62.38V58.6C61.2948 57.8667 61.0748 57.3 60.6348 56.9C60.1948 56.4867 59.5282 56.28 58.6348 56.28C58.0348 56.28 57.4415 56.3733 56.8548 56.56C56.2815 56.7467 55.7948 57.0067 55.3948 57.34L54.4148 55.52C54.9882 55.08 55.6682 54.7533 56.4548 54.54C57.2548 54.3133 58.0815 54.2 58.9348 54.2C60.4815 54.2 61.6748 54.5733 62.5148 55.32C63.3682 56.0533 63.7948 57.1933 63.7948 58.74V65H61.4348ZM58.0748 65.14C57.2748 65.14 56.5748 65.0067 55.9748 64.74C55.3748 64.46 54.9082 64.08 54.5748 63.6C54.2548 63.1067 54.0948 62.5533 54.0948 61.94C54.0948 61.34 54.2348 60.8 54.5148 60.32C54.8082 59.84 55.2815 59.46 55.9348 59.18C56.5882 58.9 57.4548 58.76 58.5348 58.76H61.6348V60.42H58.7148C57.8615 60.42 57.2882 60.56 56.9948 60.84C56.7015 61.1067 56.5548 61.44 56.5548 61.84C56.5548 62.2933 56.7348 62.6533 57.0948 62.92C57.4548 63.1867 57.9548 63.32 58.5948 63.32C59.2082 63.32 59.7548 63.18 60.2348 62.9C60.7282 62.62 61.0815 62.2067 61.2948 61.66L61.7148 63.16C61.4748 63.7867 61.0415 64.2733 60.4148 64.62C59.8015 64.9667 59.0215 65.14 58.0748 65.14ZM71.0233 65.14C69.8499 65.14 68.9433 64.84 68.3033 64.24C67.6633 63.6267 67.3433 62.7267 67.3433 61.54V51.96H69.8433V61.48C69.8433 61.9867 69.9699 62.38 70.2233 62.66C70.4899 62.94 70.8566 63.08 71.3233 63.08C71.8833 63.08 72.3499 62.9333 72.7233 62.64L73.4233 64.42C73.1299 64.66 72.7699 64.84 72.3433 64.96C71.9166 65.08 71.4766 65.14 71.0233 65.14ZM65.5833 56.4V54.4H72.7033V56.4H65.5833ZM81.5398 54.2C82.3932 54.2 83.1532 54.3667 83.8198 54.7C84.4998 55.0333 85.0332 55.5467 85.4198 56.24C85.8065 56.92 85.9998 57.8 85.9998 58.88V65H83.4998V59.2C83.4998 58.2533 83.2732 57.5467 82.8198 57.08C82.3798 56.6133 81.7598 56.38 80.9598 56.38C80.3732 56.38 79.8532 56.5 79.3998 56.74C78.9465 56.98 78.5932 57.34 78.3398 57.82C78.0998 58.2867 77.9798 58.88 77.9798 59.6V65H75.4798V50.16H77.9798V57.2L77.4398 56.32C77.8132 55.64 78.3532 55.12 79.0598 54.76C79.7798 54.3867 80.6065 54.2 81.5398 54.2Z" fill="#3C3C43"/>
<path d="M39.368 101V92.6H42.992C43.928 92.6 44.652 92.788 45.164 93.164C45.684 93.54 45.944 94.072 45.944 94.76C45.944 95.216 45.836 95.6 45.62 95.912C45.412 96.224 45.124 96.46 44.756 96.62C44.396 96.78 44 96.86 43.568 96.86L43.772 96.572C44.308 96.572 44.768 96.656 45.152 96.824C45.544 96.984 45.848 97.228 46.064 97.556C46.28 97.876 46.388 98.276 46.388 98.756C46.388 99.468 46.124 100.02 45.596 100.412C45.076 100.804 44.288 101 43.232 101H39.368ZM40.256 100.268H43.22C43.956 100.268 44.52 100.144 44.912 99.896C45.304 99.64 45.5 99.236 45.5 98.684C45.5 98.14 45.304 97.744 44.912 97.496C44.52 97.24 43.956 97.112 43.22 97.112H40.16V96.38H42.932C43.604 96.38 44.124 96.252 44.492 95.996C44.868 95.74 45.056 95.36 45.056 94.856C45.056 94.344 44.868 93.964 44.492 93.716C44.124 93.46 43.604 93.332 42.932 93.332H40.256V100.268ZM52.1829 101V99.608L52.1469 99.38V97.052C52.1469 96.516 51.9949 96.104 51.6909 95.816C51.3949 95.528 50.9509 95.384 50.3589 95.384C49.9509 95.384 49.5629 95.452 49.1949 95.588C48.8269 95.724 48.5149 95.904 48.2589 96.128L47.8749 95.492C48.1949 95.22 48.5789 95.012 49.0269 94.868C49.4749 94.716 49.9469 94.64 50.4429 94.64C51.2589 94.64 51.8869 94.844 52.3269 95.252C52.7749 95.652 52.9989 96.264 52.9989 97.088V101H52.1829ZM50.0109 101.06C49.5389 101.06 49.1269 100.984 48.7749 100.832C48.4309 100.672 48.1669 100.456 47.9829 100.184C47.7989 99.904 47.7069 99.584 47.7069 99.224C47.7069 98.896 47.7829 98.6 47.9349 98.336C48.0949 98.064 48.3509 97.848 48.7029 97.688C49.0629 97.52 49.5429 97.436 50.1429 97.436H52.3149V98.072H50.1669C49.5589 98.072 49.1349 98.18 48.8949 98.396C48.6629 98.612 48.5469 98.88 48.5469 99.2C48.5469 99.56 48.6869 99.848 48.9669 100.064C49.2469 100.28 49.6389 100.388 50.1429 100.388C50.6229 100.388 51.0349 100.28 51.3789 100.064C51.7309 99.84 51.9869 99.52 52.1469 99.104L52.3389 99.692C52.1789 100.108 51.8989 100.44 51.4989 100.688C51.1069 100.936 50.6109 101.06 50.0109 101.06ZM57.305 101.06C56.713 101.06 56.257 100.9 55.937 100.58C55.617 100.26 55.457 99.808 55.457 99.224V93.308H56.309V99.176C56.309 99.544 56.401 99.828 56.585 100.028C56.777 100.228 57.049 100.328 57.401 100.328C57.777 100.328 58.089 100.22 58.337 100.004L58.637 100.616C58.469 100.768 58.265 100.88 58.025 100.952C57.793 101.024 57.553 101.06 57.305 101.06ZM54.329 95.408V94.7H58.229V95.408H54.329ZM63.404 94.64C63.916 94.64 64.364 94.74 64.748 94.94C65.14 95.132 65.444 95.428 65.66 95.828C65.884 96.228 65.996 96.732 65.996 97.34V101H65.144V97.424C65.144 96.76 64.976 96.26 64.64 95.924C64.312 95.58 63.848 95.408 63.248 95.408C62.8 95.408 62.408 95.5 62.072 95.684C61.744 95.86 61.488 96.12 61.304 96.464C61.128 96.8 61.04 97.208 61.04 97.688V101H60.188V92.096H61.04V96.428L60.872 96.104C61.072 95.648 61.392 95.292 61.832 95.036C62.272 94.772 62.796 94.64 63.404 94.64ZM73.43 101.06C72.838 101.06 72.382 100.9 72.062 100.58C71.742 100.26 71.582 99.808 71.582 99.224V93.308H72.434V99.176C72.434 99.544 72.526 99.828 72.71 100.028C72.902 100.228 73.174 100.328 73.526 100.328C73.902 100.328 74.214 100.22 74.462 100.004L74.762 100.616C74.594 100.768 74.39 100.88 74.15 100.952C73.918 101.024 73.678 101.06 73.43 101.06ZM70.454 95.408V94.7H74.354V95.408H70.454ZM76.313 101V94.7H77.165V101H76.313ZM76.745 93.308C76.569 93.308 76.421 93.248 76.301 93.128C76.181 93.008 76.121 92.864 76.121 92.696C76.121 92.528 76.181 92.388 76.301 92.276C76.421 92.156 76.569 92.096 76.745 92.096C76.921 92.096 77.069 92.152 77.189 92.264C77.309 92.376 77.369 92.516 77.369 92.684C77.369 92.86 77.309 93.008 77.189 93.128C77.077 93.248 76.929 93.308 76.745 93.308ZM87.4077 94.64C87.9197 94.64 88.3637 94.74 88.7397 94.94C89.1237 95.132 89.4197 95.428 89.6277 95.828C89.8437 96.228 89.9517 96.732 89.9517 97.34V101H89.0997V97.424C89.0997 96.76 88.9397 96.26 88.6197 95.924C88.3077 95.58 87.8637 95.408 87.2877 95.408C86.8557 95.408 86.4797 95.5 86.1597 95.684C85.8477 95.86 85.6037 96.12 85.4277 96.464C85.2597 96.8 85.1757 97.208 85.1757 97.688V101H84.3237V97.424C84.3237 96.76 84.1637 96.26 83.8437 95.924C83.5237 95.58 83.0757 95.408 82.4997 95.408C82.0757 95.408 81.7037 95.5 81.3837 95.684C81.0637 95.86 80.8157 96.12 80.6397 96.464C80.4717 96.8 80.3877 97.208 80.3877 97.688V101H79.5357V94.7H80.3517V96.404L80.2197 96.104C80.4117 95.648 80.7197 95.292 81.1437 95.036C81.5757 94.772 82.0837 94.64 82.6677 94.64C83.2837 94.64 83.8077 94.796 84.2397 95.108C84.6717 95.412 84.9517 95.872 85.0797 96.488L84.7437 96.356C84.9277 95.844 85.2517 95.432 85.7157 95.12C86.1877 94.8 86.7517 94.64 87.4077 94.64ZM94.9382 101.06C94.2822 101.06 93.7062 100.924 93.2102 100.652C92.7142 100.372 92.3262 99.992 92.0462 99.512C91.7662 99.024 91.6262 98.468 91.6262 97.844C91.6262 97.22 91.7582 96.668 92.0222 96.188C92.2942 95.708 92.6622 95.332 93.1262 95.06C93.5982 94.78 94.1262 94.64 94.7102 94.64C95.3022 94.64 95.8262 94.776 96.2822 95.048C96.7462 95.312 97.1102 95.688 97.3742 96.176C97.6382 96.656 97.7702 97.212 97.7702 97.844C97.7702 97.884 97.7662 97.928 97.7582 97.976C97.7582 98.016 97.7582 98.06 97.7582 98.108H92.2742V97.472H97.3022L96.9662 97.724C96.9662 97.268 96.8662 96.864 96.6662 96.512C96.4742 96.152 96.2102 95.872 95.8742 95.672C95.5382 95.472 95.1502 95.372 94.7102 95.372C94.2782 95.372 93.8902 95.472 93.5462 95.672C93.2022 95.872 92.9342 96.152 92.7422 96.512C92.5502 96.872 92.4542 97.284 92.4542 97.748V97.88C92.4542 98.36 92.5582 98.784 92.7662 99.152C92.9822 99.512 93.2782 99.796 93.6542 100.004C94.0382 100.204 94.4742 100.304 94.9622 100.304C95.3462 100.304 95.7022 100.236 96.0302 100.1C96.3662 99.964 96.6542 99.756 96.8942 99.476L97.3742 100.028C97.0942 100.364 96.7422 100.62 96.3182 100.796C95.9022 100.972 95.4422 101.06 94.9382 101.06ZM102.645 101V94.7H103.461V96.416L103.377 96.116C103.553 95.636 103.849 95.272 104.265 95.024C104.681 94.768 105.197 94.64 105.813 94.64V95.468C105.781 95.468 105.749 95.468 105.717 95.468C105.685 95.46 105.653 95.456 105.621 95.456C104.957 95.456 104.437 95.66 104.061 96.068C103.685 96.468 103.497 97.04 103.497 97.784V101H102.645ZM109.985 101.06C109.329 101.06 108.753 100.924 108.257 100.652C107.761 100.372 107.373 99.992 107.093 99.512C106.813 99.024 106.673 98.468 106.673 97.844C106.673 97.22 106.805 96.668 107.069 96.188C107.341 95.708 107.709 95.332 108.173 95.06C108.645 94.78 109.173 94.64 109.757 94.64C110.349 94.64 110.873 94.776 111.329 95.048C111.793 95.312 112.157 95.688 112.421 96.176C112.685 96.656 112.817 97.212 112.817 97.844C112.817 97.884 112.813 97.928 112.805 97.976C112.805 98.016 112.805 98.06 112.805 98.108H107.321V97.472H112.349L112.013 97.724C112.013 97.268 111.913 96.864 111.713 96.512C111.521 96.152 111.257 95.872 110.921 95.672C110.585 95.472 110.197 95.372 109.757 95.372C109.325 95.372 108.937 95.472 108.593 95.672C108.249 95.872 107.981 96.152 107.789 96.512C107.597 96.872 107.501 97.284 107.501 97.748V97.88C107.501 98.36 107.605 98.784 107.813 99.152C108.029 99.512 108.325 99.796 108.701 100.004C109.085 100.204 109.521 100.304 110.009 100.304C110.393 100.304 110.749 100.236 111.077 100.1C111.413 99.964 111.701 99.756 111.941 99.476L112.421 100.028C112.141 100.364 111.789 100.62 111.365 100.796C110.949 100.972 110.489 101.06 109.985 101.06ZM122.423 94.64C122.935 94.64 123.379 94.74 123.755 94.94C124.139 95.132 124.435 95.428 124.643 95.828C124.859 96.228 124.967 96.732 124.967 97.34V101H124.115V97.424C124.115 96.76 123.955 96.26 123.635 95.924C123.323 95.58 122.879 95.408 122.303 95.408C121.871 95.408 121.495 95.5 121.175 95.684C120.863 95.86 120.619 96.12 120.443 96.464C120.275 96.8 120.191 97.208 120.191 97.688V101H119.339V97.424C119.339 96.76 119.179 96.26 118.859 95.924C118.539 95.58 118.091 95.408 117.515 95.408C117.091 95.408 116.719 95.5 116.399 95.684C116.079 95.86 115.831 96.12 115.655 96.464C115.487 96.8 115.403 97.208 115.403 97.688V101H114.551V94.7H115.367V96.404L115.235 96.104C115.427 95.648 115.735 95.292 116.159 95.036C116.591 94.772 117.099 94.64 117.683 94.64C118.299 94.64 118.823 94.796 119.255 95.108C119.687 95.412 119.967 95.872 120.095 96.488L119.759 96.356C119.943 95.844 120.267 95.432 120.731 95.12C121.203 94.8 121.767 94.64 122.423 94.64ZM127.278 101V94.7H128.13V101H127.278ZM127.71 93.308C127.534 93.308 127.386 93.248 127.266 93.128C127.146 93.008 127.086 92.864 127.086 92.696C127.086 92.528 127.146 92.388 127.266 92.276C127.386 92.156 127.534 92.096 127.71 92.096C127.886 92.096 128.034 92.152 128.154 92.264C128.274 92.376 128.334 92.516 128.334 92.684C128.334 92.86 128.274 93.008 128.154 93.128C128.042 93.248 127.894 93.308 127.71 93.308ZM133.717 94.64C134.229 94.64 134.677 94.74 135.061 94.94C135.453 95.132 135.757 95.428 135.973 95.828C136.197 96.228 136.309 96.732 136.309 97.34V101H135.457V97.424C135.457 96.76 135.289 96.26 134.953 95.924C134.625 95.58 134.161 95.408 133.561 95.408C133.113 95.408 132.721 95.5 132.385 95.684C132.057 95.86 131.801 96.12 131.617 96.464C131.441 96.8 131.353 97.208 131.353 97.688V101H130.501V94.7H131.317V96.428L131.185 96.104C131.385 95.648 131.705 95.292 132.145 95.036C132.585 94.772 133.109 94.64 133.717 94.64ZM141.118 101.06C140.518 101.06 139.978 100.924 139.498 100.652C139.026 100.38 138.654 100.004 138.382 99.524C138.11 99.036 137.974 98.476 137.974 97.844C137.974 97.204 138.11 96.644 138.382 96.164C138.654 95.684 139.026 95.312 139.498 95.048C139.978 94.776 140.518 94.64 141.118 94.64C141.67 94.64 142.162 94.764 142.594 95.012C143.034 95.26 143.382 95.624 143.638 96.104C143.902 96.576 144.034 97.156 144.034 97.844C144.034 98.524 143.906 99.104 143.65 99.584C143.394 100.064 143.046 100.432 142.606 100.688C142.174 100.936 141.678 101.06 141.118 101.06ZM141.178 100.304C141.626 100.304 142.026 100.204 142.378 100.004C142.738 99.796 143.018 99.508 143.218 99.14C143.426 98.764 143.53 98.332 143.53 97.844C143.53 97.348 143.426 96.916 143.218 96.548C143.018 96.18 142.738 95.896 142.378 95.696C142.026 95.488 141.626 95.384 141.178 95.384C140.738 95.384 140.342 95.488 139.99 95.696C139.638 95.896 139.358 96.18 139.15 96.548C138.942 96.916 138.838 97.348 138.838 97.844C138.838 98.332 138.942 98.764 139.15 99.14C139.358 99.508 139.638 99.796 139.99 100.004C140.342 100.204 140.738 100.304 141.178 100.304ZM143.554 101V99.104L143.638 97.832L143.518 96.56V92.096H144.37V101H143.554ZM149.419 101.06C148.763 101.06 148.187 100.924 147.691 100.652C147.195 100.372 146.807 99.992 146.527 99.512C146.247 99.024 146.107 98.468 146.107 97.844C146.107 97.22 146.239 96.668 146.503 96.188C146.775 95.708 147.143 95.332 147.607 95.06C148.079 94.78 148.607 94.64 149.191 94.64C149.783 94.64 150.307 94.776 150.763 95.048C151.227 95.312 151.591 95.688 151.855 96.176C152.119 96.656 152.251 97.212 152.251 97.844C152.251 97.884 152.247 97.928 152.239 97.976C152.239 98.016 152.239 98.06 152.239 98.108H146.755V97.472H151.783L151.447 97.724C151.447 97.268 151.347 96.864 151.147 96.512C150.955 96.152 150.691 95.872 150.355 95.672C150.019 95.472 149.631 95.372 149.191 95.372C148.759 95.372 148.371 95.472 148.027 95.672C147.683 95.872 147.415 96.152 147.223 96.512C147.031 96.872 146.935 97.284 146.935 97.748V97.88C146.935 98.36 147.039 98.784 147.247 99.152C147.463 99.512 147.759 99.796 148.135 100.004C148.519 100.204 148.955 100.304 149.443 100.304C149.827 100.304 150.183 100.236 150.511 100.1C150.847 99.964 151.135 99.756 151.375 99.476L151.855 100.028C151.575 100.364 151.223 100.62 150.799 100.796C150.383 100.972 149.923 101.06 149.419 101.06ZM153.985 101V94.7H154.801V96.416L154.717 96.116C154.893 95.636 155.189 95.272 155.605 95.024C156.021 94.768 156.537 94.64 157.153 94.64V95.468C157.121 95.468 157.089 95.468 157.057 95.468C157.025 95.46 156.993 95.456 156.961 95.456C156.297 95.456 155.777 95.66 155.401 96.068C155.025 96.468 154.837 97.04 154.837 97.784V101H153.985Z" fill="#3C3C43"/>
</g>
</g>
<defs>
<filter id="filter0_d_329_261" x="0" y="0" width="208" height="156" filterUnits="userSpaceOnUse" color-interpolation-filters="sRGB">
<feFlood flood-opacity="0" result="BackgroundImageFix"/>
<feColorMatrix in="SourceAlpha" type="matrix" values="0 0 0 0 0 0 0 0 0 0 0 0 0 0 0 0 0 0 127 0" result="hardAlpha"/>
<feOffset/>
<feGaussianBlur stdDeviation="7"/>
<feComposite in2="hardAlpha" operator="out"/>
<feColorMatrix type="matrix" values="0 0 0 0 0.377661 0 0 0 0 0.471527 0 0 0 0 0.878281 0 0 0 0.13 0"/>
<feBlend mode="normal" in2="BackgroundImageFix" result="effect1_dropShadow_329_261"/>
<feBlend mode="normal" in="SourceGraphic" in2="effect1_dropShadow_329_261" result="shape"/>
</filter>
</defs>
</svg>
