<svg width="208" height="160" viewBox="0 0 208 160" fill="none" xmlns="http://www.w3.org/2000/svg">
<g filter="url(#filter0_d_329_281)">
<mask id="mask0_329_281" style="mask-type:alpha" maskUnits="userSpaceOnUse" x="14" y="14" width="180" height="128">
<rect x="14" y="14" width="180" height="128" rx="12" fill="white"/>
</mask>
<g mask="url(#mask0_329_281)">
<rect x="14" y="14" width="180" height="128" fill="white"/>
<g opacity="0.5">
<path d="M95.7481 81.4146L58.9461 117.514C57.7847 118.654 56.8634 120.008 56.2348 121.499C55.6063 122.989 55.2827 124.586 55.2827 126.199C55.2827 127.812 55.6063 129.41 56.2348 130.9C56.8634 132.39 57.7847 133.744 58.9461 134.884L82.7695 158.207C83.9298 159.348 85.3077 160.253 86.8243 160.871C88.3409 161.489 89.9665 161.806 91.6082 161.806C93.2499 161.806 94.8755 161.489 96.3921 160.871C97.9087 160.253 99.2865 159.348 100.447 158.207L128.643 130.716C129.022 130.341 129.263 129.852 129.326 129.328C129.389 128.803 129.272 128.272 128.992 127.821L103.346 82.3288C101.718 79.7004 97.9966 79.2433 95.7481 81.4146ZM106.652 100.462C107.815 101.605 107.815 103.395 106.652 104.5C105.528 105.605 103.667 105.605 102.543 104.5L95.6811 97.7577C94.5569 96.6531 94.5569 94.8247 95.6811 93.72C96.2282 93.1887 96.9665 92.8907 97.7357 92.8907C98.5049 92.8907 99.2432 93.1887 99.7903 93.72L106.652 100.462ZM93.6652 113.261C94.7895 114.404 94.7895 116.194 93.6652 117.299C92.541 118.404 90.6802 118.404 89.556 117.299L82.6944 110.557C81.5702 109.452 81.5702 107.624 82.6944 106.519C83.2415 105.988 83.9798 105.69 84.749 105.69C85.5182 105.69 86.2565 105.988 86.8036 106.519L93.6652 113.261ZM112.816 80.9211L119.677 87.6634C120.84 88.8061 120.84 90.5964 119.677 91.7011C118.553 92.8058 116.692 92.8058 115.568 91.7011L108.707 84.9588C107.582 83.8542 107.582 82.0258 108.707 80.9211C109.254 80.3898 109.992 80.0918 110.761 80.0918C111.53 80.0918 112.269 80.3898 112.816 80.9211Z" fill="#FF8B58" fill-opacity="0.35"/>
<path d="M162.979 67.2466L165.615 64.6564C167.142 63.1561 168 61.1214 168 58.9997C168 56.8781 167.142 54.8433 165.615 53.3431C164.089 51.8428 162.018 51 159.859 51C157.699 51 155.629 51.8428 154.102 53.3431L151.466 55.9333C150.458 56.9237 148.946 57.3046 147.55 56.8475L141.309 54.7906C138.557 53.8763 135.533 54.6001 133.517 56.619L131.075 58.9807L130.881 58.7902C130.163 58.0946 129.195 57.7047 128.187 57.7047C127.178 57.7047 126.211 58.0946 125.492 58.7902L125.078 59.1978C121.25 56.1406 116.415 54.5668 111.486 54.7738C106.558 54.9809 101.877 56.9544 98.3289 60.3215L98.3095 60.3405L46.5136 111.51C44.4488 113.536 42.8107 115.942 41.693 118.59C40.5753 121.239 40 124.078 40 126.945C40 129.812 40.5753 132.651 41.693 135.3C42.8107 137.948 44.4488 140.354 46.5136 142.38L75.3169 170.682C77.3786 172.711 79.8271 174.321 82.5225 175.419C85.2178 176.517 88.1071 177.082 91.025 177.082C93.9429 177.082 96.8322 176.517 99.5275 175.419C102.223 174.321 104.671 172.711 106.733 170.682L158.645 119.402L158.734 119.231C162.074 115.724 164.004 111.146 164.168 106.347C164.332 101.547 162.718 96.8525 159.626 93.1339L160.033 92.7301C161.545 91.2826 161.545 88.9209 160.072 87.4734L159.878 87.283L162.282 84.8832C164.336 82.9024 165.073 79.9312 164.142 77.2267L162.049 71.0939C161.584 69.7226 161.971 68.237 162.979 67.2466ZM152.795 97.0612C155.089 99.3204 156.391 102.372 156.423 105.563C156.455 108.754 155.214 111.831 152.966 114.134L151.66 115.418L151.66 115.494L101.252 165.296C99.9098 166.618 98.3158 167.666 96.561 168.382C94.8062 169.097 92.9249 169.466 91.025 169.466C89.1251 169.466 87.2438 169.097 85.489 168.382C83.7342 167.666 82.1402 166.618 80.7985 165.296L51.9952 136.994C50.65 135.675 49.5828 134.109 48.8546 132.385C48.1265 130.66 47.7516 128.812 47.7516 126.945C47.7516 125.078 48.1265 123.23 48.8546 121.505C49.5828 119.781 50.65 118.215 51.9952 116.896L103.748 65.7725C106.092 63.5635 109.223 62.3441 112.471 62.3755C115.718 62.4068 118.824 63.6863 121.123 65.9401L152.795 97.0612Z" fill="#FF8B58" fill-opacity="0.35"/>
</g>
<path d="M42.26 57.44H49.24V59.64H42.26V57.44ZM42.48 65H39.88V51H50.1V53.18H42.48V65ZM57.1014 65.14C55.9147 65.14 54.8747 64.9067 53.9814 64.44C53.1014 63.96 52.4147 63.3067 51.9214 62.48C51.4414 61.6533 51.2014 60.7133 51.2014 59.66C51.2014 58.5933 51.4347 57.6533 51.9014 56.84C52.3814 56.0133 53.0347 55.3667 53.8614 54.9C54.7014 54.4333 55.6547 54.2 56.7214 54.2C57.7614 54.2 58.6881 54.4267 59.5014 54.88C60.3147 55.3333 60.9547 55.9733 61.4214 56.8C61.8881 57.6267 62.1214 58.6 62.1214 59.72C62.1214 59.8267 62.1147 59.9467 62.1014 60.08C62.1014 60.2133 62.0947 60.34 62.0814 60.46H53.1814V58.8H60.7614L59.7814 59.32C59.7947 58.7067 59.6681 58.1667 59.4014 57.7C59.1347 57.2333 58.7681 56.8667 58.3014 56.6C57.8481 56.3333 57.3214 56.2 56.7214 56.2C56.1081 56.2 55.5681 56.3333 55.1014 56.6C54.6481 56.8667 54.2881 57.24 54.0214 57.72C53.7681 58.1867 53.6414 58.74 53.6414 59.38V59.78C53.6414 60.42 53.7881 60.9867 54.0814 61.48C54.3747 61.9733 54.7881 62.3533 55.3214 62.62C55.8547 62.8867 56.4681 63.02 57.1614 63.02C57.7614 63.02 58.3014 62.9267 58.7814 62.74C59.2614 62.5533 59.6881 62.26 60.0614 61.86L61.4014 63.4C60.9214 63.96 60.3147 64.3933 59.5814 64.7C58.8614 64.9933 58.0347 65.14 57.1014 65.14ZM69.5428 65.14C68.3561 65.14 67.3161 64.9067 66.4228 64.44C65.5428 63.96 64.8561 63.3067 64.3628 62.48C63.8828 61.6533 63.6428 60.7133 63.6428 59.66C63.6428 58.5933 63.8761 57.6533 64.3428 56.84C64.8228 56.0133 65.4761 55.3667 66.3028 54.9C67.1428 54.4333 68.0961 54.2 69.1628 54.2C70.2028 54.2 71.1295 54.4267 71.9428 54.88C72.7561 55.3333 73.3961 55.9733 73.8628 56.8C74.3295 57.6267 74.5628 58.6 74.5628 59.72C74.5628 59.8267 74.5561 59.9467 74.5428 60.08C74.5428 60.2133 74.5361 60.34 74.5228 60.46H65.6228V58.8H73.2028L72.2228 59.32C72.2361 58.7067 72.1095 58.1667 71.8428 57.7C71.5761 57.2333 71.2095 56.8667 70.7428 56.6C70.2895 56.3333 69.7628 56.2 69.1628 56.2C68.5495 56.2 68.0095 56.3333 67.5428 56.6C67.0895 56.8667 66.7295 57.24 66.4628 57.72C66.2095 58.1867 66.0828 58.74 66.0828 59.38V59.78C66.0828 60.42 66.2295 60.9867 66.5228 61.48C66.8161 61.9733 67.2295 62.3533 67.7628 62.62C68.2961 62.8867 68.9095 63.02 69.6028 63.02C70.2028 63.02 70.7428 62.9267 71.2228 62.74C71.7028 62.5533 72.1295 62.26 72.5028 61.86L73.8428 63.4C73.3628 63.96 72.7561 64.3933 72.0228 64.7C71.3028 64.9933 70.4761 65.14 69.5428 65.14ZM81.4842 65.14C80.4576 65.14 79.5309 64.9133 78.7042 64.46C77.8909 63.9933 77.2509 63.3533 76.7842 62.54C76.3176 61.7267 76.0842 60.7667 76.0842 59.66C76.0842 58.5533 76.3176 57.5933 76.7842 56.78C77.2509 55.9667 77.8909 55.3333 78.7042 54.88C79.5309 54.4267 80.4576 54.2 81.4842 54.2C82.3776 54.2 83.1776 54.4 83.8842 54.8C84.5909 55.1867 85.1509 55.78 85.5642 56.58C85.9776 57.38 86.1842 58.4067 86.1842 59.66C86.1842 60.9 85.9842 61.9267 85.5842 62.74C85.1842 63.54 84.6309 64.14 83.9242 64.54C83.2176 64.94 82.4042 65.14 81.4842 65.14ZM81.7842 63C82.3842 63 82.9176 62.8667 83.3842 62.6C83.8642 62.3333 84.2442 61.9467 84.5242 61.44C84.8176 60.9333 84.9642 60.34 84.9642 59.66C84.9642 58.9667 84.8176 58.3733 84.5242 57.88C84.2442 57.3733 83.8642 56.9867 83.3842 56.72C82.9176 56.4533 82.3842 56.32 81.7842 56.32C81.1842 56.32 80.6442 56.4533 80.1642 56.72C79.6976 56.9867 79.3176 57.3733 79.0242 57.88C78.7442 58.3733 78.6042 58.9667 78.6042 59.66C78.6042 60.34 78.7442 60.9333 79.0242 61.44C79.3176 61.9467 79.6976 62.3333 80.1642 62.6C80.6442 62.8667 81.1842 63 81.7842 63ZM85.0242 65V62.48L85.1242 59.64L84.9242 56.8V50.16H87.4042V65H85.0242ZM90.6947 65V54.32H93.1947V65H90.6947ZM91.9547 52.56C91.488 52.56 91.1014 52.4133 90.7947 52.12C90.5014 51.8267 90.3547 51.4733 90.3547 51.06C90.3547 50.6333 90.5014 50.28 90.7947 50C91.1014 49.7067 91.488 49.56 91.9547 49.56C92.4214 49.56 92.8014 49.7 93.0947 49.98C93.4014 50.2467 93.5547 50.5867 93.5547 51C93.5547 51.44 93.408 51.8133 93.1147 52.12C92.8214 52.4133 92.4347 52.56 91.9547 52.56ZM102.536 54.2C103.389 54.2 104.149 54.3667 104.816 54.7C105.496 55.0333 106.029 55.5467 106.416 56.24C106.803 56.92 106.996 57.8 106.996 58.88V65H104.496V59.2C104.496 58.2533 104.269 57.5467 103.816 57.08C103.376 56.6133 102.756 56.38 101.956 56.38C101.369 56.38 100.849 56.5 100.396 56.74C99.9426 56.98 99.5893 57.34 99.3359 57.82C99.0959 58.2867 98.9759 58.88 98.9759 59.6V65H96.4759V54.32H98.8559V57.2L98.4359 56.32C98.8093 55.64 99.3493 55.12 100.056 54.76C100.776 54.3867 101.603 54.2 102.536 54.2ZM115.027 69.02C114.04 69.02 113.074 68.8867 112.127 68.62C111.194 68.3667 110.427 67.9933 109.827 67.5L110.947 65.62C111.414 66.0067 112 66.3133 112.707 66.54C113.427 66.78 114.154 66.9 114.887 66.9C116.06 66.9 116.92 66.6267 117.467 66.08C118.014 65.5467 118.287 64.74 118.287 63.66V61.76L118.487 59.34L118.407 56.92V54.32H120.787V63.38C120.787 65.3133 120.294 66.7333 119.307 67.64C118.32 68.56 116.894 69.02 115.027 69.02ZM114.707 64.52C113.694 64.52 112.774 64.3067 111.947 63.88C111.134 63.44 110.487 62.8333 110.007 62.06C109.54 61.2867 109.307 60.38 109.307 59.34C109.307 58.3133 109.54 57.4133 110.007 56.64C110.487 55.8667 111.134 55.2667 111.947 54.84C112.774 54.4133 113.694 54.2 114.707 54.2C115.614 54.2 116.427 54.38 117.147 54.74C117.867 55.1 118.44 55.66 118.867 56.42C119.307 57.18 119.527 58.1533 119.527 59.34C119.527 60.5267 119.307 61.5067 118.867 62.28C118.44 63.04 117.867 63.6067 117.147 63.98C116.427 64.34 115.614 64.52 114.707 64.52ZM115.087 62.4C115.714 62.4 116.274 62.2733 116.767 62.02C117.26 61.7533 117.64 61.3933 117.907 60.94C118.187 60.4733 118.327 59.94 118.327 59.34C118.327 58.74 118.187 58.2133 117.907 57.76C117.64 57.2933 117.26 56.94 116.767 56.7C116.274 56.4467 115.714 56.32 115.087 56.32C114.46 56.32 113.894 56.4467 113.387 56.7C112.894 56.94 112.507 57.2933 112.227 57.76C111.96 58.2133 111.827 58.74 111.827 59.34C111.827 59.94 111.96 60.4733 112.227 60.94C112.507 61.3933 112.894 61.7533 113.387 62.02C113.894 62.2733 114.46 62.4 115.087 62.4Z" fill="#3C3C43"/>
<path d="M39.368 101V92.6H42.992C43.928 92.6 44.652 92.788 45.164 93.164C45.684 93.54 45.944 94.072 45.944 94.76C45.944 95.216 45.836 95.6 45.62 95.912C45.412 96.224 45.124 96.46 44.756 96.62C44.396 96.78 44 96.86 43.568 96.86L43.772 96.572C44.308 96.572 44.768 96.656 45.152 96.824C45.544 96.984 45.848 97.228 46.064 97.556C46.28 97.876 46.388 98.276 46.388 98.756C46.388 99.468 46.124 100.02 45.596 100.412C45.076 100.804 44.288 101 43.232 101H39.368ZM40.256 100.268H43.22C43.956 100.268 44.52 100.144 44.912 99.896C45.304 99.64 45.5 99.236 45.5 98.684C45.5 98.14 45.304 97.744 44.912 97.496C44.52 97.24 43.956 97.112 43.22 97.112H40.16V96.38H42.932C43.604 96.38 44.124 96.252 44.492 95.996C44.868 95.74 45.056 95.36 45.056 94.856C45.056 94.344 44.868 93.964 44.492 93.716C44.124 93.46 43.604 93.332 42.932 93.332H40.256V100.268ZM48.2349 101V94.7H49.0509V96.416L48.9669 96.116C49.1429 95.636 49.4389 95.272 49.8549 95.024C50.2709 94.768 50.7869 94.64 51.4029 94.64V95.468C51.3709 95.468 51.3389 95.468 51.3069 95.468C51.2749 95.46 51.2429 95.456 51.2109 95.456C50.5469 95.456 50.0269 95.66 49.6509 96.068C49.2749 96.468 49.0869 97.04 49.0869 97.784V101H48.2349ZM55.5749 101.06C54.9189 101.06 54.3429 100.924 53.8469 100.652C53.3509 100.372 52.9629 99.992 52.6829 99.512C52.4029 99.024 52.2629 98.468 52.2629 97.844C52.2629 97.22 52.3949 96.668 52.6589 96.188C52.9309 95.708 53.2989 95.332 53.7629 95.06C54.2349 94.78 54.7629 94.64 55.3469 94.64C55.9389 94.64 56.4629 94.776 56.9189 95.048C57.3829 95.312 57.7469 95.688 58.0109 96.176C58.2749 96.656 58.4069 97.212 58.4069 97.844C58.4069 97.884 58.4029 97.928 58.3949 97.976C58.3949 98.016 58.3949 98.06 58.3949 98.108H52.9109V97.472H57.9389L57.6029 97.724C57.6029 97.268 57.5029 96.864 57.3029 96.512C57.1109 96.152 56.8469 95.872 56.5109 95.672C56.1749 95.472 55.7869 95.372 55.3469 95.372C54.9149 95.372 54.5269 95.472 54.1829 95.672C53.8389 95.872 53.5709 96.152 53.3789 96.512C53.1869 96.872 53.0909 97.284 53.0909 97.748V97.88C53.0909 98.36 53.1949 98.784 53.4029 99.152C53.6189 99.512 53.9149 99.796 54.2909 100.004C54.6749 100.204 55.1109 100.304 55.5989 100.304C55.9829 100.304 56.3389 100.236 56.6669 100.1C57.0029 99.964 57.2909 99.756 57.5309 99.476L58.0109 100.028C57.7309 100.364 57.3789 100.62 56.9549 100.796C56.5389 100.972 56.0789 101.06 55.5749 101.06ZM63.9133 101V99.608L63.8773 99.38V97.052C63.8773 96.516 63.7253 96.104 63.4213 95.816C63.1253 95.528 62.6813 95.384 62.0893 95.384C61.6813 95.384 61.2933 95.452 60.9253 95.588C60.5573 95.724 60.2453 95.904 59.9893 96.128L59.6053 95.492C59.9253 95.22 60.3093 95.012 60.7573 94.868C61.2053 94.716 61.6773 94.64 62.1733 94.64C62.9893 94.64 63.6173 94.844 64.0573 95.252C64.5053 95.652 64.7293 96.264 64.7293 97.088V101H63.9133ZM61.7413 101.06C61.2693 101.06 60.8573 100.984 60.5053 100.832C60.1613 100.672 59.8973 100.456 59.7133 100.184C59.5293 99.904 59.4373 99.584 59.4373 99.224C59.4373 98.896 59.5133 98.6 59.6653 98.336C59.8253 98.064 60.0813 97.848 60.4333 97.688C60.7933 97.52 61.2733 97.436 61.8733 97.436H64.0453V98.072H61.8973C61.2893 98.072 60.8653 98.18 60.6253 98.396C60.3933 98.612 60.2773 98.88 60.2773 99.2C60.2773 99.56 60.4173 99.848 60.6973 100.064C60.9773 100.28 61.3693 100.388 61.8733 100.388C62.3533 100.388 62.7653 100.28 63.1093 100.064C63.4613 99.84 63.7173 99.52 63.8773 99.104L64.0693 99.692C63.9093 100.108 63.6293 100.44 63.2293 100.688C62.8373 100.936 62.3413 101.06 61.7413 101.06ZM68.7355 101.06C68.2155 101.06 67.7235 100.988 67.2595 100.844C66.7955 100.692 66.4315 100.504 66.1675 100.28L66.5515 99.608C66.8075 99.8 67.1355 99.968 67.5355 100.112C67.9355 100.248 68.3555 100.316 68.7955 100.316C69.3955 100.316 69.8275 100.224 70.0915 100.04C70.3555 99.848 70.4875 99.596 70.4875 99.284C70.4875 99.052 70.4115 98.872 70.2595 98.744C70.1155 98.608 69.9235 98.508 69.6835 98.444C69.4435 98.372 69.1755 98.312 68.8795 98.264C68.5835 98.216 68.2875 98.16 67.9915 98.096C67.7035 98.032 67.4395 97.94 67.1995 97.82C66.9595 97.692 66.7635 97.52 66.6115 97.304C66.4675 97.088 66.3955 96.8 66.3955 96.44C66.3955 96.096 66.4915 95.788 66.6835 95.516C66.8755 95.244 67.1555 95.032 67.5235 94.88C67.8995 94.72 68.3555 94.64 68.8915 94.64C69.2995 94.64 69.7075 94.696 70.1155 94.808C70.5235 94.912 70.8595 95.052 71.1235 95.228L70.7515 95.912C70.4715 95.72 70.1715 95.584 69.8515 95.504C69.5315 95.416 69.2115 95.372 68.8915 95.372C68.3235 95.372 67.9035 95.472 67.6315 95.672C67.3675 95.864 67.2355 96.112 67.2355 96.416C67.2355 96.656 67.3075 96.844 67.4515 96.98C67.6035 97.116 67.7995 97.224 68.0395 97.304C68.2875 97.376 68.5555 97.436 68.8435 97.484C69.1395 97.532 69.4315 97.592 69.7195 97.664C70.0155 97.728 70.2835 97.82 70.5235 97.94C70.7715 98.052 70.9675 98.216 71.1115 98.432C71.2635 98.64 71.3395 98.916 71.3395 99.26C71.3395 99.628 71.2355 99.948 71.0275 100.22C70.8275 100.484 70.5315 100.692 70.1395 100.844C69.7555 100.988 69.2875 101.06 68.7355 101.06ZM74.8948 101.06C74.3028 101.06 73.8468 100.9 73.5268 100.58C73.2068 100.26 73.0468 99.808 73.0468 99.224V93.308H73.8988V99.176C73.8988 99.544 73.9908 99.828 74.1748 100.028C74.3668 100.228 74.6388 100.328 74.9908 100.328C75.3668 100.328 75.6788 100.22 75.9268 100.004L76.2268 100.616C76.0588 100.768 75.8548 100.88 75.6148 100.952C75.3828 101.024 75.1428 101.06 74.8948 101.06ZM71.9188 95.408V94.7H75.8188V95.408H71.9188ZM77.9218 101V93.908C77.9218 93.348 78.0858 92.896 78.4138 92.552C78.7418 92.208 79.2138 92.036 79.8298 92.036C80.0698 92.036 80.3018 92.068 80.5258 92.132C80.7498 92.196 80.9378 92.296 81.0898 92.432L80.8018 93.068C80.6818 92.964 80.5418 92.888 80.3818 92.84C80.2218 92.784 80.0498 92.756 79.8658 92.756C79.5058 92.756 79.2298 92.856 79.0378 93.056C78.8458 93.256 78.7498 93.552 78.7498 93.944V94.904L78.7738 95.3V101H77.9218ZM76.7938 95.408V94.7H80.6938V95.408H76.7938ZM84.4148 101.06C83.7588 101.06 83.1828 100.924 82.6868 100.652C82.1908 100.372 81.8028 99.992 81.5228 99.512C81.2428 99.024 81.1028 98.468 81.1028 97.844C81.1028 97.22 81.2348 96.668 81.4988 96.188C81.7708 95.708 82.1388 95.332 82.6028 95.06C83.0748 94.78 83.6028 94.64 84.1868 94.64C84.7788 94.64 85.3028 94.776 85.7588 95.048C86.2228 95.312 86.5868 95.688 86.8508 96.176C87.1148 96.656 87.2468 97.212 87.2468 97.844C87.2468 97.884 87.2428 97.928 87.2348 97.976C87.2348 98.016 87.2348 98.06 87.2348 98.108H81.7508V97.472H86.7788L86.4428 97.724C86.4428 97.268 86.3428 96.864 86.1428 96.512C85.9508 96.152 85.6868 95.872 85.3508 95.672C85.0148 95.472 84.6268 95.372 84.1868 95.372C83.7548 95.372 83.3668 95.472 83.0228 95.672C82.6788 95.872 82.4108 96.152 82.2188 96.512C82.0268 96.872 81.9308 97.284 81.9308 97.748V97.88C81.9308 98.36 82.0348 98.784 82.2428 99.152C82.4588 99.512 82.7548 99.796 83.1308 100.004C83.5148 100.204 83.9508 100.304 84.4388 100.304C84.8228 100.304 85.1788 100.236 85.5068 100.1C85.8428 99.964 86.1308 99.756 86.3708 99.476L86.8508 100.028C86.5708 100.364 86.2188 100.62 85.7948 100.796C85.3788 100.972 84.9188 101.06 84.4148 101.06ZM91.657 101.06C91.001 101.06 90.425 100.924 89.929 100.652C89.433 100.372 89.045 99.992 88.765 99.512C88.485 99.024 88.345 98.468 88.345 97.844C88.345 97.22 88.477 96.668 88.741 96.188C89.013 95.708 89.381 95.332 89.845 95.06C90.317 94.78 90.845 94.64 91.429 94.64C92.021 94.64 92.545 94.776 93.001 95.048C93.465 95.312 93.829 95.688 94.093 96.176C94.357 96.656 94.489 97.212 94.489 97.844C94.489 97.884 94.485 97.928 94.477 97.976C94.477 98.016 94.477 98.06 94.477 98.108H88.993V97.472H94.021L93.685 97.724C93.685 97.268 93.585 96.864 93.385 96.512C93.193 96.152 92.929 95.872 92.593 95.672C92.257 95.472 91.869 95.372 91.429 95.372C90.997 95.372 90.609 95.472 90.265 95.672C89.921 95.872 89.653 96.152 89.461 96.512C89.269 96.872 89.173 97.284 89.173 97.748V97.88C89.173 98.36 89.277 98.784 89.485 99.152C89.701 99.512 89.997 99.796 90.373 100.004C90.757 100.204 91.193 100.304 91.681 100.304C92.065 100.304 92.421 100.236 92.749 100.1C93.085 99.964 93.373 99.756 93.613 99.476L94.093 100.028C93.813 100.364 93.461 100.62 93.037 100.796C92.621 100.972 92.161 101.06 91.657 101.06ZM98.7312 101.06C98.1312 101.06 97.5912 100.924 97.1112 100.652C96.6392 100.38 96.2672 100.004 95.9952 99.524C95.7232 99.036 95.5872 98.476 95.5872 97.844C95.5872 97.204 95.7232 96.644 95.9952 96.164C96.2672 95.684 96.6392 95.312 97.1112 95.048C97.5912 94.776 98.1312 94.64 98.7312 94.64C99.2832 94.64 99.7752 94.764 100.207 95.012C100.647 95.26 100.995 95.624 101.251 96.104C101.515 96.576 101.647 97.156 101.647 97.844C101.647 98.524 101.519 99.104 101.263 99.584C101.007 100.064 100.659 100.432 100.219 100.688C99.7872 100.936 99.2912 101.06 98.7312 101.06ZM98.7912 100.304C99.2392 100.304 99.6392 100.204 99.9912 100.004C100.351 99.796 100.631 99.508 100.831 99.14C101.039 98.764 101.143 98.332 101.143 97.844C101.143 97.348 101.039 96.916 100.831 96.548C100.631 96.18 100.351 95.896 99.9912 95.696C99.6392 95.488 99.2392 95.384 98.7912 95.384C98.3512 95.384 97.9552 95.488 97.6032 95.696C97.2512 95.896 96.9712 96.18 96.7632 96.548C96.5552 96.916 96.4512 97.348 96.4512 97.844C96.4512 98.332 96.5552 98.764 96.7632 99.14C96.9712 99.508 97.2512 99.796 97.6032 100.004C97.9552 100.204 98.3512 100.304 98.7912 100.304ZM101.167 101V99.104L101.251 97.832L101.131 96.56V92.096H101.983V101H101.167ZM103.84 102.752L104.368 100.532L104.464 101.048C104.28 101.048 104.124 100.988 103.996 100.868C103.876 100.748 103.816 100.592 103.816 100.4C103.816 100.208 103.876 100.052 103.996 99.932C104.124 99.812 104.276 99.752 104.452 99.752C104.636 99.752 104.784 99.816 104.896 99.944C105.016 100.072 105.076 100.224 105.076 100.4C105.076 100.464 105.072 100.528 105.064 100.592C105.056 100.656 105.04 100.728 105.016 100.808C104.992 100.888 104.96 100.984 104.92 101.096L104.416 102.752H103.84ZM117.912 94.64C118.424 94.64 118.868 94.74 119.244 94.94C119.628 95.132 119.924 95.428 120.132 95.828C120.348 96.228 120.456 96.732 120.456 97.34V101H119.604V97.424C119.604 96.76 119.444 96.26 119.124 95.924C118.812 95.58 118.368 95.408 117.792 95.408C117.36 95.408 116.984 95.5 116.664 95.684C116.352 95.86 116.108 96.12 115.932 96.464C115.764 96.8 115.68 97.208 115.68 97.688V101H114.828V97.424C114.828 96.76 114.668 96.26 114.348 95.924C114.028 95.58 113.58 95.408 113.004 95.408C112.58 95.408 112.208 95.5 111.888 95.684C111.568 95.86 111.32 96.12 111.144 96.464C110.976 96.8 110.892 97.208 110.892 97.688V101H110.04V94.7H110.856V96.404L110.724 96.104C110.916 95.648 111.224 95.292 111.648 95.036C112.08 94.772 112.588 94.64 113.172 94.64C113.788 94.64 114.312 94.796 114.744 95.108C115.176 95.412 115.456 95.872 115.584 96.488L115.248 96.356C115.432 95.844 115.756 95.432 116.22 95.12C116.692 94.8 117.256 94.64 117.912 94.64ZM122.766 101V94.7H123.618V101H122.766ZM123.198 93.308C123.022 93.308 122.874 93.248 122.754 93.128C122.634 93.008 122.574 92.864 122.574 92.696C122.574 92.528 122.634 92.388 122.754 92.276C122.874 92.156 123.022 92.096 123.198 92.096C123.374 92.096 123.522 92.152 123.642 92.264C123.762 92.376 123.822 92.516 123.822 92.684C123.822 92.86 123.762 93.008 123.642 93.128C123.53 93.248 123.382 93.308 123.198 93.308ZM125.989 101V92.096H126.841V101H125.989ZM129.883 99.368L129.907 98.276L133.831 94.7H134.875L132.103 97.352L131.623 97.76L129.883 99.368ZM129.211 101V92.096H130.063V101H129.211ZM134.095 101L131.467 97.724L132.019 97.064L135.139 101H134.095ZM136.02 102.752L136.548 100.532L136.644 101.048C136.46 101.048 136.304 100.988 136.176 100.868C136.056 100.748 135.996 100.592 135.996 100.4C135.996 100.208 136.056 100.052 136.176 99.932C136.304 99.812 136.456 99.752 136.632 99.752C136.816 99.752 136.964 99.816 137.076 99.944C137.196 100.072 137.256 100.224 137.256 100.4C137.256 100.464 137.252 100.528 137.244 100.592C137.236 100.656 137.22 100.728 137.196 100.808C137.172 100.888 137.14 100.984 137.1 101.096L136.596 102.752H136.02ZM144.895 101.06C144.239 101.06 143.663 100.924 143.167 100.652C142.671 100.372 142.283 99.992 142.003 99.512C141.723 99.024 141.583 98.468 141.583 97.844C141.583 97.22 141.715 96.668 141.979 96.188C142.251 95.708 142.619 95.332 143.083 95.06C143.555 94.78 144.083 94.64 144.667 94.64C145.259 94.64 145.783 94.776 146.239 95.048C146.703 95.312 147.067 95.688 147.331 96.176C147.595 96.656 147.727 97.212 147.727 97.844C147.727 97.884 147.723 97.928 147.715 97.976C147.715 98.016 147.715 98.06 147.715 98.108H142.231V97.472H147.259L146.923 97.724C146.923 97.268 146.823 96.864 146.623 96.512C146.431 96.152 146.167 95.872 145.831 95.672C145.495 95.472 145.107 95.372 144.667 95.372C144.235 95.372 143.847 95.472 143.503 95.672C143.159 95.872 142.891 96.152 142.699 96.512C142.507 96.872 142.411 97.284 142.411 97.748V97.88C142.411 98.36 142.515 98.784 142.723 99.152C142.939 99.512 143.235 99.796 143.611 100.004C143.995 100.204 144.431 100.304 144.919 100.304C145.303 100.304 145.659 100.236 145.987 100.1C146.323 99.964 146.611 99.756 146.851 99.476L147.331 100.028C147.051 100.364 146.699 100.62 146.275 100.796C145.859 100.972 145.399 101.06 144.895 101.06ZM151.453 101.06C150.861 101.06 150.405 100.9 150.085 100.58C149.765 100.26 149.605 99.808 149.605 99.224V93.308H150.457V99.176C150.457 99.544 150.549 99.828 150.733 100.028C150.925 100.228 151.197 100.328 151.549 100.328C151.925 100.328 152.237 100.22 152.485 100.004L152.785 100.616C152.617 100.768 152.413 100.88 152.173 100.952C151.941 101.024 151.701 101.06 151.453 101.06ZM148.477 95.408V94.7H152.377V95.408H148.477ZM156.73 101.06C156.106 101.06 155.546 100.924 155.05 100.652C154.562 100.372 154.178 99.992 153.898 99.512C153.618 99.024 153.478 98.468 153.478 97.844C153.478 97.212 153.618 96.656 153.898 96.176C154.178 95.696 154.562 95.32 155.05 95.048C155.546 94.776 156.106 94.64 156.73 94.64C157.266 94.64 157.75 94.744 158.182 94.952C158.614 95.16 158.954 95.472 159.202 95.888L158.566 96.32C158.35 96 158.082 95.764 157.762 95.612C157.442 95.46 157.094 95.384 156.718 95.384C156.27 95.384 155.866 95.488 155.506 95.696C155.146 95.896 154.862 96.18 154.654 96.548C154.446 96.916 154.342 97.348 154.342 97.844C154.342 98.34 154.446 98.772 154.654 99.14C154.862 99.508 155.146 99.796 155.506 100.004C155.866 100.204 156.27 100.304 156.718 100.304C157.094 100.304 157.442 100.228 157.762 100.076C158.082 99.924 158.35 99.692 158.566 99.38L159.202 99.812C158.954 100.22 158.614 100.532 158.182 100.748C157.75 100.956 157.266 101.06 156.73 101.06Z" fill="#3C3C43"/>
</g>
</g>
<defs>
<filter id="filter0_d_329_281" x="0" y="0" width="208" height="156" filterUnits="userSpaceOnUse" color-interpolation-filters="sRGB">
<feFlood flood-opacity="0" result="BackgroundImageFix"/>
<feColorMatrix in="SourceAlpha" type="matrix" values="0 0 0 0 0 0 0 0 0 0 0 0 0 0 0 0 0 0 127 0" result="hardAlpha"/>
<feOffset/>
<feGaussianBlur stdDeviation="7"/>
<feComposite in2="hardAlpha" operator="out"/>
<feColorMatrix type="matrix" values="0 0 0 0 0.377661 0 0 0 0 0.471527 0 0 0 0 0.878281 0 0 0 0.13 0"/>
<feBlend mode="normal" in2="BackgroundImageFix" result="effect1_dropShadow_329_281"/>
<feBlend mode="normal" in="SourceGraphic" in2="effect1_dropShadow_329_281" result="shape"/>
</filter>
</defs>
</svg>
