<svg width="331" height="95" viewBox="0 0 331 95" fill="none" xmlns="http://www.w3.org/2000/svg">
<g filter="url(#filter0_d_432_892)">
<rect x="43" y="10" width="278" height="75" rx="8" fill="white"/>
</g>
<path d="M129.619 54.8V66H127.907L121.731 58.416V66H119.667V54.8H121.379L127.555 62.384V54.8H129.619ZM135.692 57.36C136.951 57.36 137.911 57.664 138.572 58.272C139.244 58.8693 139.58 59.776 139.58 60.992V66H137.692V64.96C137.447 65.3333 137.095 65.6213 136.636 65.824C136.188 66.016 135.644 66.112 135.004 66.112C134.364 66.112 133.804 66.0053 133.324 65.792C132.844 65.568 132.471 65.264 132.204 64.88C131.948 64.4853 131.82 64.0427 131.82 63.552C131.82 62.784 132.103 62.1707 132.668 61.712C133.244 61.2427 134.146 61.008 135.372 61.008H137.58V60.88C137.58 60.2827 137.399 59.824 137.036 59.504C136.684 59.184 136.156 59.024 135.452 59.024C134.972 59.024 134.498 59.0987 134.028 59.248C133.57 59.3973 133.18 59.6053 132.86 59.872L132.076 58.416C132.524 58.0747 133.063 57.8133 133.692 57.632C134.322 57.4507 134.988 57.36 135.692 57.36ZM135.42 64.656C135.922 64.656 136.364 64.544 136.748 64.32C137.143 64.0853 137.42 63.7547 137.58 63.328V62.336H135.516C134.364 62.336 133.788 62.7147 133.788 63.472C133.788 63.8347 133.932 64.1227 134.22 64.336C134.508 64.5493 134.908 64.656 135.42 64.656ZM146.883 57.36C147.715 57.36 148.456 57.5413 149.107 57.904C149.768 58.2667 150.286 58.7787 150.659 59.44C151.032 60.1013 151.219 60.864 151.219 61.728C151.219 62.592 151.032 63.36 150.659 64.032C150.286 64.6933 149.768 65.2053 149.107 65.568C148.456 65.9307 147.715 66.112 146.883 66.112C145.731 66.112 144.819 65.728 144.147 64.96V69.104H142.147V57.456H144.051V58.576C144.382 58.1707 144.787 57.8667 145.267 57.664C145.758 57.4613 146.296 57.36 146.883 57.36ZM146.659 64.4C147.395 64.4 147.998 64.1547 148.467 63.664C148.947 63.1733 149.187 62.528 149.187 61.728C149.187 60.928 148.947 60.2827 148.467 59.792C147.998 59.3013 147.395 59.056 146.659 59.056C146.179 59.056 145.747 59.168 145.363 59.392C144.979 59.6053 144.675 59.9147 144.451 60.32C144.227 60.7253 144.115 61.1947 144.115 61.728C144.115 62.2613 144.227 62.7307 144.451 63.136C144.675 63.5413 144.979 63.856 145.363 64.08C145.747 64.2933 146.179 64.4 146.659 64.4Z" fill="#3C3C43"/>
<rect x="118.163" y="29" width="35" height="15" rx="2" fill="#BA91DE"/>
<path d="M124.979 39.08C124.547 39.08 124.129 39.0187 123.723 38.896C123.323 38.7733 123.006 38.6107 122.771 38.408L123.131 37.6C123.361 37.7813 123.641 37.9307 123.971 38.048C124.307 38.16 124.643 38.216 124.979 38.216C125.395 38.216 125.705 38.1493 125.907 38.016C126.115 37.8827 126.219 37.7067 126.219 37.488C126.219 37.328 126.161 37.1973 126.043 37.096C125.931 36.9893 125.787 36.9067 125.611 36.848C125.435 36.7893 125.195 36.7227 124.891 36.648C124.465 36.5467 124.118 36.4453 123.851 36.344C123.59 36.2427 123.363 36.0853 123.171 35.872C122.985 35.6533 122.891 35.36 122.891 34.992C122.891 34.6827 122.974 34.4027 123.139 34.152C123.31 33.896 123.563 33.6933 123.899 33.544C124.241 33.3947 124.657 33.32 125.147 33.32C125.489 33.32 125.825 33.3627 126.155 33.448C126.486 33.5333 126.771 33.656 127.011 33.816L126.683 34.624C126.438 34.48 126.182 34.3707 125.915 34.296C125.649 34.2213 125.39 34.184 125.139 34.184C124.729 34.184 124.422 34.2533 124.219 34.392C124.022 34.5307 123.923 34.7147 123.923 34.944C123.923 35.104 123.979 35.2347 124.091 35.336C124.209 35.4373 124.355 35.5173 124.531 35.576C124.707 35.6347 124.947 35.7013 125.251 35.776C125.667 35.872 126.009 35.9733 126.275 36.08C126.542 36.1813 126.769 36.3387 126.955 36.552C127.147 36.7653 127.243 37.0533 127.243 37.416C127.243 37.7253 127.158 38.0053 126.987 38.256C126.822 38.5067 126.569 38.7067 126.227 38.856C125.886 39.0053 125.47 39.08 124.979 39.08ZM128.274 33.4H129.314V38.12H132.242V39H128.274V33.4ZM137.264 38.128V39H133.064V33.4H137.152V34.272H134.104V35.728H136.808V36.584H134.104V38.128H137.264ZM142.623 38.128V39H138.423V33.4H142.511V34.272H139.463V35.728H142.167V36.584H139.463V38.128H142.623ZM146.086 33.4C146.572 33.4 146.993 33.48 147.35 33.64C147.713 33.8 147.99 34.0293 148.182 34.328C148.374 34.6267 148.47 34.9813 148.47 35.392C148.47 35.7973 148.374 36.152 148.182 36.456C147.99 36.7547 147.713 36.984 147.35 37.144C146.993 37.304 146.572 37.384 146.086 37.384H144.822V39H143.782V33.4H146.086ZM146.038 36.504C146.492 36.504 146.836 36.408 147.07 36.216C147.305 36.024 147.422 35.7493 147.422 35.392C147.422 35.0347 147.305 34.76 147.07 34.568C146.836 34.376 146.492 34.28 146.038 34.28H144.822V36.504H146.038Z" fill="white"/>
<path d="M163.135 41.072C162.487 41.072 161.911 40.904 161.407 40.568C160.903 40.224 160.507 39.736 160.219 39.104C159.931 38.464 159.787 37.696 159.787 36.8C159.787 35.904 159.931 35.14 160.219 34.508C160.507 33.868 160.903 33.38 161.407 33.044C161.911 32.7 162.487 32.528 163.135 32.528C163.783 32.528 164.359 32.7 164.863 33.044C165.367 33.38 165.763 33.868 166.051 34.508C166.347 35.14 166.495 35.904 166.495 36.8C166.495 37.696 166.347 38.464 166.051 39.104C165.763 39.736 165.367 40.224 164.863 40.568C164.359 40.904 163.783 41.072 163.135 41.072ZM163.135 40.28C163.631 40.28 164.063 40.148 164.431 39.884C164.799 39.612 165.087 39.22 165.295 38.708C165.503 38.188 165.607 37.552 165.607 36.8C165.607 36.048 165.503 35.416 165.295 34.904C165.087 34.384 164.799 33.992 164.431 33.728C164.063 33.456 163.631 33.32 163.135 33.32C162.655 33.32 162.227 33.456 161.851 33.728C161.475 33.992 161.183 34.384 160.975 34.904C160.767 35.416 160.663 36.048 160.663 36.8C160.663 37.552 160.767 38.188 160.975 38.708C161.183 39.22 161.475 39.612 161.851 39.884C162.227 40.148 162.655 40.28 163.135 40.28ZM170.384 41.072C169.784 41.072 169.212 40.976 168.668 40.784C168.124 40.584 167.692 40.32 167.372 39.992L167.792 39.308C168.056 39.588 168.416 39.82 168.872 40.004C169.336 40.188 169.836 40.28 170.372 40.28C171.084 40.28 171.624 40.124 171.992 39.812C172.368 39.492 172.556 39.076 172.556 38.564C172.556 38.204 172.468 37.896 172.292 37.64C172.124 37.376 171.836 37.172 171.428 37.028C171.02 36.884 170.46 36.812 169.748 36.812H167.96L168.392 32.6H172.988V33.368H168.74L169.184 32.948L168.812 36.476L168.368 36.044H169.94C170.788 36.044 171.468 36.148 171.98 36.356C172.492 36.564 172.86 36.856 173.084 37.232C173.316 37.6 173.432 38.032 173.432 38.528C173.432 39 173.32 39.432 173.096 39.824C172.872 40.208 172.536 40.512 172.088 40.736C171.64 40.96 171.072 41.072 170.384 41.072ZM175.177 35.948C175.001 35.948 174.849 35.884 174.721 35.756C174.601 35.628 174.541 35.472 174.541 35.288C174.541 35.096 174.601 34.94 174.721 34.82C174.849 34.7 175.001 34.64 175.177 34.64C175.353 34.64 175.501 34.7 175.621 34.82C175.749 34.94 175.813 35.096 175.813 35.288C175.813 35.472 175.749 35.628 175.621 35.756C175.501 35.884 175.353 35.948 175.177 35.948ZM175.177 41.06C175.001 41.06 174.849 40.996 174.721 40.868C174.601 40.74 174.541 40.584 174.541 40.4C174.541 40.208 174.601 40.052 174.721 39.932C174.849 39.812 175.001 39.752 175.177 39.752C175.353 39.752 175.501 39.812 175.621 39.932C175.749 40.052 175.813 40.208 175.813 40.4C175.813 40.584 175.749 40.74 175.621 40.868C175.501 40.996 175.353 41.06 175.177 41.06ZM176.928 38.792V38.168L181.38 32.6H182.34L177.924 38.168L177.456 38.024H184.212V38.792H176.928ZM181.668 41V38.792L181.692 38.024V36.08H182.532V41H181.668ZM185.884 41L189.508 32.984L189.772 33.368H184.576L185.02 32.948V34.94H184.168V32.6H190.336V33.212L186.82 41H185.884ZM195.359 41V32.6H198.503C199.215 32.6 199.827 32.716 200.339 32.948C200.851 33.172 201.243 33.5 201.515 33.932C201.795 34.356 201.935 34.872 201.935 35.48C201.935 36.072 201.795 36.584 201.515 37.016C201.243 37.44 200.851 37.768 200.339 38C199.827 38.232 199.215 38.348 198.503 38.348H195.851L196.247 37.928V41H195.359ZM196.247 38L195.851 37.568H198.479C199.319 37.568 199.955 37.388 200.387 37.028C200.827 36.66 201.047 36.144 201.047 35.48C201.047 34.808 200.827 34.288 200.387 33.92C199.955 33.552 199.319 33.368 198.479 33.368H195.851L196.247 32.948V38ZM203.855 41V32.6H204.587L208.427 39.152H208.043L211.847 32.6H212.579V41H211.727V33.932H211.931L208.427 39.932H208.007L204.479 33.932H204.707V41H203.855Z" fill="#3C3C43"/>
<path d="M260.311 65.12C259.551 65.12 258.899 64.96 258.355 64.64C257.811 64.312 257.395 63.84 257.107 63.224C256.819 62.608 256.675 61.848 256.675 60.944C256.675 59.984 256.847 59.172 257.191 58.508C257.543 57.844 258.027 57.34 258.643 56.996C259.267 56.652 259.983 56.48 260.791 56.48C261.215 56.48 261.619 56.524 262.003 56.612C262.395 56.7 262.727 56.836 262.999 57.02L262.423 58.196C262.191 58.044 261.939 57.94 261.667 57.884C261.403 57.82 261.123 57.788 260.827 57.788C260.035 57.788 259.407 58.032 258.943 58.52C258.479 59.008 258.247 59.728 258.247 60.68C258.247 60.832 258.251 61.012 258.259 61.22C258.267 61.42 258.295 61.624 258.343 61.832L257.863 61.304C258.007 60.976 258.203 60.704 258.451 60.488C258.707 60.264 259.007 60.096 259.351 59.984C259.703 59.872 260.083 59.816 260.491 59.816C261.043 59.816 261.535 59.924 261.967 60.14C262.399 60.348 262.743 60.648 262.999 61.04C263.255 61.424 263.383 61.876 263.383 62.396C263.383 62.948 263.247 63.428 262.975 63.836C262.703 64.244 262.335 64.56 261.871 64.784C261.407 65.008 260.887 65.12 260.311 65.12ZM260.227 63.896C260.547 63.896 260.831 63.84 261.079 63.728C261.327 63.608 261.519 63.44 261.655 63.224C261.799 63.008 261.871 62.756 261.871 62.468C261.871 62.028 261.719 61.68 261.415 61.424C261.111 61.168 260.703 61.04 260.191 61.04C259.855 61.04 259.559 61.104 259.303 61.232C259.055 61.352 258.855 61.52 258.703 61.736C258.559 61.952 258.487 62.2 258.487 62.48C258.487 62.736 258.555 62.972 258.691 63.188C258.827 63.404 259.023 63.576 259.279 63.704C259.543 63.832 259.859 63.896 260.227 63.896ZM267.703 65.12C267.039 65.12 266.439 64.952 265.903 64.616C265.375 64.28 264.959 63.792 264.655 63.152C264.351 62.504 264.199 61.72 264.199 60.8C264.199 59.88 264.351 59.1 264.655 58.46C264.959 57.812 265.375 57.32 265.903 56.984C266.439 56.648 267.039 56.48 267.703 56.48C268.375 56.48 268.975 56.648 269.503 56.984C270.031 57.32 270.447 57.812 270.751 58.46C271.063 59.1 271.219 59.88 271.219 60.8C271.219 61.72 271.063 62.504 270.751 63.152C270.447 63.792 270.031 64.28 269.503 64.616C268.975 64.952 268.375 65.12 267.703 65.12ZM267.703 63.764C268.095 63.764 268.435 63.66 268.723 63.452C269.011 63.236 269.235 62.908 269.395 62.468C269.563 62.028 269.647 61.472 269.647 60.8C269.647 60.12 269.563 59.564 269.395 59.132C269.235 58.692 269.011 58.368 268.723 58.16C268.435 57.944 268.095 57.836 267.703 57.836C267.327 57.836 266.991 57.944 266.695 58.16C266.407 58.368 266.179 58.692 266.011 59.132C265.851 59.564 265.771 60.12 265.771 60.8C265.771 61.472 265.851 62.028 266.011 62.468C266.179 62.908 266.407 63.236 266.695 63.452C266.991 63.66 267.327 63.764 267.703 63.764ZM284.134 58.52C284.646 58.52 285.098 58.62 285.49 58.82C285.89 59.02 286.202 59.328 286.426 59.744C286.65 60.152 286.762 60.68 286.762 61.328V65H285.262V61.52C285.262 60.952 285.138 60.528 284.89 60.248C284.642 59.968 284.286 59.828 283.822 59.828C283.494 59.828 283.202 59.9 282.946 60.044C282.698 60.188 282.502 60.4 282.358 60.68C282.222 60.96 282.154 61.316 282.154 61.748V65H280.654V61.52C280.654 60.952 280.53 60.528 280.282 60.248C280.034 59.968 279.678 59.828 279.214 59.828C278.886 59.828 278.594 59.9 278.338 60.044C278.09 60.188 277.894 60.4 277.75 60.68C277.614 60.96 277.546 61.316 277.546 61.748V65H276.046V58.592H277.474V60.296L277.222 59.792C277.438 59.376 277.75 59.06 278.158 58.844C278.574 58.628 279.046 58.52 279.574 58.52C280.174 58.52 280.694 58.668 281.134 58.964C281.582 59.26 281.878 59.708 282.022 60.308L281.434 60.104C281.642 59.624 281.986 59.24 282.466 58.952C282.946 58.664 283.502 58.52 284.134 58.52ZM288.678 65V58.592H290.178V65H288.678ZM289.434 57.536C289.154 57.536 288.922 57.448 288.738 57.272C288.562 57.096 288.474 56.884 288.474 56.636C288.474 56.38 288.562 56.168 288.738 56C288.922 55.824 289.154 55.736 289.434 55.736C289.714 55.736 289.942 55.82 290.118 55.988C290.302 56.148 290.394 56.352 290.394 56.6C290.394 56.864 290.306 57.088 290.13 57.272C289.954 57.448 289.722 57.536 289.434 57.536ZM295.783 58.52C296.295 58.52 296.751 58.62 297.151 58.82C297.559 59.02 297.879 59.328 298.111 59.744C298.343 60.152 298.459 60.68 298.459 61.328V65H296.959V61.52C296.959 60.952 296.823 60.528 296.551 60.248C296.287 59.968 295.915 59.828 295.435 59.828C295.083 59.828 294.771 59.9 294.499 60.044C294.227 60.188 294.015 60.404 293.863 60.692C293.719 60.972 293.647 61.328 293.647 61.76V65H292.147V58.592H293.575V60.32L293.323 59.792C293.547 59.384 293.871 59.072 294.295 58.856C294.727 58.632 295.223 58.52 295.783 58.52Z" fill="#3C3C43" fill-opacity="0.6"/>
<circle cx="84.6221" cy="48" r="19.5" stroke="#BA91DE"/>
<circle cx="84.6221" cy="48" r="17" stroke="#BA91DE" stroke-dasharray="2 2"/>
<path d="M76.4673 51.2449C77.2952 51.5115 78.1599 51.6469 79.0297 51.6461C83.636 51.6461 87.3703 47.9119 87.3703 43.3056C87.3717 42.1687 87.1398 41.0436 86.6891 39.9999C90.0425 41.0809 92.4673 44.2267 92.4673 47.9392C92.4673 52.5455 88.733 56.2798 84.1267 56.2798C80.6946 56.2798 77.7471 54.2072 76.4673 51.2449Z" fill="#BA91DE" stroke="#BA91DE" stroke-width="0.904437" stroke-linejoin="round"/>
<g filter="url(#filter1_d_432_892)">
<circle cx="19.5" cy="20.5" r="10.5" fill="url(#paint0_radial_432_892)"/>
</g>
<g filter="url(#filter2_d_432_892)">
<line x1="30" y1="20.25" x2="321" y2="20.25" stroke="#6078E0" stroke-width="1.5"/>
</g>
<circle cx="19.5" cy="20.5" r="7.5" fill="#6078E0"/>
<defs>
<filter id="filter0_d_432_892" x="33" y="0" width="298" height="95" filterUnits="userSpaceOnUse" color-interpolation-filters="sRGB">
<feFlood flood-opacity="0" result="BackgroundImageFix"/>
<feColorMatrix in="SourceAlpha" type="matrix" values="0 0 0 0 0 0 0 0 0 0 0 0 0 0 0 0 0 0 127 0" result="hardAlpha"/>
<feOffset/>
<feGaussianBlur stdDeviation="5"/>
<feComposite in2="hardAlpha" operator="out"/>
<feColorMatrix type="matrix" values="0 0 0 0 0.377661 0 0 0 0 0.471527 0 0 0 0 0.878281 0 0 0 0.25 0"/>
<feBlend mode="normal" in2="BackgroundImageFix" result="effect1_dropShadow_432_892"/>
<feBlend mode="normal" in="SourceGraphic" in2="effect1_dropShadow_432_892" result="shape"/>
</filter>
<filter id="filter1_d_432_892" x="0" y="1" width="39" height="39" filterUnits="userSpaceOnUse" color-interpolation-filters="sRGB">
<feFlood flood-opacity="0" result="BackgroundImageFix"/>
<feColorMatrix in="SourceAlpha" type="matrix" values="0 0 0 0 0 0 0 0 0 0 0 0 0 0 0 0 0 0 127 0" result="hardAlpha"/>
<feMorphology radius="2" operator="dilate" in="SourceAlpha" result="effect1_dropShadow_432_892"/>
<feOffset/>
<feGaussianBlur stdDeviation="3.5"/>
<feComposite in2="hardAlpha" operator="out"/>
<feColorMatrix type="matrix" values="0 0 0 0 0.377661 0 0 0 0 0.471527 0 0 0 0 0.878281 0 0 0 0.5 0"/>
<feBlend mode="normal" in2="BackgroundImageFix" result="effect1_dropShadow_432_892"/>
<feBlend mode="normal" in="SourceGraphic" in2="effect1_dropShadow_432_892" result="shape"/>
</filter>
<filter id="filter2_d_432_892" x="23" y="12.5" width="305" height="15.5" filterUnits="userSpaceOnUse" color-interpolation-filters="sRGB">
<feFlood flood-opacity="0" result="BackgroundImageFix"/>
<feColorMatrix in="SourceAlpha" type="matrix" values="0 0 0 0 0 0 0 0 0 0 0 0 0 0 0 0 0 0 127 0" result="hardAlpha"/>
<feOffset/>
<feGaussianBlur stdDeviation="3.5"/>
<feComposite in2="hardAlpha" operator="out"/>
<feColorMatrix type="matrix" values="0 0 0 0 0.377661 0 0 0 0 0.471527 0 0 0 0 0.878281 0 0 0 0.5 0"/>
<feBlend mode="normal" in2="BackgroundImageFix" result="effect1_dropShadow_432_892"/>
<feBlend mode="normal" in="SourceGraphic" in2="effect1_dropShadow_432_892" result="shape"/>
</filter>
<radialGradient id="paint0_radial_432_892" cx="0" cy="0" r="1" gradientUnits="userSpaceOnUse" gradientTransform="translate(19.5 20.5) rotate(90) scale(10.5)">
<stop stop-color="#6078E0"/>
<stop offset="1" stop-color="#BDC9FF"/>
</radialGradient>
</defs>
</svg>
