<svg width="390" height="852" viewBox="0 0 390 852" fill="none" xmlns="http://www.w3.org/2000/svg">
<g clip-path="url(#clip0_328_18)">
<rect width="390" height="852" fill="white"/>
<path d="M32.395 26.408V24.92L36.891 17.672H38.539V25.16H40.171V26.408H38.539V29H37.195V26.408H32.395ZM37.163 19.24L33.547 25.16H37.195V19.24H37.163ZM43.5896 22.28C43.5896 22.792 43.1256 23.24 42.6296 23.24C42.1656 23.24 41.6696 22.808 41.6696 22.28C41.6696 21.752 42.1176 21.32 42.6296 21.32C43.1896 21.32 43.5896 21.784 43.5896 22.28ZM43.5896 28.136C43.5896 28.648 43.1416 29.096 42.6296 29.096C42.1336 29.096 41.6696 28.648 41.6696 28.136C41.6696 27.608 42.1016 27.176 42.6296 27.176C43.1576 27.176 43.5896 27.624 43.5896 28.136ZM49.0987 17.48C51.1147 17.48 52.5547 18.664 52.5547 20.552C52.5547 22.28 51.6907 23.16 50.3467 24.44L46.8587 27.72V27.752H52.6347V29H45.3387V27.464L49.6907 23.224C51.1627 21.8 51.2107 21.176 51.2107 20.552C51.2107 19.416 50.3147 18.632 49.1467 18.632C48.0107 18.632 47.2107 19.336 47.0027 20.44L45.5467 20.312C45.8507 18.504 47.2267 17.48 49.0987 17.48ZM57.5574 17.48C60.0694 17.48 61.3974 19.688 61.3974 23.336C61.3974 27 60.0694 29.192 57.5574 29.192C55.0454 29.192 53.7174 26.984 53.7174 23.336C53.7174 19.688 55.0454 17.48 57.5574 17.48ZM55.0614 23.336C55.0614 26.392 55.9414 28.04 57.5574 28.04C59.1734 28.04 60.0534 26.408 60.0534 23.336C60.0534 20.28 59.1894 18.632 57.5414 18.632C55.9734 18.632 55.0614 20.216 55.0614 23.336Z" fill="white"/>
<g filter="url(#filter0_b_328_18)">
<g clip-path="url(#clip1_328_18)">
<rect opacity="0.2" x="317.5" y="19" width="3.5" height="11.5" rx="1" fill="white"/>
<path d="M312.5 22.5C312.5 21.9477 312.948 21.5 313.5 21.5H315C315.552 21.5 316 21.9477 316 22.5V29.5C316 30.0523 315.552 30.5 315 30.5H313.5C312.948 30.5 312.5 30.0523 312.5 29.5V22.5Z" fill="white"/>
<path d="M307.5 25C307.5 24.4477 307.948 24 308.5 24H310C310.552 24 311 24.4477 311 25V29.5C311 30.0523 310.552 30.5 310 30.5H308.5C307.948 30.5 307.5 30.0523 307.5 29.5V25Z" fill="white"/>
<path d="M302.5 27C302.5 26.4477 302.948 26 303.5 26H305C305.552 26 306 26.4477 306 27V29.5C306 30.0523 305.552 30.5 305 30.5H303.5C302.948 30.5 302.5 30.0523 302.5 29.5V27Z" fill="white"/>
<path d="M336.325 28.289C336.39 28.2255 336.426 28.138 336.424 28.0473C336.422 27.9566 336.383 27.8706 336.316 27.8098C334.979 26.6783 333.022 26.6783 331.686 27.8098C331.618 27.8706 331.579 27.9565 331.577 28.0472C331.575 28.1379 331.611 28.2254 331.676 28.289L333.768 30.4029C333.83 30.465 333.913 30.5 334.001 30.5C334.088 30.5 334.171 30.465 334.233 30.4029L336.325 28.289Z" fill="white"/>
<path d="M334 25.369C335.276 25.369 336.506 25.8435 337.451 26.7006C337.579 26.8222 337.781 26.8195 337.905 26.6946L339.115 25.4711C339.179 25.4069 339.214 25.3199 339.213 25.2294C339.212 25.1389 339.175 25.0526 339.11 24.9898C336.231 22.3088 331.772 22.3088 328.893 24.9898C328.828 25.0526 328.791 25.139 328.79 25.2295C328.789 25.32 328.825 25.407 328.889 25.4711L330.098 26.6946C330.222 26.8195 330.424 26.8222 330.552 26.7006C331.497 25.8441 332.726 25.3696 334 25.369Z" fill="white"/>
<path opacity="0.2" d="M334 21.3883C336.322 21.3884 338.555 22.2813 340.237 23.8825C340.364 24.0061 340.566 24.0045 340.691 23.879L341.902 22.6555C341.965 22.5918 342.001 22.5055 342 22.4158C341.999 22.326 341.963 22.2402 341.899 22.1772C337.483 17.9409 330.517 17.9409 326.101 22.1772C326.037 22.2401 326.001 22.326 326 22.4157C325.999 22.5055 326.035 22.5917 326.098 22.6555L327.309 23.879C327.434 24.0047 327.637 24.0063 327.763 23.8825C329.446 22.2812 331.679 21.3883 334 21.3883Z" fill="white"/>
<g clip-path="url(#clip2_328_18)">
<path d="M348 21.75C348 21.0596 348.56 20.5 349.25 20.5H350V29H349.25C348.56 29 348 28.4404 348 27.75V21.75Z" fill="white"/>
<path d="M350 20.5H352V29H350V20.5Z" fill="white"/>
<path d="M352 20.5H354V29H352V20.5Z" fill="white"/>
<path d="M354 20.5H356V29H354V20.5Z" fill="white"/>
<path d="M356 20.5H358V29H356V20.5Z" fill="white"/>
<path d="M358 20.5H360V29H358V20.5Z" fill="white"/>
<path d="M360 20.5H362V29H360V20.5Z" fill="white"/>
<path d="M364 21.75C364 21.0596 363.44 20.5 362.75 20.5H362V29H362.75C363.44 29 364 28.4404 364 27.75V21.75Z" fill="white"/>
</g>
<g opacity="0.5">
<path fill-rule="evenodd" clip-rule="evenodd" d="M346 21.5C346 19.8431 347.343 18.5 349 18.5H367C368.657 18.5 370 19.8431 370 21.5V28C370 29.6569 368.657 31 367 31H349C347.343 31 346 29.6569 346 28V21.5ZM349 19.5C347.895 19.5 347 20.3954 347 21.5V28C347 29.1046 347.895 30 349 30H367C368.105 30 369 29.1046 369 28V21.5C369 20.3954 368.105 19.5 367 19.5H349Z" fill="white"/>
<path d="M371 27.042C371.883 26.6562 372.5 25.7751 372.5 24.75C372.5 23.7248 371.883 22.8438 371 22.458V27.042Z" fill="white"/>
</g>
</g>
</g>
<path d="M75.512 120.643L68.184 143.043H62.616L57.688 127.875L52.6 143.043H47.064L39.704 120.643H45.08L50.136 136.387L55.416 120.643H60.216L65.336 136.515L70.552 120.643H75.512ZM93.6368 134.499C93.6368 134.563 93.6048 135.011 93.5408 135.843H80.5168C80.7514 136.909 81.3061 137.752 82.1808 138.371C83.0554 138.989 84.1434 139.299 85.4448 139.299C86.3408 139.299 87.1301 139.171 87.8128 138.915C88.5168 138.637 89.1674 138.211 89.7648 137.635L92.4208 140.515C90.7994 142.371 88.4314 143.299 85.3168 143.299C83.3754 143.299 81.6581 142.925 80.1648 142.179C78.6714 141.411 77.5194 140.355 76.7088 139.011C75.8981 137.667 75.4928 136.141 75.4928 134.435C75.4928 132.749 75.8874 131.235 76.6768 129.891C77.4874 128.525 78.5861 127.469 79.9728 126.723C81.3808 125.955 82.9488 125.571 84.6768 125.571C86.3621 125.571 87.8874 125.933 89.2528 126.659C90.6181 127.384 91.6848 128.429 92.4528 129.795C93.2421 131.139 93.6368 132.707 93.6368 134.499ZM84.7088 129.347C83.5781 129.347 82.6288 129.667 81.8608 130.307C81.0928 130.947 80.6234 131.821 80.4528 132.931H88.9328C88.7621 131.843 88.2928 130.979 87.5248 130.339C86.7568 129.677 85.8181 129.347 84.7088 129.347ZM96.9603 119.299H101.952V143.043H96.9603V119.299ZM114.905 143.299C113.071 143.299 111.417 142.925 109.945 142.179C108.495 141.411 107.353 140.355 106.521 139.011C105.711 137.667 105.305 136.141 105.305 134.435C105.305 132.728 105.711 131.203 106.521 129.859C107.353 128.515 108.495 127.469 109.945 126.723C111.417 125.955 113.071 125.571 114.905 125.571C116.719 125.571 118.297 125.955 119.641 126.723C121.007 127.469 121.999 128.547 122.617 129.955L118.745 132.035C117.849 130.456 116.559 129.667 114.873 129.667C113.572 129.667 112.495 130.093 111.641 130.947C110.788 131.8 110.361 132.963 110.361 134.435C110.361 135.907 110.788 137.069 111.641 137.923C112.495 138.776 113.572 139.203 114.873 139.203C116.58 139.203 117.871 138.413 118.745 136.835L122.617 138.947C121.999 140.312 121.007 141.379 119.641 142.147C118.297 142.915 116.719 143.299 114.905 143.299ZM133.465 143.299C131.651 143.299 130.019 142.925 128.569 142.179C127.139 141.411 126.019 140.355 125.209 139.011C124.398 137.667 123.993 136.141 123.993 134.435C123.993 132.728 124.398 131.203 125.209 129.859C126.019 128.515 127.139 127.469 128.569 126.723C130.019 125.955 131.651 125.571 133.465 125.571C135.278 125.571 136.899 125.955 138.329 126.723C139.758 127.469 140.878 128.515 141.689 129.859C142.499 131.203 142.905 132.728 142.905 134.435C142.905 136.141 142.499 137.667 141.689 139.011C140.878 140.355 139.758 141.411 138.329 142.179C136.899 142.925 135.278 143.299 133.465 143.299ZM133.465 139.203C134.745 139.203 135.79 138.776 136.601 137.923C137.433 137.048 137.849 135.885 137.849 134.435C137.849 132.984 137.433 131.832 136.601 130.979C135.79 130.104 134.745 129.667 133.465 129.667C132.185 129.667 131.129 130.104 130.297 130.979C129.465 131.832 129.049 132.984 129.049 134.435C129.049 135.885 129.465 137.048 130.297 137.923C131.129 138.776 132.185 139.203 133.465 139.203ZM168.29 125.571C170.444 125.571 172.151 126.211 173.41 127.491C174.69 128.749 175.33 130.648 175.33 133.187V143.043H170.338V133.955C170.338 132.589 170.05 131.576 169.474 130.915C168.919 130.232 168.119 129.891 167.074 129.891C165.9 129.891 164.972 130.275 164.29 131.043C163.607 131.789 163.266 132.909 163.266 134.403V143.043H158.274V133.955C158.274 131.245 157.186 129.891 155.01 129.891C153.858 129.891 152.94 130.275 152.258 131.043C151.575 131.789 151.234 132.909 151.234 134.403V143.043H146.242V125.827H151.01V127.811C151.65 127.085 152.428 126.531 153.345 126.147C154.284 125.763 155.308 125.571 156.418 125.571C157.634 125.571 158.732 125.816 159.714 126.307C160.695 126.776 161.484 127.469 162.082 128.387C162.786 127.491 163.671 126.797 164.738 126.307C165.826 125.816 167.01 125.571 168.29 125.571ZM196.856 134.499C196.856 134.563 196.824 135.011 196.76 135.843H183.736C183.97 136.909 184.525 137.752 185.4 138.371C186.274 138.989 187.362 139.299 188.664 139.299C189.56 139.299 190.349 139.171 191.032 138.915C191.736 138.637 192.386 138.211 192.984 137.635L195.64 140.515C194.018 142.371 191.65 143.299 188.536 143.299C186.594 143.299 184.877 142.925 183.384 142.179C181.89 141.411 180.738 140.355 179.928 139.011C179.117 137.667 178.712 136.141 178.712 134.435C178.712 132.749 179.106 131.235 179.896 129.891C180.706 128.525 181.805 127.469 183.192 126.723C184.6 125.955 186.168 125.571 187.896 125.571C189.581 125.571 191.106 125.933 192.472 126.659C193.837 127.384 194.904 128.429 195.672 129.795C196.461 131.139 196.856 132.707 196.856 134.499ZM187.928 129.347C186.797 129.347 185.848 129.667 185.08 130.307C184.312 130.947 183.842 131.821 183.672 132.931H192.152C191.981 131.843 191.512 130.979 190.744 130.339C189.976 129.677 189.037 129.347 187.928 129.347ZM214.234 124.867H207.066V120.643H226.586V124.867H219.418V143.043H214.234V124.867ZM235.465 143.299C233.651 143.299 232.019 142.925 230.569 142.179C229.139 141.411 228.019 140.355 227.209 139.011C226.398 137.667 225.993 136.141 225.993 134.435C225.993 132.728 226.398 131.203 227.209 129.859C228.019 128.515 229.139 127.469 230.569 126.723C232.019 125.955 233.651 125.571 235.465 125.571C237.278 125.571 238.899 125.955 240.329 126.723C241.758 127.469 242.878 128.515 243.689 129.859C244.499 131.203 244.905 132.728 244.905 134.435C244.905 136.141 244.499 137.667 243.689 139.011C242.878 140.355 241.758 141.411 240.329 142.179C238.899 142.925 237.278 143.299 235.465 143.299ZM235.465 139.203C236.745 139.203 237.79 138.776 238.601 137.923C239.433 137.048 239.849 135.885 239.849 134.435C239.849 132.984 239.433 131.832 238.601 130.979C237.79 130.104 236.745 129.667 235.465 129.667C234.185 129.667 233.129 130.104 232.297 130.979C231.465 131.832 231.049 132.984 231.049 134.435C231.049 135.885 231.465 137.048 232.297 137.923C233.129 138.776 234.185 139.203 235.465 139.203ZM58.104 173.395C59.384 173.8 60.3867 174.483 61.112 175.443C61.8373 176.381 62.2 177.544 62.2 178.931C62.2 180.893 61.432 182.408 59.896 183.475C58.3813 184.52 56.1627 185.043 53.24 185.043H41.656V162.643H52.6C55.3307 162.643 57.4213 163.165 58.872 164.211C60.344 165.256 61.08 166.675 61.08 168.467C61.08 169.555 60.8133 170.525 60.28 171.379C59.768 172.232 59.0427 172.904 58.104 173.395ZM46.808 166.547V171.827H51.96C53.24 171.827 54.2107 171.603 54.872 171.155C55.5333 170.707 55.864 170.045 55.864 169.171C55.864 168.296 55.5333 167.645 54.872 167.219C54.2107 166.771 53.24 166.547 51.96 166.547H46.808ZM52.856 181.139C54.2213 181.139 55.2453 180.915 55.928 180.467C56.632 180.019 56.984 179.325 56.984 178.387C56.984 176.531 55.608 175.603 52.856 175.603H46.808V181.139H52.856ZM72.7168 167.571C75.3834 167.571 77.4314 168.211 78.8608 169.491C80.2901 170.749 81.0048 172.659 81.0048 175.219V185.043H76.3328V182.899C75.3941 184.499 73.6448 185.299 71.0848 185.299C69.7621 185.299 68.6101 185.075 67.6288 184.627C66.6688 184.179 65.9328 183.56 65.4208 182.771C64.9088 181.981 64.6528 181.085 64.6528 180.083C64.6528 178.483 65.2501 177.224 66.4448 176.307C67.6608 175.389 69.5274 174.931 72.0448 174.931H76.0128C76.0128 173.843 75.6821 173.011 75.0208 172.435C74.3594 171.837 73.3674 171.539 72.0448 171.539C71.1274 171.539 70.2208 171.688 69.3248 171.987C68.4501 172.264 67.7034 172.648 67.0848 173.139L65.2928 169.651C66.2314 168.989 67.3514 168.477 68.6528 168.115C69.9754 167.752 71.3301 167.571 72.7168 167.571ZM72.3328 181.939C73.1861 181.939 73.9434 181.747 74.6048 181.363C75.2661 180.957 75.7354 180.371 76.0128 179.603V177.843H72.5888C70.5408 177.843 69.5168 178.515 69.5168 179.859C69.5168 180.499 69.7621 181.011 70.2528 181.395C70.7648 181.757 71.4581 181.939 72.3328 181.939ZM95.6988 167.571C97.2988 167.571 98.7494 167.944 100.051 168.691C101.373 169.416 102.408 170.451 103.155 171.795C103.901 173.117 104.275 174.664 104.275 176.435C104.275 178.205 103.901 179.763 103.155 181.107C102.408 182.429 101.373 183.464 100.051 184.211C98.7494 184.936 97.2988 185.299 95.6988 185.299C93.3308 185.299 91.5281 184.552 90.2908 183.059V185.043H85.5228V161.299H90.5148V169.651C91.7734 168.264 93.5014 167.571 95.6988 167.571ZM94.8348 181.203C96.1148 181.203 97.1601 180.776 97.9708 179.923C98.8028 179.048 99.2188 177.885 99.2188 176.435C99.2188 174.984 98.8028 173.832 97.9708 172.979C97.1601 172.104 96.1148 171.667 94.8348 171.667C93.5548 171.667 92.4988 172.104 91.6667 172.979C90.8561 173.832 90.4508 174.984 90.4508 176.435C90.4508 177.885 90.8561 179.048 91.6667 179.923C92.4988 180.776 93.5548 181.203 94.8348 181.203ZM124.236 167.827L116.46 186.099C115.67 188.083 114.689 189.48 113.516 190.291C112.364 191.101 110.966 191.507 109.324 191.507C108.428 191.507 107.542 191.368 106.668 191.091C105.793 190.813 105.078 190.429 104.524 189.939L106.348 186.387C106.732 186.728 107.169 186.995 107.66 187.187C108.172 187.379 108.673 187.475 109.164 187.475C109.846 187.475 110.401 187.304 110.828 186.963C111.254 186.643 111.638 186.099 111.98 185.331L112.044 185.171L104.588 167.827H109.74L114.572 179.507L119.436 167.827H124.236ZM137.22 185.427C134.937 185.427 132.868 184.936 131.012 183.955C129.177 182.952 127.726 181.576 126.66 179.827C125.614 178.056 125.092 176.061 125.092 173.843C125.092 171.624 125.614 169.64 126.66 167.891C127.726 166.12 129.177 164.744 131.012 163.763C132.868 162.76 134.948 162.259 137.252 162.259C139.193 162.259 140.942 162.6 142.5 163.283C144.078 163.965 145.401 164.947 146.468 166.227L143.14 169.299C141.625 167.549 139.748 166.675 137.508 166.675C136.121 166.675 134.884 166.984 133.796 167.603C132.708 168.2 131.854 169.043 131.236 170.131C130.638 171.219 130.34 172.456 130.34 173.843C130.34 175.229 130.638 176.467 131.236 177.555C131.854 178.643 132.708 179.496 133.796 180.115C134.884 180.712 136.121 181.011 137.508 181.011C139.748 181.011 141.625 180.125 143.14 178.355L146.468 181.427C145.401 182.728 144.078 183.72 142.5 184.403C140.921 185.085 139.161 185.427 137.22 185.427ZM156.436 167.571C159.102 167.571 161.15 168.211 162.58 169.491C164.009 170.749 164.724 172.659 164.724 175.219V185.043H160.052V182.899C159.113 184.499 157.364 185.299 154.804 185.299C153.481 185.299 152.329 185.075 151.348 184.627C150.388 184.179 149.652 183.56 149.14 182.771C148.628 181.981 148.372 181.085 148.372 180.083C148.372 178.483 148.969 177.224 150.164 176.307C151.38 175.389 153.246 174.931 155.764 174.931H159.732C159.732 173.843 159.401 173.011 158.74 172.435C158.078 171.837 157.086 171.539 155.764 171.539C154.846 171.539 153.94 171.688 153.044 171.987C152.169 172.264 151.422 172.648 150.804 173.139L149.012 169.651C149.95 168.989 151.07 168.477 152.372 168.115C153.694 167.752 155.049 167.571 156.436 167.571ZM156.052 181.939C156.905 181.939 157.662 181.747 158.324 181.363C158.985 180.957 159.454 180.371 159.732 179.603V177.843H156.308C154.26 177.843 153.236 178.515 153.236 179.859C153.236 180.499 153.481 181.011 153.972 181.395C154.484 181.757 155.177 181.939 156.052 181.939ZM174.01 170.099C174.607 169.267 175.407 168.637 176.41 168.211C177.434 167.784 178.607 167.571 179.93 167.571V172.179C179.375 172.136 179.002 172.115 178.81 172.115C177.38 172.115 176.26 172.52 175.45 173.331C174.639 174.12 174.234 175.315 174.234 176.915V185.043H169.242V167.827H174.01V170.099ZM199.606 176.499C199.606 176.563 199.574 177.011 199.51 177.843H186.486C186.72 178.909 187.275 179.752 188.15 180.371C189.024 180.989 190.112 181.299 191.414 181.299C192.31 181.299 193.099 181.171 193.782 180.915C194.486 180.637 195.136 180.211 195.734 179.635L198.39 182.515C196.768 184.371 194.4 185.299 191.286 185.299C189.344 185.299 187.627 184.925 186.134 184.179C184.64 183.411 183.488 182.355 182.678 181.011C181.867 179.667 181.462 178.141 181.462 176.435C181.462 174.749 181.856 173.235 182.646 171.891C183.456 170.525 184.555 169.469 185.942 168.723C187.35 167.955 188.918 167.571 190.646 167.571C192.331 167.571 193.856 167.933 195.222 168.659C196.587 169.384 197.654 170.429 198.422 171.795C199.211 173.139 199.606 174.707 199.606 176.499ZM190.678 171.347C189.547 171.347 188.598 171.667 187.83 172.307C187.062 172.947 186.592 173.821 186.422 174.931H194.902C194.731 173.843 194.262 172.979 193.494 172.339C192.726 171.677 191.787 171.347 190.678 171.347ZM202.289 162.643H208.241L207.249 177.267H203.281L202.289 162.643ZM205.265 185.299C204.39 185.299 203.654 185.021 203.057 184.467C202.481 183.891 202.193 183.197 202.193 182.387C202.193 181.576 202.481 180.904 203.057 180.371C203.633 179.816 204.369 179.539 205.265 179.539C206.161 179.539 206.897 179.816 207.473 180.371C208.049 180.904 208.337 181.576 208.337 182.387C208.337 183.197 208.038 183.891 207.441 184.467C206.865 185.021 206.14 185.299 205.265 185.299Z" fill="#6078E0"/>
<path d="M47.816 255.465H41.864L40.632 258.265H38.984L44.056 247.065H45.64L50.728 258.265H49.048L47.816 255.465ZM47.256 254.185L44.84 248.697L42.424 254.185H47.256ZM53.6468 251.209C53.9134 250.719 54.3081 250.345 54.8307 250.089C55.3534 249.833 55.9881 249.705 56.7348 249.705V251.193C56.6494 251.183 56.5321 251.177 56.3828 251.177C55.5508 251.177 54.8948 251.428 54.4148 251.929C53.9454 252.42 53.7108 253.124 53.7108 254.041V258.265H52.1748V249.785H53.6468V251.209ZM66.2138 254.073C66.2138 254.191 66.2031 254.345 66.1818 254.537H59.3018C59.3978 255.284 59.7231 255.887 60.2778 256.345C60.8431 256.793 61.5418 257.017 62.3738 257.017C63.3871 257.017 64.2031 256.676 64.8218 255.993L65.6698 256.985C65.2858 257.433 64.8058 257.775 64.2298 258.009C63.6644 258.244 63.0298 258.361 62.3258 258.361C61.4298 258.361 60.6351 258.18 59.9418 257.817C59.2484 257.444 58.7098 256.927 58.3258 256.265C57.9524 255.604 57.7658 254.857 57.7658 254.025C57.7658 253.204 57.9471 252.463 58.3098 251.801C58.6831 251.14 59.1898 250.628 59.8298 250.265C60.4804 249.892 61.2111 249.705 62.0218 249.705C62.8324 249.705 63.5524 249.892 64.1818 250.265C64.8218 250.628 65.3178 251.14 65.6698 251.801C66.0324 252.463 66.2138 253.22 66.2138 254.073ZM62.0218 251.001C61.2858 251.001 60.6671 251.225 60.1658 251.673C59.6751 252.121 59.3871 252.708 59.3018 253.433H64.7418C64.6564 252.719 64.3631 252.137 63.8618 251.689C63.3711 251.231 62.7578 251.001 62.0218 251.001ZM80.1475 249.785L76.0355 259.113C75.6728 259.977 75.2462 260.585 74.7555 260.937C74.2755 261.289 73.6942 261.465 73.0115 261.465C72.5955 261.465 72.1902 261.396 71.7955 261.257C71.4115 261.129 71.0915 260.937 70.8355 260.681L71.4915 259.529C71.9288 259.945 72.4355 260.153 73.0115 260.153C73.3848 260.153 73.6942 260.052 73.9395 259.849C74.1955 259.657 74.4248 259.321 74.6275 258.841L74.8995 258.249L71.1555 249.785H72.7555L75.7155 256.569L78.6435 249.785H80.1475ZM84.9786 258.361C84.136 258.361 83.3786 258.175 82.7066 257.801C82.0346 257.428 81.5066 256.916 81.1226 256.265C80.7493 255.604 80.5626 254.857 80.5626 254.025C80.5626 253.193 80.7493 252.452 81.1226 251.801C81.5066 251.14 82.0346 250.628 82.7066 250.265C83.3786 249.892 84.136 249.705 84.9786 249.705C85.8213 249.705 86.5733 249.892 87.2346 250.265C87.9066 250.628 88.4293 251.14 88.8026 251.801C89.1866 252.452 89.3786 253.193 89.3786 254.025C89.3786 254.857 89.1866 255.604 88.8026 256.265C88.4293 256.916 87.9066 257.428 87.2346 257.801C86.5733 258.175 85.8213 258.361 84.9786 258.361ZM84.9786 257.017C85.5226 257.017 86.008 256.895 86.4346 256.649C86.872 256.393 87.2133 256.041 87.4586 255.593C87.704 255.135 87.8266 254.612 87.8266 254.025C87.8266 253.439 87.704 252.921 87.4586 252.473C87.2133 252.015 86.872 251.663 86.4346 251.417C86.008 251.172 85.5226 251.049 84.9786 251.049C84.4346 251.049 83.944 251.172 83.5066 251.417C83.08 251.663 82.7386 252.015 82.4826 252.473C82.2373 252.921 82.1146 253.439 82.1146 254.025C82.1146 254.612 82.2373 255.135 82.4826 255.593C82.7386 256.041 83.08 256.393 83.5066 256.649C83.944 256.895 84.4346 257.017 84.9786 257.017ZM99.4069 249.785V258.265H97.9509V256.985C97.6415 257.423 97.2309 257.764 96.7189 258.009C96.2175 258.244 95.6682 258.361 95.0709 258.361C93.9402 258.361 93.0495 258.052 92.3989 257.433C91.7482 256.804 91.4229 255.881 91.4229 254.665V249.785H92.9589V254.489C92.9589 255.311 93.1562 255.935 93.5509 256.361C93.9455 256.777 94.5109 256.985 95.2469 256.985C96.0575 256.985 96.6975 256.74 97.1669 256.249C97.6362 255.759 97.8709 255.065 97.8709 254.169V249.785H99.4069ZM108.1 251.209C108.367 250.719 108.761 250.345 109.284 250.089C109.807 249.833 110.441 249.705 111.188 249.705V251.193C111.103 251.183 110.985 251.177 110.836 251.177C110.004 251.177 109.348 251.428 108.868 251.929C108.399 252.42 108.164 253.124 108.164 254.041V258.265H106.628V249.785H108.1V251.209ZM120.667 254.073C120.667 254.191 120.656 254.345 120.635 254.537H113.755C113.851 255.284 114.176 255.887 114.731 256.345C115.296 256.793 115.995 257.017 116.827 257.017C117.84 257.017 118.656 256.676 119.275 255.993L120.123 256.985C119.739 257.433 119.259 257.775 118.683 258.009C118.118 258.244 117.483 258.361 116.779 258.361C115.883 258.361 115.088 258.18 114.395 257.817C113.702 257.444 113.163 256.927 112.779 256.265C112.406 255.604 112.219 254.857 112.219 254.025C112.219 253.204 112.4 252.463 112.763 251.801C113.136 251.14 113.643 250.628 114.283 250.265C114.934 249.892 115.664 249.705 116.475 249.705C117.286 249.705 118.006 249.892 118.635 250.265C119.275 250.628 119.771 251.14 120.123 251.801C120.486 252.463 120.667 253.22 120.667 254.073ZM116.475 251.001C115.739 251.001 115.12 251.225 114.619 251.673C114.128 252.121 113.84 252.708 113.755 253.433H119.195C119.11 252.719 118.816 252.137 118.315 251.689C117.824 251.231 117.211 251.001 116.475 251.001ZM130.912 249.785V257.113C130.912 258.596 130.544 259.689 129.808 260.393C129.072 261.108 127.973 261.465 126.512 261.465C125.712 261.465 124.949 261.353 124.224 261.129C123.498 260.916 122.912 260.607 122.464 260.201L123.2 259.017C123.594 259.359 124.08 259.625 124.656 259.817C125.242 260.02 125.845 260.121 126.464 260.121C127.456 260.121 128.186 259.887 128.656 259.417C129.136 258.948 129.376 258.233 129.376 257.273V256.601C129.013 257.039 128.565 257.369 128.032 257.593C127.509 257.807 126.938 257.913 126.32 257.913C125.509 257.913 124.773 257.743 124.112 257.401C123.461 257.049 122.949 256.564 122.576 255.945C122.202 255.316 122.016 254.601 122.016 253.801C122.016 253.001 122.202 252.292 122.576 251.673C122.949 251.044 123.461 250.559 124.112 250.217C124.773 249.876 125.509 249.705 126.32 249.705C126.96 249.705 127.552 249.823 128.096 250.057C128.65 250.292 129.104 250.639 129.456 251.097V249.785H130.912ZM126.496 256.569C127.05 256.569 127.546 256.452 127.984 256.217C128.432 255.983 128.778 255.657 129.024 255.241C129.28 254.815 129.408 254.335 129.408 253.801C129.408 252.98 129.136 252.319 128.592 251.817C128.048 251.305 127.349 251.049 126.496 251.049C125.632 251.049 124.928 251.305 124.384 251.817C123.84 252.319 123.568 252.98 123.568 253.801C123.568 254.335 123.69 254.815 123.936 255.241C124.192 255.657 124.538 255.983 124.976 256.217C125.424 256.452 125.93 256.569 126.496 256.569ZM133.847 249.785H135.383V258.265H133.847V249.785ZM134.615 248.153C134.316 248.153 134.065 248.057 133.863 247.865C133.671 247.673 133.575 247.439 133.575 247.161C133.575 246.884 133.671 246.649 133.863 246.457C134.065 246.255 134.316 246.153 134.615 246.153C134.913 246.153 135.159 246.249 135.351 246.441C135.553 246.623 135.655 246.852 135.655 247.129C135.655 247.417 135.553 247.663 135.351 247.865C135.159 248.057 134.913 248.153 134.615 248.153ZM140.747 258.361C140.054 258.361 139.387 258.271 138.747 258.089C138.107 257.897 137.606 257.657 137.243 257.369L137.883 256.153C138.257 256.42 138.71 256.633 139.243 256.793C139.777 256.953 140.315 257.033 140.859 257.033C142.203 257.033 142.875 256.649 142.875 255.881C142.875 255.625 142.785 255.423 142.603 255.273C142.422 255.124 142.193 255.017 141.915 254.953C141.649 254.879 141.265 254.799 140.763 254.713C140.081 254.607 139.521 254.484 139.083 254.345C138.657 254.207 138.289 253.972 137.979 253.641C137.67 253.311 137.515 252.847 137.515 252.249C137.515 251.481 137.835 250.868 138.475 250.409C139.115 249.94 139.974 249.705 141.051 249.705C141.617 249.705 142.182 249.775 142.747 249.913C143.313 250.052 143.777 250.239 144.139 250.473L143.483 251.689C142.79 251.241 141.974 251.017 141.035 251.017C140.385 251.017 139.889 251.124 139.547 251.337C139.206 251.551 139.035 251.833 139.035 252.185C139.035 252.463 139.131 252.681 139.323 252.841C139.515 253.001 139.75 253.119 140.027 253.193C140.315 253.268 140.715 253.353 141.227 253.449C141.91 253.567 142.459 253.695 142.875 253.833C143.302 253.961 143.665 254.185 143.963 254.505C144.262 254.825 144.411 255.273 144.411 255.849C144.411 256.617 144.081 257.231 143.419 257.689C142.769 258.137 141.878 258.361 140.747 258.361ZM151.099 257.769C150.875 257.961 150.598 258.111 150.267 258.217C149.936 258.313 149.595 258.361 149.243 258.361C148.39 258.361 147.728 258.132 147.259 257.673C146.79 257.215 146.555 256.559 146.555 255.705V251.049H145.115V249.785H146.555V247.929H148.091V249.785H150.523V251.049H148.091V255.641C148.091 256.1 148.203 256.452 148.427 256.697C148.662 256.943 148.992 257.065 149.419 257.065C149.888 257.065 150.288 256.932 150.619 256.665L151.099 257.769ZM160.339 254.073C160.339 254.191 160.328 254.345 160.307 254.537H153.427C153.523 255.284 153.848 255.887 154.403 256.345C154.968 256.793 155.667 257.017 156.499 257.017C157.512 257.017 158.328 256.676 158.947 255.993L159.795 256.985C159.411 257.433 158.931 257.775 158.355 258.009C157.789 258.244 157.155 258.361 156.451 258.361C155.555 258.361 154.76 258.18 154.067 257.817C153.373 257.444 152.835 256.927 152.451 256.265C152.077 255.604 151.891 254.857 151.891 254.025C151.891 253.204 152.072 252.463 152.435 251.801C152.808 251.14 153.315 250.628 153.955 250.265C154.605 249.892 155.336 249.705 156.147 249.705C156.957 249.705 157.677 249.892 158.307 250.265C158.947 250.628 159.443 251.14 159.795 251.801C160.157 252.463 160.339 253.22 160.339 254.073ZM156.147 251.001C155.411 251.001 154.792 251.225 154.291 251.673C153.8 252.121 153.512 252.708 153.427 253.433H158.867C158.781 252.719 158.488 252.137 157.987 251.689C157.496 251.231 156.883 251.001 156.147 251.001ZM163.944 251.209C164.21 250.719 164.605 250.345 165.128 250.089C165.65 249.833 166.285 249.705 167.032 249.705V251.193C166.946 251.183 166.829 251.177 166.68 251.177C165.848 251.177 165.192 251.428 164.712 251.929C164.242 252.42 164.008 253.124 164.008 254.041V258.265H162.472V249.785H163.944V251.209ZM168.925 249.785H170.461V258.265H168.925V249.785ZM169.693 248.153C169.394 248.153 169.143 248.057 168.941 247.865C168.749 247.673 168.653 247.439 168.653 247.161C168.653 246.884 168.749 246.649 168.941 246.457C169.143 246.255 169.394 246.153 169.693 246.153C169.991 246.153 170.237 246.249 170.429 246.441C170.631 246.623 170.733 246.852 170.733 247.129C170.733 247.417 170.631 247.663 170.429 247.865C170.237 248.057 169.991 248.153 169.693 248.153ZM177.922 249.705C178.999 249.705 179.852 250.02 180.482 250.649C181.122 251.268 181.442 252.18 181.442 253.385V258.265H179.906V253.561C179.906 252.74 179.708 252.121 179.314 251.705C178.919 251.289 178.354 251.081 177.618 251.081C176.786 251.081 176.13 251.327 175.65 251.817C175.17 252.297 174.93 252.991 174.93 253.897V258.265H173.394V249.785H174.866V251.065C175.175 250.628 175.591 250.292 176.114 250.057C176.647 249.823 177.25 249.705 177.922 249.705ZM192.443 249.785V257.113C192.443 258.596 192.075 259.689 191.339 260.393C190.603 261.108 189.504 261.465 188.043 261.465C187.243 261.465 186.48 261.353 185.755 261.129C185.03 260.916 184.443 260.607 183.995 260.201L184.731 259.017C185.126 259.359 185.611 259.625 186.187 259.817C186.774 260.02 187.376 260.121 187.995 260.121C188.987 260.121 189.718 259.887 190.187 259.417C190.667 258.948 190.907 258.233 190.907 257.273V256.601C190.544 257.039 190.096 257.369 189.563 257.593C189.04 257.807 188.47 257.913 187.851 257.913C187.04 257.913 186.304 257.743 185.643 257.401C184.992 257.049 184.48 256.564 184.107 255.945C183.734 255.316 183.547 254.601 183.547 253.801C183.547 253.001 183.734 252.292 184.107 251.673C184.48 251.044 184.992 250.559 185.643 250.217C186.304 249.876 187.04 249.705 187.851 249.705C188.491 249.705 189.083 249.823 189.627 250.057C190.182 250.292 190.635 250.639 190.987 251.097V249.785H192.443ZM188.027 256.569C188.582 256.569 189.078 256.452 189.515 256.217C189.963 255.983 190.31 255.657 190.555 255.241C190.811 254.815 190.939 254.335 190.939 253.801C190.939 252.98 190.667 252.319 190.123 251.817C189.579 251.305 188.88 251.049 188.027 251.049C187.163 251.049 186.459 251.305 185.915 251.817C185.371 252.319 185.099 252.98 185.099 253.801C185.099 254.335 185.222 254.815 185.467 255.241C185.723 255.657 186.07 255.983 186.507 256.217C186.955 256.452 187.462 256.569 188.027 256.569ZM202.763 249.705C203.936 249.705 204.832 249.993 205.451 250.569C206.08 251.145 206.395 252.004 206.395 253.145V258.265H204.939V257.145C204.683 257.54 204.315 257.844 203.835 258.057C203.365 258.26 202.805 258.361 202.155 258.361C201.205 258.361 200.443 258.132 199.867 257.673C199.301 257.215 199.019 256.612 199.019 255.865C199.019 255.119 199.291 254.521 199.835 254.073C200.379 253.615 201.243 253.385 202.427 253.385H204.859V253.081C204.859 252.42 204.667 251.913 204.283 251.561C203.899 251.209 203.333 251.033 202.587 251.033C202.085 251.033 201.595 251.119 201.115 251.289C200.635 251.449 200.229 251.668 199.899 251.945L199.259 250.793C199.696 250.441 200.219 250.175 200.827 249.993C201.435 249.801 202.08 249.705 202.763 249.705ZM202.411 257.177C202.997 257.177 203.504 257.049 203.931 256.793C204.357 256.527 204.667 256.153 204.859 255.673V254.489H202.491C201.189 254.489 200.539 254.927 200.539 255.801C200.539 256.228 200.704 256.564 201.035 256.809C201.365 257.055 201.824 257.177 202.411 257.177ZM211.669 258.361C210.976 258.361 210.309 258.271 209.669 258.089C209.029 257.897 208.528 257.657 208.165 257.369L208.805 256.153C209.179 256.42 209.632 256.633 210.165 256.793C210.699 256.953 211.237 257.033 211.781 257.033C213.125 257.033 213.797 256.649 213.797 255.881C213.797 255.625 213.707 255.423 213.525 255.273C213.344 255.124 213.115 255.017 212.837 254.953C212.571 254.879 212.187 254.799 211.685 254.713C211.003 254.607 210.443 254.484 210.005 254.345C209.579 254.207 209.211 253.972 208.901 253.641C208.592 253.311 208.437 252.847 208.437 252.249C208.437 251.481 208.757 250.868 209.397 250.409C210.037 249.94 210.896 249.705 211.973 249.705C212.539 249.705 213.104 249.775 213.669 249.913C214.235 250.052 214.699 250.239 215.061 250.473L214.405 251.689C213.712 251.241 212.896 251.017 211.957 251.017C211.307 251.017 210.811 251.124 210.469 251.337C210.128 251.551 209.957 251.833 209.957 252.185C209.957 252.463 210.053 252.681 210.245 252.841C210.437 253.001 210.672 253.119 210.949 253.193C211.237 253.268 211.637 253.353 212.149 253.449C212.832 253.567 213.381 253.695 213.797 253.833C214.224 253.961 214.587 254.185 214.885 254.505C215.184 254.825 215.333 255.273 215.333 255.849C215.333 256.617 215.003 257.231 214.341 257.689C213.691 258.137 212.8 258.361 211.669 258.361ZM224.638 249.705C225.811 249.705 226.707 249.993 227.326 250.569C227.955 251.145 228.27 252.004 228.27 253.145V258.265H226.814V257.145C226.558 257.54 226.19 257.844 225.71 258.057C225.24 258.26 224.68 258.361 224.03 258.361C223.08 258.361 222.318 258.132 221.742 257.673C221.176 257.215 220.894 256.612 220.894 255.865C220.894 255.119 221.166 254.521 221.71 254.073C222.254 253.615 223.118 253.385 224.302 253.385H226.734V253.081C226.734 252.42 226.542 251.913 226.158 251.561C225.774 251.209 225.208 251.033 224.462 251.033C223.96 251.033 223.47 251.119 222.99 251.289C222.51 251.449 222.104 251.668 221.774 251.945L221.134 250.793C221.571 250.441 222.094 250.175 222.702 249.993C223.31 249.801 223.955 249.705 224.638 249.705ZM224.286 257.177C224.872 257.177 225.379 257.049 225.806 256.793C226.232 256.527 226.542 256.153 226.734 255.673V254.489H224.366C223.064 254.489 222.414 254.927 222.414 255.801C222.414 256.228 222.579 256.564 222.91 256.809C223.24 257.055 223.699 257.177 224.286 257.177ZM231.48 251.897C231.182 251.897 230.926 251.796 230.712 251.593C230.499 251.38 230.392 251.113 230.392 250.793C230.392 250.484 230.499 250.228 230.712 250.025C230.926 249.812 231.182 249.705 231.48 249.705C231.779 249.705 232.03 249.807 232.232 250.009C232.435 250.212 232.536 250.473 232.536 250.793C232.536 251.113 232.43 251.38 232.216 251.593C232.014 251.796 231.768 251.897 231.48 251.897ZM231.48 258.361C231.182 258.361 230.926 258.26 230.712 258.057C230.499 257.844 230.392 257.577 230.392 257.257C230.392 256.948 230.499 256.692 230.712 256.489C230.926 256.276 231.182 256.169 231.48 256.169C231.779 256.169 232.03 256.271 232.232 256.473C232.435 256.676 232.536 256.937 232.536 257.257C232.536 257.577 232.43 257.844 232.216 258.057C232.014 258.26 231.768 258.361 231.48 258.361Z" fill="#6078E0"/>
<path d="M32.395 26.408V24.92L36.891 17.672H38.539V25.16H40.171V26.408H38.539V29H37.195V26.408H32.395ZM37.163 19.24L33.547 25.16H37.195V19.24H37.163ZM43.5896 22.28C43.5896 22.792 43.1256 23.24 42.6296 23.24C42.1656 23.24 41.6696 22.808 41.6696 22.28C41.6696 21.752 42.1176 21.32 42.6296 21.32C43.1896 21.32 43.5896 21.784 43.5896 22.28ZM43.5896 28.136C43.5896 28.648 43.1416 29.096 42.6296 29.096C42.1336 29.096 41.6696 28.648 41.6696 28.136C41.6696 27.608 42.1016 27.176 42.6296 27.176C43.1576 27.176 43.5896 27.624 43.5896 28.136ZM49.0987 17.48C51.1147 17.48 52.5547 18.664 52.5547 20.552C52.5547 22.28 51.6907 23.16 50.3467 24.44L46.8587 27.72V27.752H52.6347V29H45.3387V27.464L49.6907 23.224C51.1627 21.8 51.2107 21.176 51.2107 20.552C51.2107 19.416 50.3147 18.632 49.1467 18.632C48.0107 18.632 47.2107 19.336 47.0027 20.44L45.5467 20.312C45.8507 18.504 47.2267 17.48 49.0987 17.48ZM57.5574 17.48C60.0694 17.48 61.3974 19.688 61.3974 23.336C61.3974 27 60.0694 29.192 57.5574 29.192C55.0454 29.192 53.7174 26.984 53.7174 23.336C53.7174 19.688 55.0454 17.48 57.5574 17.48ZM55.0614 23.336C55.0614 26.392 55.9414 28.04 57.5574 28.04C59.1734 28.04 60.0534 26.408 60.0534 23.336C60.0534 20.28 59.1894 18.632 57.5414 18.632C55.9734 18.632 55.0614 20.216 55.0614 23.336Z" fill="#3C3C43"/>
<g filter="url(#filter1_b_328_18)">
<g clip-path="url(#clip3_328_18)">
<rect opacity="0.2" x="317.5" y="19" width="3.5" height="11.5" rx="1" fill="#3C3C43"/>
<path d="M312.5 22.5C312.5 21.9477 312.948 21.5 313.5 21.5H315C315.552 21.5 316 21.9477 316 22.5V29.5C316 30.0523 315.552 30.5 315 30.5H313.5C312.948 30.5 312.5 30.0523 312.5 29.5V22.5Z" fill="#3C3C43"/>
<path d="M307.5 25C307.5 24.4477 307.948 24 308.5 24H310C310.552 24 311 24.4477 311 25V29.5C311 30.0523 310.552 30.5 310 30.5H308.5C307.948 30.5 307.5 30.0523 307.5 29.5V25Z" fill="#3C3C43"/>
<path d="M302.5 27C302.5 26.4477 302.948 26 303.5 26H305C305.552 26 306 26.4477 306 27V29.5C306 30.0523 305.552 30.5 305 30.5H303.5C302.948 30.5 302.5 30.0523 302.5 29.5V27Z" fill="#3C3C43"/>
<path d="M336.325 28.289C336.39 28.2255 336.426 28.138 336.424 28.0473C336.422 27.9566 336.383 27.8706 336.316 27.8098C334.979 26.6783 333.022 26.6783 331.686 27.8098C331.618 27.8706 331.579 27.9565 331.577 28.0472C331.575 28.1379 331.611 28.2254 331.676 28.289L333.768 30.4029C333.83 30.465 333.913 30.5 334.001 30.5C334.088 30.5 334.171 30.465 334.233 30.4029L336.325 28.289Z" fill="#3C3C43"/>
<path d="M334 25.369C335.276 25.369 336.506 25.8435 337.451 26.7006C337.579 26.8222 337.781 26.8195 337.905 26.6946L339.115 25.4711C339.179 25.4069 339.214 25.3199 339.213 25.2294C339.212 25.1389 339.175 25.0526 339.11 24.9898C336.231 22.3088 331.772 22.3088 328.893 24.9898C328.828 25.0526 328.791 25.139 328.79 25.2295C328.789 25.32 328.825 25.407 328.889 25.4711L330.098 26.6946C330.222 26.8195 330.424 26.8222 330.552 26.7006C331.497 25.8441 332.726 25.3696 334 25.369Z" fill="#3C3C43"/>
<path opacity="0.2" d="M334 21.3883C336.322 21.3884 338.555 22.2813 340.237 23.8825C340.364 24.0061 340.566 24.0045 340.691 23.879L341.902 22.6555C341.965 22.5918 342.001 22.5055 342 22.4158C341.999 22.326 341.963 22.2402 341.899 22.1772C337.483 17.9409 330.517 17.9409 326.101 22.1772C326.037 22.2401 326.001 22.326 326 22.4157C325.999 22.5055 326.035 22.5917 326.098 22.6555L327.309 23.879C327.434 24.0047 327.637 24.0063 327.763 23.8825C329.446 22.2812 331.679 21.3883 334 21.3883Z" fill="#3C3C43"/>
<g clip-path="url(#clip4_328_18)">
<path d="M348 21.75C348 21.0596 348.56 20.5 349.25 20.5H350V29H349.25C348.56 29 348 28.4404 348 27.75V21.75Z" fill="#3C3C43"/>
<path d="M350 20.5H352V29H350V20.5Z" fill="#3C3C43"/>
<path d="M352 20.5H354V29H352V20.5Z" fill="#3C3C43"/>
<path d="M354 20.5H356V29H354V20.5Z" fill="#3C3C43"/>
<path d="M356 20.5H358V29H356V20.5Z" fill="#3C3C43"/>
<path d="M358 20.5H360V29H358V20.5Z" fill="#3C3C43"/>
<path d="M360 20.5H362V29H360V20.5Z" fill="#3C3C43"/>
<path d="M364 21.75C364 21.0596 363.44 20.5 362.75 20.5H362V29H362.75C363.44 29 364 28.4404 364 27.75V21.75Z" fill="#3C3C43"/>
</g>
<g opacity="0.5">
<path fill-rule="evenodd" clip-rule="evenodd" d="M346 21.5C346 19.8431 347.343 18.5 349 18.5H367C368.657 18.5 370 19.8431 370 21.5V28C370 29.6569 368.657 31 367 31H349C347.343 31 346 29.6569 346 28V21.5ZM349 19.5C347.895 19.5 347 20.3954 347 21.5V28C347 29.1046 347.895 30 349 30H367C368.105 30 369 29.1046 369 28V21.5C369 20.3954 368.105 19.5 367 19.5H349Z" fill="#3C3C43"/>
<path d="M371 27.042C371.883 26.6562 372.5 25.7751 372.5 24.75C372.5 23.7248 371.883 22.8438 371 22.458V27.042Z" fill="#3C3C43"/>
</g>
</g>
</g>
<path d="M136.5 843L252.5 843" stroke="black" stroke-width="4" stroke-linecap="round"/>
</g>
<defs>
<filter id="filter0_b_328_18" x="238" y="-56" width="208" height="156" filterUnits="userSpaceOnUse" color-interpolation-filters="sRGB">
<feFlood flood-opacity="0" result="BackgroundImageFix"/>
<feGaussianBlur in="BackgroundImageFix" stdDeviation="28"/>
<feComposite in2="SourceAlpha" operator="in" result="effect1_backgroundBlur_328_18"/>
<feBlend mode="normal" in="SourceGraphic" in2="effect1_backgroundBlur_328_18" result="shape"/>
</filter>
<filter id="filter1_b_328_18" x="238" y="-56" width="208" height="156" filterUnits="userSpaceOnUse" color-interpolation-filters="sRGB">
<feFlood flood-opacity="0" result="BackgroundImageFix"/>
<feGaussianBlur in="BackgroundImageFix" stdDeviation="28"/>
<feComposite in2="SourceAlpha" operator="in" result="effect1_backgroundBlur_328_18"/>
<feBlend mode="normal" in="SourceGraphic" in2="effect1_backgroundBlur_328_18" result="shape"/>
</filter>
<clipPath id="clip0_328_18">
<rect width="390" height="852" fill="white"/>
</clipPath>
<clipPath id="clip1_328_18">
<rect width="72" height="16" fill="white" transform="translate(302 16)"/>
</clipPath>
<clipPath id="clip2_328_18">
<rect width="16" height="8.5" fill="white" transform="translate(348 20.5)"/>
</clipPath>
<clipPath id="clip3_328_18">
<rect width="72" height="16" fill="white" transform="translate(302 16)"/>
</clipPath>
<clipPath id="clip4_328_18">
<rect width="16" height="8.5" fill="white" transform="translate(348 20.5)"/>
</clipPath>
</defs>
</svg>
