<svg width="331" height="95" viewBox="0 0 331 95" fill="none" xmlns="http://www.w3.org/2000/svg">
<g filter="url(#filter0_d_443_990)">
<path d="M43 18C43 13.5817 46.5817 10 51 10H313C317.418 10 321 13.5817 321 18V77C321 81.4183 317.418 85 313 85H51C46.5817 85 43 81.4183 43 77V18Z" fill="white"/>
</g>
<g filter="url(#filter1_d_443_990)">
<circle cx="19.5" cy="20.5" r="10.5" fill="url(#paint0_radial_443_990)"/>
</g>
<g filter="url(#filter2_d_443_990)">
<line x1="30" y1="20.25" x2="321" y2="20.25" stroke="#6078E0" stroke-width="1.5"/>
</g>
<circle cx="19.5" cy="20.5" r="7.5" fill="#6078E0"/>
<path d="M128.112 55.8C129.083 55.8 129.925 55.96 130.64 56.28C131.365 56.6 131.92 57.0587 132.304 57.656C132.688 58.2533 132.88 58.9627 132.88 59.784C132.88 60.5947 132.688 61.304 132.304 61.912C131.92 62.5093 131.365 62.968 130.64 63.288C129.925 63.608 129.083 63.768 128.112 63.768H125.584V67H123.504V55.8H128.112ZM128.016 62.008C128.923 62.008 129.611 61.816 130.08 61.432C130.549 61.048 130.784 60.4987 130.784 59.784C130.784 59.0693 130.549 58.52 130.08 58.136C129.611 57.752 128.923 57.56 128.016 57.56H125.584V62.008H128.016ZM138.574 67.112C137.71 67.112 136.931 66.9253 136.238 66.552C135.545 66.1787 135.001 65.6613 134.606 65C134.222 64.328 134.03 63.5707 134.03 62.728C134.03 61.8853 134.222 61.1333 134.606 60.472C135.001 59.8107 135.545 59.2933 136.238 58.92C136.931 58.5467 137.71 58.36 138.574 58.36C139.449 58.36 140.233 58.5467 140.926 58.92C141.619 59.2933 142.158 59.8107 142.542 60.472C142.937 61.1333 143.134 61.8853 143.134 62.728C143.134 63.5707 142.937 64.328 142.542 65C142.158 65.6613 141.619 66.1787 140.926 66.552C140.233 66.9253 139.449 67.112 138.574 67.112ZM138.574 65.4C139.31 65.4 139.918 65.1547 140.398 64.664C140.878 64.1733 141.118 63.528 141.118 62.728C141.118 61.928 140.878 61.2827 140.398 60.792C139.918 60.3013 139.31 60.056 138.574 60.056C137.838 60.056 137.23 60.3013 136.75 60.792C136.281 61.2827 136.046 61.928 136.046 62.728C136.046 63.528 136.281 64.1733 136.75 64.664C137.23 65.1547 137.838 65.4 138.574 65.4ZM148.886 67.112C148.022 67.112 147.244 66.9253 146.55 66.552C145.857 66.1787 145.313 65.6613 144.918 65C144.534 64.328 144.342 63.5707 144.342 62.728C144.342 61.8853 144.534 61.1333 144.918 60.472C145.313 59.8107 145.857 59.2933 146.55 58.92C147.244 58.5467 148.022 58.36 148.886 58.36C149.761 58.36 150.545 58.5467 151.238 58.92C151.932 59.2933 152.47 59.8107 152.854 60.472C153.249 61.1333 153.446 61.8853 153.446 62.728C153.446 63.5707 153.249 64.328 152.854 65C152.47 65.6613 151.932 66.1787 151.238 66.552C150.545 66.9253 149.761 67.112 148.886 67.112ZM148.886 65.4C149.622 65.4 150.23 65.1547 150.71 64.664C151.19 64.1733 151.43 63.528 151.43 62.728C151.43 61.928 151.19 61.2827 150.71 60.792C150.23 60.3013 149.622 60.056 148.886 60.056C148.15 60.056 147.542 60.3013 147.062 60.792C146.593 61.2827 146.358 61.928 146.358 62.728C146.358 63.528 146.593 64.1733 147.062 64.664C147.542 65.1547 148.15 65.4 148.886 65.4Z" fill="#3C3C43"/>
<rect x="122" y="30" width="41" height="15" rx="2" fill="#EBAC45"/>
<path d="M127.205 34.4H129.653C130.25 34.4 130.781 34.5173 131.245 34.752C131.709 34.9813 132.069 35.3093 132.325 35.736C132.581 36.1573 132.709 36.6453 132.709 37.2C132.709 37.7547 132.581 38.2453 132.325 38.672C132.069 39.0933 131.709 39.4213 131.245 39.656C130.781 39.8853 130.25 40 129.653 40H127.205V34.4ZM129.605 39.12C130.016 39.12 130.376 39.0427 130.685 38.888C131 38.728 131.24 38.504 131.405 38.216C131.576 37.9227 131.661 37.584 131.661 37.2C131.661 36.816 131.576 36.48 131.405 36.192C131.24 35.8987 131 35.6747 130.685 35.52C130.376 35.36 130.016 35.28 129.605 35.28H128.245V39.12H129.605ZM133.815 34.4H134.855V40H133.815V34.4ZM140.001 38.704H137.201L136.649 40H135.577L138.097 34.4H139.121L141.649 40H140.561L140.001 38.704ZM139.657 37.888L138.601 35.44L137.553 37.888H139.657ZM144.665 34.4C145.151 34.4 145.572 34.48 145.929 34.64C146.292 34.8 146.569 35.0293 146.761 35.328C146.953 35.6267 147.049 35.9813 147.049 36.392C147.049 36.7973 146.953 37.152 146.761 37.456C146.569 37.7547 146.292 37.984 145.929 38.144C145.572 38.304 145.151 38.384 144.665 38.384H143.401V40H142.361V34.4H144.665ZM144.617 37.504C145.071 37.504 145.415 37.408 145.649 37.216C145.884 37.024 146.001 36.7493 146.001 36.392C146.001 36.0347 145.884 35.76 145.649 35.568C145.415 35.376 145.071 35.28 144.617 35.28H143.401V37.504H144.617ZM152.288 39.128V40H148.088V34.4H152.176V35.272H149.128V36.728H151.832V37.584H149.128V39.128H152.288ZM157.111 40L155.967 38.36C155.919 38.3653 155.847 38.368 155.751 38.368H154.487V40H153.447V34.4H155.751C156.237 34.4 156.658 34.48 157.015 34.64C157.378 34.8 157.655 35.0293 157.847 35.328C158.039 35.6267 158.135 35.9813 158.135 36.392C158.135 36.8133 158.031 37.176 157.823 37.48C157.621 37.784 157.327 38.0107 156.943 38.16L158.231 40H157.111ZM157.087 36.392C157.087 36.0347 156.97 35.76 156.735 35.568C156.501 35.376 156.157 35.28 155.703 35.28H154.487V37.512H155.703C156.157 37.512 156.501 37.416 156.735 37.224C156.97 37.0267 157.087 36.7493 157.087 36.392Z" fill="white"/>
<path d="M172.972 42.072C172.324 42.072 171.748 41.904 171.244 41.568C170.74 41.224 170.344 40.736 170.056 40.104C169.768 39.464 169.624 38.696 169.624 37.8C169.624 36.904 169.768 36.14 170.056 35.508C170.344 34.868 170.74 34.38 171.244 34.044C171.748 33.7 172.324 33.528 172.972 33.528C173.62 33.528 174.196 33.7 174.7 34.044C175.204 34.38 175.6 34.868 175.888 35.508C176.184 36.14 176.332 36.904 176.332 37.8C176.332 38.696 176.184 39.464 175.888 40.104C175.6 40.736 175.204 41.224 174.7 41.568C174.196 41.904 173.62 42.072 172.972 42.072ZM172.972 41.28C173.468 41.28 173.9 41.148 174.268 40.884C174.636 40.612 174.924 40.22 175.132 39.708C175.34 39.188 175.444 38.552 175.444 37.8C175.444 37.048 175.34 36.416 175.132 35.904C174.924 35.384 174.636 34.992 174.268 34.728C173.9 34.456 173.468 34.32 172.972 34.32C172.492 34.32 172.064 34.456 171.688 34.728C171.312 34.992 171.02 35.384 170.812 35.904C170.604 36.416 170.5 37.048 170.5 37.8C170.5 38.552 170.604 39.188 170.812 39.708C171.02 40.22 171.312 40.612 171.688 40.884C172.064 41.148 172.492 41.28 172.972 41.28ZM178.952 42L182.576 33.984L182.84 34.368H177.644L178.088 33.948V35.94H177.236V33.6H183.404V34.212L179.888 42H178.952ZM184.956 36.948C184.78 36.948 184.628 36.884 184.5 36.756C184.38 36.628 184.32 36.472 184.32 36.288C184.32 36.096 184.38 35.94 184.5 35.82C184.628 35.7 184.78 35.64 184.956 35.64C185.132 35.64 185.28 35.7 185.4 35.82C185.528 35.94 185.592 36.096 185.592 36.288C185.592 36.472 185.528 36.628 185.4 36.756C185.28 36.884 185.132 36.948 184.956 36.948ZM184.956 42.06C184.78 42.06 184.628 41.996 184.5 41.868C184.38 41.74 184.32 41.584 184.32 41.4C184.32 41.208 184.38 41.052 184.5 40.932C184.628 40.812 184.78 40.752 184.956 40.752C185.132 40.752 185.28 40.812 185.4 40.932C185.528 41.052 185.592 41.208 185.592 41.4C185.592 41.584 185.528 41.74 185.4 41.868C185.28 41.996 185.132 42.06 184.956 42.06ZM186.695 42V41.388L190.187 37.968C190.507 37.656 190.747 37.384 190.907 37.152C191.067 36.912 191.175 36.688 191.231 36.48C191.287 36.272 191.315 36.076 191.315 35.892C191.315 35.404 191.147 35.02 190.811 34.74C190.483 34.46 189.995 34.32 189.347 34.32C188.851 34.32 188.411 34.396 188.027 34.548C187.651 34.7 187.327 34.936 187.055 35.256L186.443 34.728C186.771 34.344 187.191 34.048 187.703 33.84C188.215 33.632 188.787 33.528 189.419 33.528C189.987 33.528 190.479 33.62 190.895 33.804C191.311 33.98 191.631 34.24 191.855 34.584C192.087 34.928 192.203 35.332 192.203 35.796C192.203 36.068 192.163 36.336 192.083 36.6C192.011 36.864 191.875 37.144 191.675 37.44C191.483 37.728 191.199 38.056 190.823 38.424L187.619 41.568L187.379 41.232H192.587V42H186.695ZM193.257 39.792V39.168L197.709 33.6H198.669L194.253 39.168L193.785 39.024H200.541V39.792H193.257ZM197.997 42V39.792L198.021 39.024V37.08H198.861V42H197.997ZM205.22 42V33.6H208.364C209.076 33.6 209.688 33.716 210.2 33.948C210.712 34.172 211.104 34.5 211.376 34.932C211.656 35.356 211.796 35.872 211.796 36.48C211.796 37.072 211.656 37.584 211.376 38.016C211.104 38.44 210.712 38.768 210.2 39C209.688 39.232 209.076 39.348 208.364 39.348H205.712L206.108 38.928V42H205.22ZM206.108 39L205.712 38.568H208.34C209.18 38.568 209.816 38.388 210.248 38.028C210.688 37.66 210.908 37.144 210.908 36.48C210.908 35.808 210.688 35.288 210.248 34.92C209.816 34.552 209.18 34.368 208.34 34.368H205.712L206.108 33.948V39ZM213.716 42V33.6H214.448L218.288 40.152H217.904L221.708 33.6H222.44V42H221.588V34.932H221.792L218.288 40.932H217.868L214.34 34.932H214.568V42H213.716Z" fill="#3C3C43"/>
<circle cx="84" cy="51" r="19.5" stroke="#EBAC45"/>
<circle cx="84" cy="51" r="17" stroke="#EBAC45" stroke-dasharray="2 2"/>
<path fill-rule="evenodd" clip-rule="evenodd" d="M92.1 44H75.9C75.405 44 75 44.4219 75 44.9375L75.045 50.5625C75.4705 54.9745 78.8645 58.5099 83.1 58.9531C83.3961 58.9841 83.6964 59 84 59C84.3036 59 84.6039 58.9841 84.9 58.9531C89.1355 58.5099 92.5295 54.9745 92.955 50.5625L93 44.9375C93 44.4219 92.595 44 92.1 44ZM76.8 46.1429H77.925V48.0179H76.8H75.9V46.1429H76.8ZM80.175 46.1429H81.3H82.65V48.0179H81.3H80.175V46.1429ZM86.7 46.1429H85.35V48.0179H86.7H87.825V46.1429H86.7ZM90.075 46.1429H91.2H92.1V48.0179H91.2H90.075V46.1429Z" fill="#EBAC45"/>
<path d="M80.3492 54.4008C81.3227 55.3744 81.8748 56.6914 81.8864 58.0681V59.0412C78.7742 58.4463 76.3037 55.9758 75.7088 52.8636H76.6819C78.0586 52.8752 79.3756 53.4273 80.3492 54.4008Z" fill="#EBAC45" stroke="white" stroke-width="1.22727" stroke-linejoin="round"/>
<path d="M87.6508 54.4008C86.6773 55.3744 86.1252 56.6914 86.1136 58.0681V59.0412C89.2258 58.4463 91.6963 55.9758 92.2912 52.8636H91.3181C89.9414 52.8752 88.6244 53.4273 87.6508 54.4008Z" fill="#EBAC45" stroke="white" stroke-width="1.22727" stroke-linejoin="round"/>
<defs>
<filter id="filter0_d_443_990" x="33" y="0" width="298" height="95" filterUnits="userSpaceOnUse" color-interpolation-filters="sRGB">
<feFlood flood-opacity="0" result="BackgroundImageFix"/>
<feColorMatrix in="SourceAlpha" type="matrix" values="0 0 0 0 0 0 0 0 0 0 0 0 0 0 0 0 0 0 127 0" result="hardAlpha"/>
<feOffset/>
<feGaussianBlur stdDeviation="5"/>
<feComposite in2="hardAlpha" operator="out"/>
<feColorMatrix type="matrix" values="0 0 0 0 0.377661 0 0 0 0 0.471527 0 0 0 0 0.878281 0 0 0 0.25 0"/>
<feBlend mode="normal" in2="BackgroundImageFix" result="effect1_dropShadow_443_990"/>
<feBlend mode="normal" in="SourceGraphic" in2="effect1_dropShadow_443_990" result="shape"/>
</filter>
<filter id="filter1_d_443_990" x="0" y="1" width="39" height="39" filterUnits="userSpaceOnUse" color-interpolation-filters="sRGB">
<feFlood flood-opacity="0" result="BackgroundImageFix"/>
<feColorMatrix in="SourceAlpha" type="matrix" values="0 0 0 0 0 0 0 0 0 0 0 0 0 0 0 0 0 0 127 0" result="hardAlpha"/>
<feMorphology radius="2" operator="dilate" in="SourceAlpha" result="effect1_dropShadow_443_990"/>
<feOffset/>
<feGaussianBlur stdDeviation="3.5"/>
<feComposite in2="hardAlpha" operator="out"/>
<feColorMatrix type="matrix" values="0 0 0 0 0.377661 0 0 0 0 0.471527 0 0 0 0 0.878281 0 0 0 0.5 0"/>
<feBlend mode="normal" in2="BackgroundImageFix" result="effect1_dropShadow_443_990"/>
<feBlend mode="normal" in="SourceGraphic" in2="effect1_dropShadow_443_990" result="shape"/>
</filter>
<filter id="filter2_d_443_990" x="23" y="12.5" width="305" height="15.5" filterUnits="userSpaceOnUse" color-interpolation-filters="sRGB">
<feFlood flood-opacity="0" result="BackgroundImageFix"/>
<feColorMatrix in="SourceAlpha" type="matrix" values="0 0 0 0 0 0 0 0 0 0 0 0 0 0 0 0 0 0 127 0" result="hardAlpha"/>
<feOffset/>
<feGaussianBlur stdDeviation="3.5"/>
<feComposite in2="hardAlpha" operator="out"/>
<feColorMatrix type="matrix" values="0 0 0 0 0.377661 0 0 0 0 0.471527 0 0 0 0 0.878281 0 0 0 0.5 0"/>
<feBlend mode="normal" in2="BackgroundImageFix" result="effect1_dropShadow_443_990"/>
<feBlend mode="normal" in="SourceGraphic" in2="effect1_dropShadow_443_990" result="shape"/>
</filter>
<radialGradient id="paint0_radial_443_990" cx="0" cy="0" r="1" gradientUnits="userSpaceOnUse" gradientTransform="translate(19.5 20.5) rotate(90) scale(10.5)">
<stop stop-color="#6078E0"/>
<stop offset="1" stop-color="#BDC9FF"/>
</radialGradient>
</defs>
</svg>
