<svg width="331" height="95" viewBox="0 0 331 95" fill="none" xmlns="http://www.w3.org/2000/svg">
<g filter="url(#filter0_d_424_761)">
<rect x="43" y="10" width="278" height="75" rx="8" fill="white"/>
</g>
<path d="M124.275 53.8C125.246 53.8 126.088 53.96 126.803 54.28C127.528 54.6 128.083 55.0587 128.467 55.656C128.851 56.2533 129.043 56.9627 129.043 57.784C129.043 58.5947 128.851 59.304 128.467 59.912C128.083 60.5093 127.528 60.968 126.803 61.288C126.088 61.608 125.246 61.768 124.275 61.768H121.747V65H119.667V53.8H124.275ZM124.179 60.008C125.086 60.008 125.774 59.816 126.243 59.432C126.712 59.048 126.947 58.4987 126.947 57.784C126.947 57.0693 126.712 56.52 126.243 56.136C125.774 55.752 125.086 55.56 124.179 55.56H121.747V60.008H124.179ZM139.356 56.456V65H137.452V63.912C137.132 64.296 136.732 64.5947 136.252 64.808C135.772 65.0107 135.255 65.112 134.7 65.112C133.559 65.112 132.658 64.7973 131.996 64.168C131.346 63.528 131.02 62.584 131.02 61.336V56.456H133.02V61.064C133.02 61.832 133.191 62.408 133.532 62.792C133.884 63.1653 134.38 63.352 135.02 63.352C135.735 63.352 136.3 63.1333 136.716 62.696C137.143 62.248 137.356 61.608 137.356 60.776V56.456H139.356ZM152.759 56.36C153.836 56.36 154.69 56.6747 155.319 57.304C155.948 57.9227 156.263 58.856 156.263 60.104V65H154.263V60.36C154.263 59.6133 154.098 59.0533 153.767 58.68C153.436 58.296 152.962 58.104 152.343 58.104C151.671 58.104 151.132 58.328 150.727 58.776C150.322 59.2133 150.119 59.8427 150.119 60.664V65H148.119V60.36C148.119 59.6133 147.954 59.0533 147.623 58.68C147.292 58.296 146.818 58.104 146.199 58.104C145.516 58.104 144.972 58.3227 144.567 58.76C144.172 59.1973 143.975 59.832 143.975 60.664V65H141.975V56.456H143.879V57.544C144.199 57.16 144.599 56.8667 145.079 56.664C145.559 56.4613 146.092 56.36 146.679 56.36C147.319 56.36 147.884 56.4827 148.375 56.728C148.876 56.9627 149.271 57.3147 149.559 57.784C149.911 57.336 150.364 56.9893 150.919 56.744C151.474 56.488 152.087 56.36 152.759 56.36ZM163.555 56.36C164.387 56.36 165.128 56.5413 165.779 56.904C166.44 57.2667 166.958 57.7787 167.331 58.44C167.704 59.1013 167.891 59.864 167.891 60.728C167.891 61.592 167.704 62.36 167.331 63.032C166.958 63.6933 166.44 64.2053 165.779 64.568C165.128 64.9307 164.387 65.112 163.555 65.112C162.403 65.112 161.491 64.728 160.819 63.96V68.104H158.819V56.456H160.723V57.576C161.054 57.1707 161.459 56.8667 161.939 56.664C162.43 56.4613 162.968 56.36 163.555 56.36ZM163.331 63.4C164.067 63.4 164.67 63.1547 165.139 62.664C165.619 62.1733 165.859 61.528 165.859 60.728C165.859 59.928 165.619 59.2827 165.139 58.792C164.67 58.3013 164.067 58.056 163.331 58.056C162.851 58.056 162.419 58.168 162.035 58.392C161.651 58.6053 161.347 58.9147 161.123 59.32C160.899 59.7253 160.787 60.1947 160.787 60.728C160.787 61.2613 160.899 61.7307 161.123 62.136C161.347 62.5413 161.651 62.856 162.035 63.08C162.419 63.2933 162.851 63.4 163.331 63.4ZM177.82 60.776C177.82 60.9147 177.809 61.112 177.788 61.368H171.084C171.201 61.9973 171.505 62.4987 171.996 62.872C172.497 63.2347 173.116 63.416 173.852 63.416C174.79 63.416 175.564 63.1067 176.172 62.488L177.244 63.72C176.86 64.1787 176.374 64.5253 175.788 64.76C175.201 64.9947 174.54 65.112 173.804 65.112C172.865 65.112 172.038 64.9253 171.324 64.552C170.609 64.1787 170.054 63.6613 169.66 63C169.276 62.328 169.084 61.5707 169.084 60.728C169.084 59.896 169.27 59.1493 169.644 58.488C170.028 57.816 170.556 57.2933 171.228 56.92C171.9 56.5467 172.657 56.36 173.5 56.36C174.332 56.36 175.073 56.5467 175.724 56.92C176.385 57.2827 176.897 57.8 177.26 58.472C177.633 59.1333 177.82 59.9013 177.82 60.776ZM173.5 57.96C172.86 57.96 172.316 58.152 171.868 58.536C171.43 58.9093 171.164 59.4107 171.068 60.04H175.916C175.83 59.4213 175.569 58.92 175.132 58.536C174.694 58.152 174.15 57.96 173.5 57.96ZM188.109 53.128V65H186.189V63.896C185.858 64.3013 185.447 64.6053 184.957 64.808C184.477 65.0107 183.943 65.112 183.357 65.112C182.535 65.112 181.794 64.9307 181.133 64.568C180.482 64.2053 179.97 63.6933 179.597 63.032C179.223 62.36 179.037 61.592 179.037 60.728C179.037 59.864 179.223 59.1013 179.597 58.44C179.97 57.7787 180.482 57.2667 181.133 56.904C181.794 56.5413 182.535 56.36 183.357 56.36C183.922 56.36 184.439 56.456 184.909 56.648C185.378 56.84 185.778 57.128 186.109 57.512V53.128H188.109ZM183.597 63.4C184.077 63.4 184.509 63.2933 184.893 63.08C185.277 62.856 185.581 62.5413 185.805 62.136C186.029 61.7307 186.141 61.2613 186.141 60.728C186.141 60.1947 186.029 59.7253 185.805 59.32C185.581 58.9147 185.277 58.6053 184.893 58.392C184.509 58.168 184.077 58.056 183.597 58.056C183.117 58.056 182.685 58.168 182.301 58.392C181.917 58.6053 181.613 58.9147 181.389 59.32C181.165 59.7253 181.053 60.1947 181.053 60.728C181.053 61.2613 181.165 61.7307 181.389 62.136C181.613 62.5413 181.917 62.856 182.301 63.08C182.685 63.2933 183.117 63.4 183.597 63.4ZM205.627 65L205.611 57.576L201.931 63.72H201.003L197.323 57.672V65H195.339V53.8H197.051L201.499 61.224L205.867 53.8H207.579L207.595 65H205.627ZM210.428 56.456H212.428V65H210.428V56.456ZM211.436 55.048C211.074 55.048 210.77 54.936 210.524 54.712C210.279 54.4773 210.156 54.1893 210.156 53.848C210.156 53.5067 210.279 53.224 210.524 53C210.77 52.7653 211.074 52.648 211.436 52.648C211.799 52.648 212.103 52.76 212.348 52.984C212.594 53.1973 212.716 53.4693 212.716 53.8C212.716 54.152 212.594 54.4507 212.348 54.696C212.114 54.9307 211.81 55.048 211.436 55.048ZM215.053 53.128H217.053V65H215.053V53.128ZM223.166 61.336L221.678 62.744V65H219.678V53.128H221.678V60.296L225.822 56.456H228.222L224.654 60.04L228.558 65H226.126L223.166 61.336Z" fill="#3C3C43"/>
<rect x="118.163" y="28" width="46" height="15" rx="2" fill="#FF8B58"/>
<path d="M124.139 33.272V34.976H126.843V35.856H124.139V38H123.099V32.4H127.187V33.272H124.139ZM132.392 37.128V38H128.192V32.4H132.28V33.272H129.232V34.728H131.936V35.584H129.232V37.128H132.392ZM137.752 37.128V38H133.552V32.4H137.64V33.272H134.592V34.728H137.296V35.584H134.592V37.128H137.752ZM138.911 32.4H141.359C141.957 32.4 142.487 32.5173 142.951 32.752C143.415 32.9813 143.775 33.3093 144.031 33.736C144.287 34.1573 144.415 34.6453 144.415 35.2C144.415 35.7547 144.287 36.2453 144.031 36.672C143.775 37.0933 143.415 37.4213 142.951 37.656C142.487 37.8853 141.957 38 141.359 38H138.911V32.4ZM141.311 37.12C141.722 37.12 142.082 37.0427 142.391 36.888C142.706 36.728 142.946 36.504 143.111 36.216C143.282 35.9227 143.367 35.584 143.367 35.2C143.367 34.816 143.282 34.48 143.111 34.192C142.946 33.8987 142.706 33.6747 142.391 33.52C142.082 33.36 141.722 33.28 141.311 33.28H139.951V37.12H141.311ZM145.521 32.4H146.561V38H145.521V32.4ZM153.051 32.4V38H152.195L149.107 34.208V38H148.075V32.4H148.931L152.019 36.192V32.4H153.051ZM158.376 35.136H159.36V37.368C159.072 37.5973 158.736 37.7733 158.352 37.896C157.968 38.0187 157.573 38.08 157.168 38.08C156.597 38.08 156.082 37.9573 155.624 37.712C155.165 37.4613 154.805 37.1173 154.544 36.68C154.282 36.2427 154.152 35.7493 154.152 35.2C154.152 34.6507 154.282 34.1573 154.544 33.72C154.805 33.2827 155.165 32.9413 155.624 32.696C156.088 32.4453 156.608 32.32 157.184 32.32C157.653 32.32 158.08 32.3973 158.464 32.552C158.848 32.7067 159.17 32.9333 159.432 33.232L158.776 33.872C158.349 33.4453 157.834 33.232 157.232 33.232C156.837 33.232 156.485 33.3147 156.176 33.48C155.872 33.6453 155.632 33.8773 155.456 34.176C155.285 34.4747 155.2 34.816 155.2 35.2C155.2 35.5733 155.285 35.9093 155.456 36.208C155.632 36.5067 155.872 36.7413 156.176 36.912C156.485 37.0827 156.834 37.168 157.224 37.168C157.661 37.168 158.045 37.072 158.376 36.88V35.136Z" fill="white"/>
<path d="M174.135 40.072C173.487 40.072 172.907 39.9 172.395 39.556C171.891 39.212 171.495 38.72 171.207 38.08C170.927 37.432 170.787 36.672 170.787 35.8C170.787 34.928 170.927 34.172 171.207 33.532C171.495 32.884 171.891 32.388 172.395 32.044C172.907 31.7 173.487 31.528 174.135 31.528C174.783 31.528 175.359 31.7 175.863 32.044C176.375 32.388 176.775 32.884 177.063 33.532C177.351 34.172 177.495 34.928 177.495 35.8C177.495 36.672 177.351 37.432 177.063 38.08C176.775 38.72 176.375 39.212 175.863 39.556C175.359 39.9 174.783 40.072 174.135 40.072ZM174.135 39.28C174.623 39.28 175.051 39.144 175.419 38.872C175.795 38.6 176.087 38.204 176.295 37.684C176.503 37.164 176.607 36.536 176.607 35.8C176.607 35.064 176.503 34.436 176.295 33.916C176.087 33.396 175.795 33 175.419 32.728C175.051 32.456 174.623 32.32 174.135 32.32C173.647 32.32 173.215 32.456 172.839 32.728C172.471 33 172.183 33.396 171.975 33.916C171.767 34.436 171.663 35.064 171.663 35.8C171.663 36.536 171.767 37.164 171.975 37.684C172.183 38.204 172.471 38.6 172.839 38.872C173.215 39.144 173.647 39.28 174.135 39.28ZM185.872 37.792H184.192V40H183.328V37.792H178.588V37.168L183.04 31.6H184L179.704 37.024H183.352V35.08H184.192V37.024H185.872V37.792ZM187.384 34.948C187.208 34.948 187.056 34.884 186.928 34.756C186.808 34.628 186.748 34.472 186.748 34.288C186.748 34.104 186.808 33.952 186.928 33.832C187.056 33.704 187.208 33.64 187.384 33.64C187.56 33.64 187.712 33.704 187.84 33.832C187.968 33.952 188.032 34.104 188.032 34.288C188.032 34.472 187.968 34.628 187.84 34.756C187.712 34.884 187.56 34.948 187.384 34.948ZM187.384 40.06C187.208 40.06 187.056 39.996 186.928 39.868C186.808 39.74 186.748 39.584 186.748 39.4C186.748 39.216 186.808 39.064 186.928 38.944C187.056 38.816 187.208 38.752 187.384 38.752C187.56 38.752 187.712 38.816 187.84 38.944C187.968 39.064 188.032 39.216 188.032 39.4C188.032 39.584 187.968 39.74 187.84 39.868C187.712 39.996 187.56 40.06 187.384 40.06ZM196.419 37.792H194.739V40H193.875V37.792H189.135V37.168L193.587 31.6H194.547L190.251 37.024H193.899V35.08H194.739V37.024H196.419V37.792ZM199.374 35.044C200.59 35.044 201.474 35.264 202.026 35.704C202.586 36.136 202.866 36.744 202.866 37.528C202.866 38.016 202.75 38.452 202.518 38.836C202.294 39.22 201.954 39.524 201.498 39.748C201.042 39.964 200.482 40.072 199.818 40.072C199.218 40.072 198.646 39.976 198.102 39.784C197.566 39.584 197.134 39.32 196.806 38.992L197.226 38.308C197.506 38.596 197.874 38.832 198.33 39.016C198.786 39.192 199.278 39.28 199.806 39.28C200.502 39.28 201.038 39.124 201.414 38.812C201.798 38.5 201.99 38.084 201.99 37.564C201.99 36.988 201.774 36.552 201.342 36.256C200.918 35.96 200.198 35.812 199.182 35.812H197.394L197.826 31.6H202.422V32.368H198.582L198.294 35.044H199.374ZM210.991 31.6C212.063 31.6 212.903 31.856 213.511 32.368C214.119 32.88 214.423 33.584 214.423 34.48C214.423 35.376 214.119 36.08 213.511 36.592C212.903 37.096 212.063 37.348 210.991 37.348H208.735V40H207.847V31.6H210.991ZM210.967 36.568C211.799 36.568 212.435 36.388 212.875 36.028C213.315 35.66 213.535 35.144 213.535 34.48C213.535 33.8 213.315 33.28 212.875 32.92C212.435 32.552 211.799 32.368 210.967 32.368H208.735V36.568H210.967ZM225.068 31.6V40H224.216V33.28L220.916 38.932H220.496L217.196 33.316V40H216.344V31.6H217.076L220.724 37.828L224.336 31.6H225.068Z" fill="#3C3C43"/>
<circle cx="84.6221" cy="48" r="19.5" stroke="#FF8B58"/>
<circle cx="84.6221" cy="48" r="17" stroke="#FF8B58" stroke-dasharray="2 2"/>
<path d="M83.6136 43.277L78.4384 48.3535C78.275 48.5138 78.1455 48.7042 78.0571 48.9138C77.9687 49.1233 77.9232 49.348 77.9232 49.5748C77.9232 49.8017 77.9687 50.0263 78.0571 50.2359C78.1455 50.4454 78.275 50.6358 78.4384 50.7961L81.7885 54.0759C81.9517 54.2364 82.1455 54.3637 82.3587 54.4505C82.572 54.5374 82.8006 54.5821 83.0315 54.5821C83.2623 54.5821 83.4909 54.5374 83.7042 54.4505C83.9175 54.3637 84.1112 54.2364 84.2744 54.0759L88.2395 50.21C88.2928 50.1573 88.3266 50.0886 88.3355 50.0147C88.3444 49.9409 88.3279 49.8663 88.2885 49.8029L84.6821 43.4055C84.4532 43.0359 83.9298 42.9716 83.6136 43.277ZM85.147 45.9556C85.3105 46.1163 85.3105 46.368 85.147 46.5234C84.9889 46.6787 84.7272 46.6787 84.5691 46.5234L83.6042 45.5752C83.4461 45.4199 83.4461 45.1628 83.6042 45.0074C83.6812 44.9327 83.785 44.8908 83.8931 44.8908C84.0013 44.8908 84.1051 44.9327 84.1821 45.0074L85.147 45.9556ZM83.3207 47.7554C83.4788 47.9161 83.4788 48.1679 83.3207 48.3232C83.1626 48.4785 82.901 48.4785 82.7429 48.3232L81.778 47.3751C81.6199 47.2197 81.6199 46.9626 81.778 46.8073C81.8549 46.7325 81.9587 46.6906 82.0669 46.6906C82.1751 46.6906 82.2789 46.7325 82.3558 46.8073L83.3207 47.7554ZM86.0138 43.2076L86.9787 44.1557C87.1422 44.3164 87.1422 44.5682 86.9787 44.7235C86.8206 44.8789 86.5589 44.8789 86.4008 44.7235L85.4359 43.7754C85.2778 43.62 85.2778 43.3629 85.4359 43.2076C85.5129 43.1329 85.6167 43.091 85.7248 43.091C85.833 43.091 85.9368 43.1329 86.0138 43.2076Z" fill="#FF8B58"/>
<path d="M93.0679 41.2847L93.4386 40.9204C93.6533 40.7095 93.7739 40.4233 93.7739 40.125C93.7739 39.8266 93.6533 39.5405 93.4386 39.3295C93.2239 39.1185 92.9327 39 92.6291 39C92.3254 39 92.0342 39.1185 91.8195 39.3295L91.4488 39.6937C91.3071 39.833 91.0945 39.8866 90.8982 39.8223L90.0205 39.533C89.6334 39.4045 89.2082 39.5063 88.9248 39.7902L88.5813 40.1223L88.5541 40.0955C88.4531 39.9977 88.317 39.9429 88.1752 39.9429C88.0334 39.9429 87.8973 39.9977 87.7963 40.0955L87.738 40.1528C87.1997 39.7229 86.5197 39.5016 85.8267 39.5307C85.1336 39.5598 84.4754 39.8373 83.9764 40.3108L83.9737 40.3135L76.6899 47.5092C76.3995 47.7941 76.1692 48.1325 76.012 48.5049C75.8548 48.8773 75.7739 49.2766 75.7739 49.6798C75.7739 50.083 75.8548 50.4822 76.012 50.8546C76.1692 51.2271 76.3995 51.5654 76.6899 51.8503L80.7404 55.8303C81.0303 56.1156 81.3746 56.342 81.7536 56.4964C82.1327 56.6508 82.539 56.7303 82.9493 56.7303C83.3596 56.7303 83.7659 56.6508 84.145 56.4964C84.524 56.342 84.8683 56.1156 85.1583 55.8303L92.4584 48.619L92.471 48.5949C92.9405 48.1018 93.212 47.4581 93.2351 46.7831C93.2582 46.1082 93.0312 45.448 92.5963 44.9251L92.6536 44.8683C92.8662 44.6647 92.8662 44.3326 92.659 44.1291L92.6318 44.1023L92.9698 43.7648C93.2587 43.4863 93.3623 43.0685 93.2314 42.6881L92.9371 41.8257C92.8716 41.6329 92.9262 41.424 93.0679 41.2847ZM91.6358 45.4774C91.9583 45.7951 92.1414 46.2242 92.1459 46.673C92.1504 47.1217 91.9759 47.5543 91.6598 47.8782L91.4761 48.0587L91.4761 48.0695L84.3874 55.0729C84.1987 55.2587 83.9746 55.4062 83.7278 55.5068C83.481 55.6074 83.2165 55.6592 82.9493 55.6592C82.6821 55.6592 82.4176 55.6074 82.1708 55.5068C81.924 55.4062 81.6999 55.2587 81.5112 55.0729L77.4607 51.0929C77.2716 50.9075 77.1215 50.6872 77.0191 50.4447C76.9167 50.2022 76.864 49.9423 76.864 49.6798C76.864 49.4172 76.9167 49.1573 77.0191 48.9148C77.1215 48.6723 77.2716 48.4521 77.4607 48.2667L84.7385 41.0774C85.0681 40.7667 85.5084 40.5953 85.9651 40.5997C86.4218 40.6041 86.8586 40.784 87.1819 41.1009L91.6358 45.4774Z" fill="#FF8B58"/>
<path d="M265.415 65L268.883 57.224L269.291 57.92H264.527L265.271 57.164V59.348H263.819V56.6H270.347V57.644L267.083 65H265.415ZM275.289 65V58.232C275.289 57.56 275.485 57.024 275.877 56.624C276.277 56.216 276.845 56.012 277.581 56.012C277.845 56.012 278.093 56.04 278.325 56.096C278.565 56.152 278.765 56.24 278.925 56.36L278.517 57.488C278.405 57.4 278.277 57.336 278.133 57.296C277.989 57.248 277.841 57.224 277.689 57.224C277.377 57.224 277.141 57.312 276.981 57.488C276.821 57.656 276.741 57.912 276.741 58.256V58.976L276.789 59.648V65H275.289ZM274.233 59.84V58.64H278.505V59.84H274.233ZM279.549 65V56.096H281.049V65H279.549ZM289.215 65.084C288.559 65.084 287.975 64.944 287.463 64.664C286.951 64.376 286.547 63.984 286.251 63.488C285.955 62.992 285.807 62.428 285.807 61.796C285.807 61.156 285.955 60.592 286.251 60.104C286.547 59.608 286.951 59.22 287.463 58.94C287.975 58.66 288.559 58.52 289.215 58.52C289.879 58.52 290.467 58.66 290.979 58.94C291.499 59.22 291.903 59.604 292.191 60.092C292.487 60.58 292.635 61.148 292.635 61.796C292.635 62.428 292.487 62.992 292.191 63.488C291.903 63.984 291.499 64.376 290.979 64.664C290.467 64.944 289.879 65.084 289.215 65.084ZM289.215 63.8C289.583 63.8 289.911 63.72 290.199 63.56C290.487 63.4 290.711 63.168 290.871 62.864C291.039 62.56 291.123 62.204 291.123 61.796C291.123 61.38 291.039 61.024 290.871 60.728C290.711 60.424 290.487 60.192 290.199 60.032C289.911 59.872 289.587 59.792 289.227 59.792C288.859 59.792 288.531 59.872 288.243 60.032C287.963 60.192 287.739 60.424 287.571 60.728C287.403 61.024 287.319 61.38 287.319 61.796C287.319 62.204 287.403 62.56 287.571 62.864C287.739 63.168 287.963 63.4 288.243 63.56C288.531 63.72 288.855 63.8 289.215 63.8ZM293.447 65V64.052L297.395 59.276L297.671 59.792H293.519V58.592H298.871V59.54L294.923 64.316L294.623 63.8H298.979V65H293.447Z" fill="#3C3C43" fill-opacity="0.6"/>
<g filter="url(#filter1_d_424_761)">
<circle cx="19.5" cy="20.5" r="10.5" fill="url(#paint0_radial_424_761)"/>
</g>
<g filter="url(#filter2_d_424_761)">
<line x1="30" y1="20.25" x2="321" y2="20.25" stroke="#6078E0" stroke-width="1.5"/>
</g>
<circle cx="19.5" cy="20.5" r="7.5" fill="#6078E0"/>
<defs>
<filter id="filter0_d_424_761" x="33" y="0" width="298" height="95" filterUnits="userSpaceOnUse" color-interpolation-filters="sRGB">
<feFlood flood-opacity="0" result="BackgroundImageFix"/>
<feColorMatrix in="SourceAlpha" type="matrix" values="0 0 0 0 0 0 0 0 0 0 0 0 0 0 0 0 0 0 127 0" result="hardAlpha"/>
<feOffset/>
<feGaussianBlur stdDeviation="5"/>
<feComposite in2="hardAlpha" operator="out"/>
<feColorMatrix type="matrix" values="0 0 0 0 0.377661 0 0 0 0 0.471527 0 0 0 0 0.878281 0 0 0 0.25 0"/>
<feBlend mode="normal" in2="BackgroundImageFix" result="effect1_dropShadow_424_761"/>
<feBlend mode="normal" in="SourceGraphic" in2="effect1_dropShadow_424_761" result="shape"/>
</filter>
<filter id="filter1_d_424_761" x="0" y="1" width="39" height="39" filterUnits="userSpaceOnUse" color-interpolation-filters="sRGB">
<feFlood flood-opacity="0" result="BackgroundImageFix"/>
<feColorMatrix in="SourceAlpha" type="matrix" values="0 0 0 0 0 0 0 0 0 0 0 0 0 0 0 0 0 0 127 0" result="hardAlpha"/>
<feMorphology radius="2" operator="dilate" in="SourceAlpha" result="effect1_dropShadow_424_761"/>
<feOffset/>
<feGaussianBlur stdDeviation="3.5"/>
<feComposite in2="hardAlpha" operator="out"/>
<feColorMatrix type="matrix" values="0 0 0 0 0.377661 0 0 0 0 0.471527 0 0 0 0 0.878281 0 0 0 0.5 0"/>
<feBlend mode="normal" in2="BackgroundImageFix" result="effect1_dropShadow_424_761"/>
<feBlend mode="normal" in="SourceGraphic" in2="effect1_dropShadow_424_761" result="shape"/>
</filter>
<filter id="filter2_d_424_761" x="23" y="12.5" width="305" height="15.5" filterUnits="userSpaceOnUse" color-interpolation-filters="sRGB">
<feFlood flood-opacity="0" result="BackgroundImageFix"/>
<feColorMatrix in="SourceAlpha" type="matrix" values="0 0 0 0 0 0 0 0 0 0 0 0 0 0 0 0 0 0 127 0" result="hardAlpha"/>
<feOffset/>
<feGaussianBlur stdDeviation="3.5"/>
<feComposite in2="hardAlpha" operator="out"/>
<feColorMatrix type="matrix" values="0 0 0 0 0.377661 0 0 0 0 0.471527 0 0 0 0 0.878281 0 0 0 0.5 0"/>
<feBlend mode="normal" in2="BackgroundImageFix" result="effect1_dropShadow_424_761"/>
<feBlend mode="normal" in="SourceGraphic" in2="effect1_dropShadow_424_761" result="shape"/>
</filter>
<radialGradient id="paint0_radial_424_761" cx="0" cy="0" r="1" gradientUnits="userSpaceOnUse" gradientTransform="translate(19.5 20.5) rotate(90) scale(10.5)">
<stop stop-color="#6078E0"/>
<stop offset="1" stop-color="#BDC9FF"/>
</radialGradient>
</defs>
</svg>
