<svg width="393" height="1169" viewBox="0 0 393 1169" fill="none" xmlns="http://www.w3.org/2000/svg">
<g clip-path="url(#clip0_413_289)">
<rect width="393" height="1169" fill="white"/>
<path d="M38.74 787L38.72 777.72L34.12 785.4H32.96L28.36 777.84V787H25.88V773H28.02L33.58 782.28L39.04 773H41.18L41.2 787H38.74ZM54.7816 781.72C54.7816 781.893 54.7682 782.14 54.7416 782.46H46.3616C46.5082 783.247 46.8882 783.873 47.5016 784.34C48.1282 784.793 48.9016 785.02 49.8216 785.02C50.9949 785.02 51.9616 784.633 52.7216 783.86L54.0616 785.4C53.5816 785.973 52.9749 786.407 52.2416 786.7C51.5082 786.993 50.6816 787.14 49.7616 787.14C48.5882 787.14 47.5549 786.907 46.6616 786.44C45.7682 785.973 45.0749 785.327 44.5816 784.5C44.1016 783.66 43.8616 782.713 43.8616 781.66C43.8616 780.62 44.0949 779.687 44.5616 778.86C45.0416 778.02 45.7016 777.367 46.5416 776.9C47.3816 776.433 48.3282 776.2 49.3816 776.2C50.4216 776.2 51.3482 776.433 52.1616 776.9C52.9882 777.353 53.6282 778 54.0816 778.84C54.5482 779.667 54.7816 780.627 54.7816 781.72ZM49.3816 778.2C48.5816 778.2 47.9016 778.44 47.3416 778.92C46.7949 779.387 46.4616 780.013 46.3416 780.8H52.4016C52.2949 780.027 51.9682 779.4 51.4216 778.92C50.8749 778.44 50.1949 778.2 49.3816 778.2ZM70.663 776.2C72.0096 776.2 73.0763 776.593 73.863 777.38C74.6496 778.153 75.043 779.32 75.043 780.88V787H72.543V781.2C72.543 780.267 72.3363 779.567 71.923 779.1C71.5096 778.62 70.9163 778.38 70.143 778.38C69.303 778.38 68.6296 778.66 68.123 779.22C67.6163 779.767 67.363 780.553 67.363 781.58V787H64.863V781.2C64.863 780.267 64.6563 779.567 64.243 779.1C63.8296 778.62 63.2363 778.38 62.463 778.38C61.6096 778.38 60.9296 778.653 60.423 779.2C59.9296 779.747 59.683 780.54 59.683 781.58V787H57.183V776.32H59.563V777.68C59.963 777.2 60.463 776.833 61.063 776.58C61.663 776.327 62.3296 776.2 63.063 776.2C63.863 776.2 64.5696 776.353 65.183 776.66C65.8096 776.953 66.303 777.393 66.663 777.98C67.103 777.42 67.6696 776.987 68.363 776.68C69.0563 776.36 69.823 776.2 70.663 776.2ZM83.1353 787.14C82.0553 787.14 81.082 786.907 80.2153 786.44C79.3486 785.973 78.6686 785.327 78.1753 784.5C77.6953 783.66 77.4553 782.713 77.4553 781.66C77.4553 780.607 77.6953 779.667 78.1753 778.84C78.6686 778.013 79.3486 777.367 80.2153 776.9C81.082 776.433 82.0553 776.2 83.1353 776.2C84.2286 776.2 85.2086 776.433 86.0753 776.9C86.942 777.367 87.6153 778.013 88.0953 778.84C88.5886 779.667 88.8353 780.607 88.8353 781.66C88.8353 782.713 88.5886 783.66 88.0953 784.5C87.6153 785.327 86.942 785.973 86.0753 786.44C85.2086 786.907 84.2286 787.14 83.1353 787.14ZM83.1353 785C84.0553 785 84.8153 784.693 85.4153 784.08C86.0153 783.467 86.3153 782.66 86.3153 781.66C86.3153 780.66 86.0153 779.853 85.4153 779.24C84.8153 778.627 84.0553 778.32 83.1353 778.32C82.2153 778.32 81.4553 778.627 80.8553 779.24C80.2686 779.853 79.9753 780.66 79.9753 781.66C79.9753 782.66 80.2686 783.467 80.8553 784.08C81.4553 784.693 82.2153 785 83.1353 785Z" fill="#3C3C43"/>
<mask id="path-2-inside-1_413_289" fill="white">
<path d="M0 0H393V110H0V0Z"/>
</mask>
<path d="M0 0H393V110H0V0Z" fill="white"/>
<path d="M393 109H0V111H393V109Z" fill="#3C3C43" fill-opacity="0.3" mask="url(#path-2-inside-1_413_289)"/>
<path d="M154.947 72.998V77.684H162.383V80.104H154.947V86H152.087V70.6H163.329V72.998H154.947ZM176.552 80.192C176.552 80.3827 176.537 80.654 176.508 81.006H167.29C167.451 81.8713 167.869 82.5607 168.544 83.074C169.233 83.5727 170.084 83.822 171.096 83.822C172.387 83.822 173.45 83.3967 174.286 82.546L175.76 84.24C175.232 84.8707 174.565 85.3473 173.758 85.67C172.951 85.9927 172.042 86.154 171.03 86.154C169.739 86.154 168.603 85.8973 167.62 85.384C166.637 84.8707 165.875 84.1593 165.332 83.25C164.804 82.326 164.54 81.2847 164.54 80.126C164.54 78.982 164.797 77.9553 165.31 77.046C165.838 76.122 166.564 75.4033 167.488 74.89C168.412 74.3767 169.453 74.12 170.612 74.12C171.756 74.12 172.775 74.3767 173.67 74.89C174.579 75.3887 175.283 76.1 175.782 77.024C176.295 77.9333 176.552 78.9893 176.552 80.192ZM170.612 76.32C169.732 76.32 168.984 76.584 168.368 77.112C167.767 77.6253 167.4 78.3147 167.268 79.18H173.934C173.817 78.3293 173.457 77.64 172.856 77.112C172.255 76.584 171.507 76.32 170.612 76.32ZM190.238 80.192C190.238 80.3827 190.223 80.654 190.194 81.006H180.976C181.137 81.8713 181.555 82.5607 182.23 83.074C182.919 83.5727 183.77 83.822 184.782 83.822C186.072 83.822 187.136 83.3967 187.972 82.546L189.446 84.24C188.918 84.8707 188.25 85.3473 187.444 85.67C186.637 85.9927 185.728 86.154 184.716 86.154C183.425 86.154 182.288 85.8973 181.306 85.384C180.323 84.8707 179.56 84.1593 179.018 83.25C178.49 82.326 178.226 81.2847 178.226 80.126C178.226 78.982 178.482 77.9553 178.996 77.046C179.524 76.122 180.25 75.4033 181.174 74.89C182.098 74.3767 183.139 74.12 184.298 74.12C185.442 74.12 186.461 74.3767 187.356 74.89C188.265 75.3887 188.969 76.1 189.468 77.024C189.981 77.9333 190.238 78.9893 190.238 80.192ZM184.298 76.32C183.418 76.32 182.67 76.584 182.054 77.112C181.452 77.6253 181.086 78.3147 180.954 79.18H187.62C187.502 78.3293 187.143 77.64 186.542 77.112C185.94 76.584 185.192 76.32 184.298 76.32ZM204.385 69.676V86H201.745V84.482C201.291 85.0393 200.726 85.4573 200.051 85.736C199.391 86.0147 198.658 86.154 197.851 86.154C196.722 86.154 195.703 85.9047 194.793 85.406C193.899 84.9073 193.195 84.2033 192.681 83.294C192.168 82.37 191.911 81.314 191.911 80.126C191.911 78.938 192.168 77.8893 192.681 76.98C193.195 76.0707 193.899 75.3667 194.793 74.868C195.703 74.3693 196.722 74.12 197.851 74.12C198.629 74.12 199.34 74.252 199.985 74.516C200.631 74.78 201.181 75.176 201.635 75.704V69.676H204.385ZM198.181 83.8C198.841 83.8 199.435 83.6533 199.963 83.36C200.491 83.052 200.909 82.6193 201.217 82.062C201.525 81.5047 201.679 80.8593 201.679 80.126C201.679 79.3927 201.525 78.7473 201.217 78.19C200.909 77.6327 200.491 77.2073 199.963 76.914C199.435 76.606 198.841 76.452 198.181 76.452C197.521 76.452 196.927 76.606 196.399 76.914C195.871 77.2073 195.453 77.6327 195.145 78.19C194.837 78.7473 194.683 79.3927 194.683 80.126C194.683 80.8593 194.837 81.5047 195.145 82.062C195.453 82.6193 195.871 83.052 196.399 83.36C196.927 83.6533 197.521 83.8 198.181 83.8ZM207.983 74.252H210.733V86H207.983V74.252ZM209.369 72.316C208.87 72.316 208.452 72.162 208.115 71.854C207.777 71.5313 207.609 71.1353 207.609 70.666C207.609 70.1967 207.777 69.808 208.115 69.5C208.452 69.1773 208.87 69.016 209.369 69.016C209.867 69.016 210.285 69.17 210.623 69.478C210.96 69.7713 211.129 70.1453 211.129 70.6C211.129 71.084 210.96 71.4947 210.623 71.832C210.3 72.1547 209.882 72.316 209.369 72.316ZM221.008 74.12C222.489 74.12 223.677 74.5527 224.572 75.418C225.467 76.2833 225.914 77.5667 225.914 79.268V86H223.164V79.62C223.164 78.5933 222.922 77.8233 222.438 77.31C221.954 76.782 221.265 76.518 220.37 76.518C219.358 76.518 218.559 76.826 217.972 77.442C217.385 78.0433 217.092 78.916 217.092 80.06V86H214.342V74.252H216.96V75.77C217.415 75.2273 217.987 74.8167 218.676 74.538C219.365 74.2593 220.143 74.12 221.008 74.12ZM241.17 74.252V84.218C241.17 88.354 239.058 90.422 234.834 90.422C233.705 90.422 232.634 90.2753 231.622 89.982C230.61 89.7033 229.774 89.2927 229.114 88.75L230.346 86.682C230.859 87.1073 231.505 87.4447 232.282 87.694C233.074 87.958 233.873 88.09 234.68 88.09C235.971 88.09 236.917 87.7967 237.518 87.21C238.119 86.6233 238.42 85.7287 238.42 84.526V83.91C237.951 84.4233 237.379 84.812 236.704 85.076C236.029 85.34 235.289 85.472 234.482 85.472C233.367 85.472 232.355 85.2373 231.446 84.768C230.551 84.284 229.84 83.6093 229.312 82.744C228.799 81.8787 228.542 80.8887 228.542 79.774C228.542 78.6593 228.799 77.6767 229.312 76.826C229.84 75.9607 230.551 75.2933 231.446 74.824C232.355 74.3547 233.367 74.12 234.482 74.12C235.333 74.12 236.103 74.2593 236.792 74.538C237.496 74.8167 238.083 75.242 238.552 75.814V74.252H241.17ZM234.9 83.14C235.941 83.14 236.792 82.832 237.452 82.216C238.127 81.5853 238.464 80.7713 238.464 79.774C238.464 78.7913 238.127 77.992 237.452 77.376C236.792 76.76 235.941 76.452 234.9 76.452C233.844 76.452 232.979 76.76 232.304 77.376C231.644 77.992 231.314 78.7913 231.314 79.774C231.314 80.7713 231.644 81.5853 232.304 82.216C232.979 82.832 233.844 83.14 234.9 83.14Z" fill="#3C3C43"/>
<path d="M138.5 1160L254.5 1160" stroke="black" stroke-width="4" stroke-linecap="round"/>
<path d="M28.72 152.2H24.08V150H35.96V152.2H31.32V164H28.72V152.2ZM47.0072 153.32L42.0072 164.86C41.5405 166.02 40.9739 166.833 40.3072 167.3C39.6405 167.78 38.8339 168.02 37.8872 168.02C37.3539 168.02 36.8272 167.933 36.3072 167.76C35.7872 167.587 35.3605 167.347 35.0272 167.04L36.0272 165.2C36.2672 165.427 36.5472 165.607 36.8672 165.74C37.2005 165.873 37.5339 165.94 37.8672 165.94C38.3072 165.94 38.6672 165.827 38.9472 165.6C39.2405 165.373 39.5072 164.993 39.7472 164.46L39.9272 164.04L35.2672 153.32H37.8672L41.2272 161.22L44.6072 153.32H47.0072ZM54.4897 153.2C55.5297 153.2 56.4564 153.427 57.2697 153.88C58.0964 154.333 58.743 154.973 59.2097 155.8C59.6764 156.627 59.9097 157.58 59.9097 158.66C59.9097 159.74 59.6764 160.7 59.2097 161.54C58.743 162.367 58.0964 163.007 57.2697 163.46C56.4564 163.913 55.5297 164.14 54.4897 164.14C53.0497 164.14 51.9097 163.66 51.0697 162.7V167.88H48.5697V153.32H50.9497V154.72C51.363 154.213 51.8697 153.833 52.4697 153.58C53.083 153.327 53.7564 153.2 54.4897 153.2ZM54.2097 162C55.1297 162 55.883 161.693 56.4697 161.08C57.0697 160.467 57.3697 159.66 57.3697 158.66C57.3697 157.66 57.0697 156.853 56.4697 156.24C55.883 155.627 55.1297 155.32 54.2097 155.32C53.6097 155.32 53.0697 155.46 52.5897 155.74C52.1097 156.007 51.7297 156.393 51.4497 156.9C51.1697 157.407 51.0297 157.993 51.0297 158.66C51.0297 159.327 51.1697 159.913 51.4497 160.42C51.7297 160.927 52.1097 161.32 52.5897 161.6C53.0697 161.867 53.6097 162 54.2097 162ZM72.3206 158.72C72.3206 158.893 72.3073 159.14 72.2806 159.46H63.9006C64.0473 160.247 64.4273 160.873 65.0406 161.34C65.6673 161.793 66.4406 162.02 67.3606 162.02C68.534 162.02 69.5006 161.633 70.2606 160.86L71.6006 162.4C71.1206 162.973 70.514 163.407 69.7806 163.7C69.0473 163.993 68.2206 164.14 67.3006 164.14C66.1273 164.14 65.094 163.907 64.2006 163.44C63.3073 162.973 62.614 162.327 62.1206 161.5C61.6406 160.66 61.4006 159.713 61.4006 158.66C61.4006 157.62 61.634 156.687 62.1006 155.86C62.5806 155.02 63.2406 154.367 64.0806 153.9C64.9206 153.433 65.8673 153.2 66.9206 153.2C67.9606 153.2 68.8873 153.433 69.7006 153.9C70.5273 154.353 71.1673 155 71.6206 155.84C72.0873 156.667 72.3206 157.627 72.3206 158.72ZM66.9206 155.2C66.1206 155.2 65.4406 155.44 64.8806 155.92C64.334 156.387 64.0006 157.013 63.8806 157.8H69.9406C69.834 157.027 69.5073 156.4 68.9606 155.92C68.414 155.44 67.734 155.2 66.9206 155.2Z" fill="#3C3C43"/>
<path d="M25.88 387H28.48V401H25.88V387ZM38.0867 390.2C39.4334 390.2 40.5134 390.593 41.3267 391.38C42.1401 392.167 42.5467 393.333 42.5467 394.88V401H40.0467V395.2C40.0467 394.267 39.8267 393.567 39.3867 393.1C38.9467 392.62 38.3201 392.38 37.5067 392.38C36.5867 392.38 35.8601 392.66 35.3267 393.22C34.7934 393.767 34.5267 394.56 34.5267 395.6V401H32.0267V390.32H34.4067V391.7C34.8201 391.207 35.3401 390.833 35.9667 390.58C36.5934 390.327 37.3001 390.2 38.0867 390.2ZM56.4158 390.32V399.38C56.4158 403.14 54.4958 405.02 50.6558 405.02C49.6291 405.02 48.6558 404.887 47.7358 404.62C46.8158 404.367 46.0558 403.993 45.4558 403.5L46.5758 401.62C47.0424 402.007 47.6291 402.313 48.3358 402.54C49.0558 402.78 49.7824 402.9 50.5158 402.9C51.6891 402.9 52.5491 402.633 53.0958 402.1C53.6424 401.567 53.9158 400.753 53.9158 399.66V399.1C53.4891 399.567 52.9691 399.92 52.3558 400.16C51.7424 400.4 51.0691 400.52 50.3358 400.52C49.3224 400.52 48.4024 400.307 47.5758 399.88C46.7624 399.44 46.1158 398.827 45.6358 398.04C45.1691 397.253 44.9358 396.353 44.9358 395.34C44.9358 394.327 45.1691 393.433 45.6358 392.66C46.1158 391.873 46.7624 391.267 47.5758 390.84C48.4024 390.413 49.3224 390.2 50.3358 390.2C51.1091 390.2 51.8091 390.327 52.4358 390.58C53.0758 390.833 53.6091 391.22 54.0358 391.74V390.32H56.4158ZM50.7158 398.4C51.6624 398.4 52.4358 398.12 53.0358 397.56C53.6491 396.987 53.9558 396.247 53.9558 395.34C53.9558 394.447 53.6491 393.72 53.0358 393.16C52.4358 392.6 51.6624 392.32 50.7158 392.32C49.7558 392.32 48.9691 392.6 48.3558 393.16C47.7558 393.72 47.4558 394.447 47.4558 395.34C47.4558 396.247 47.7558 396.987 48.3558 397.56C48.9691 398.12 49.7558 398.4 50.7158 398.4ZM62.0825 391.88C62.8025 390.76 64.0692 390.2 65.8825 390.2V392.58C65.6692 392.54 65.4758 392.52 65.3025 392.52C64.3292 392.52 63.5692 392.807 63.0225 393.38C62.4758 393.94 62.2025 394.753 62.2025 395.82V401H59.7025V390.32H62.0825V391.88ZM77.9456 395.72C77.9456 395.893 77.9323 396.14 77.9056 396.46H69.5256C69.6723 397.247 70.0523 397.873 70.6656 398.34C71.2923 398.793 72.0656 399.02 72.9856 399.02C74.159 399.02 75.1256 398.633 75.8856 397.86L77.2256 399.4C76.7456 399.973 76.139 400.407 75.4056 400.7C74.6723 400.993 73.8456 401.14 72.9256 401.14C71.7523 401.14 70.719 400.907 69.8256 400.44C68.9323 399.973 68.239 399.327 67.7456 398.5C67.2656 397.66 67.0256 396.713 67.0256 395.66C67.0256 394.62 67.259 393.687 67.7256 392.86C68.2056 392.02 68.8656 391.367 69.7056 390.9C70.5456 390.433 71.4923 390.2 72.5456 390.2C73.5856 390.2 74.5123 390.433 75.3256 390.9C76.1523 391.353 76.7923 392 77.2456 392.84C77.7123 393.667 77.9456 394.627 77.9456 395.72ZM72.5456 392.2C71.7456 392.2 71.0656 392.44 70.5056 392.92C69.959 393.387 69.6256 394.013 69.5056 394.8H75.5656C75.459 394.027 75.1323 393.4 74.5856 392.92C74.039 392.44 73.359 392.2 72.5456 392.2ZM90.807 386.16V401H88.407V399.62C87.9937 400.127 87.4804 400.507 86.867 400.76C86.267 401.013 85.6004 401.14 84.867 401.14C83.8404 401.14 82.9137 400.913 82.087 400.46C81.2737 400.007 80.6337 399.367 80.167 398.54C79.7004 397.7 79.467 396.74 79.467 395.66C79.467 394.58 79.7004 393.627 80.167 392.8C80.6337 391.973 81.2737 391.333 82.087 390.88C82.9137 390.427 83.8404 390.2 84.867 390.2C85.5737 390.2 86.2204 390.32 86.807 390.56C87.3937 390.8 87.8937 391.16 88.307 391.64V386.16H90.807ZM85.167 399C85.767 399 86.307 398.867 86.787 398.6C87.267 398.32 87.647 397.927 87.927 397.42C88.207 396.913 88.347 396.327 88.347 395.66C88.347 394.993 88.207 394.407 87.927 393.9C87.647 393.393 87.267 393.007 86.787 392.74C86.307 392.46 85.767 392.32 85.167 392.32C84.567 392.32 84.027 392.46 83.547 392.74C83.067 393.007 82.687 393.393 82.407 393.9C82.127 394.407 81.987 394.993 81.987 395.66C81.987 396.327 82.127 396.913 82.407 397.42C82.687 397.927 83.067 398.32 83.547 398.6C84.027 398.867 84.567 399 85.167 399ZM94.0775 390.32H96.5775V401H94.0775V390.32ZM95.3375 388.56C94.8842 388.56 94.5042 388.42 94.1975 388.14C93.8908 387.847 93.7375 387.487 93.7375 387.06C93.7375 386.633 93.8908 386.28 94.1975 386C94.5042 385.707 94.8842 385.56 95.3375 385.56C95.7908 385.56 96.1708 385.7 96.4775 385.98C96.7842 386.247 96.9375 386.587 96.9375 387C96.9375 387.44 96.7842 387.813 96.4775 388.12C96.1842 388.413 95.8042 388.56 95.3375 388.56ZM109.899 395.72C109.899 395.893 109.885 396.14 109.859 396.46H101.479C101.625 397.247 102.005 397.873 102.619 398.34C103.245 398.793 104.019 399.02 104.939 399.02C106.112 399.02 107.079 398.633 107.839 397.86L109.179 399.4C108.699 399.973 108.092 400.407 107.359 400.7C106.625 400.993 105.799 401.14 104.879 401.14C103.705 401.14 102.672 400.907 101.779 400.44C100.885 399.973 100.192 399.327 99.6988 398.5C99.2188 397.66 98.9788 396.713 98.9788 395.66C98.9788 394.62 99.2121 393.687 99.6788 392.86C100.159 392.02 100.819 391.367 101.659 390.9C102.499 390.433 103.445 390.2 104.499 390.2C105.539 390.2 106.465 390.433 107.279 390.9C108.105 391.353 108.745 392 109.199 392.84C109.665 393.667 109.899 394.627 109.899 395.72ZM104.499 392.2C103.699 392.2 103.019 392.44 102.459 392.92C101.912 393.387 101.579 394.013 101.459 394.8H107.519C107.412 394.027 107.085 393.4 106.539 392.92C105.992 392.44 105.312 392.2 104.499 392.2ZM118.36 390.2C119.707 390.2 120.787 390.593 121.6 391.38C122.413 392.167 122.82 393.333 122.82 394.88V401H120.32V395.2C120.32 394.267 120.1 393.567 119.66 393.1C119.22 392.62 118.593 392.38 117.78 392.38C116.86 392.38 116.133 392.66 115.6 393.22C115.067 393.767 114.8 394.56 114.8 395.6V401H112.3V390.32H114.68V391.7C115.093 391.207 115.613 390.833 116.24 390.58C116.867 390.327 117.573 390.2 118.36 390.2ZM132.412 400.42C132.118 400.66 131.758 400.84 131.332 400.96C130.918 401.08 130.478 401.14 130.012 401.14C128.838 401.14 127.932 400.833 127.292 400.22C126.652 399.607 126.332 398.713 126.332 397.54V392.4H124.572V390.4H126.332V387.96H128.832V390.4H131.692V392.4H128.832V397.48C128.832 398 128.958 398.4 129.212 398.68C129.465 398.947 129.832 399.08 130.312 399.08C130.872 399.08 131.338 398.933 131.712 398.64L132.412 400.42ZM137.768 401.14C136.901 401.14 136.055 401.027 135.228 400.8C134.401 400.573 133.741 400.287 133.248 399.94L134.208 398.04C134.688 398.36 135.261 398.62 135.928 398.82C136.608 399.007 137.275 399.1 137.928 399.1C139.421 399.1 140.168 398.707 140.168 397.92C140.168 397.547 139.975 397.287 139.588 397.14C139.215 396.993 138.608 396.853 137.768 396.72C136.888 396.587 136.168 396.433 135.608 396.26C135.061 396.087 134.581 395.787 134.168 395.36C133.768 394.92 133.568 394.313 133.568 393.54C133.568 392.527 133.988 391.72 134.828 391.12C135.681 390.507 136.828 390.2 138.268 390.2C139.001 390.2 139.735 390.287 140.468 390.46C141.201 390.62 141.801 390.84 142.268 391.12L141.308 393.02C140.401 392.487 139.381 392.22 138.248 392.22C137.515 392.22 136.955 392.333 136.568 392.56C136.195 392.773 136.008 393.06 136.008 393.42C136.008 393.82 136.208 394.107 136.608 394.28C137.021 394.44 137.655 394.593 138.508 394.74C139.361 394.873 140.061 395.027 140.608 395.2C141.155 395.373 141.621 395.667 142.008 396.08C142.408 396.493 142.608 397.08 142.608 397.84C142.608 398.84 142.175 399.64 141.308 400.24C140.441 400.84 139.261 401.14 137.768 401.14ZM152.768 404.88C151.982 403.667 151.375 402.26 150.948 400.66C150.535 399.06 150.328 397.347 150.328 395.52C150.328 393.693 150.535 391.98 150.948 390.38C151.375 388.767 151.982 387.36 152.768 386.16H155.148C154.335 387.6 153.735 389.087 153.348 390.62C152.975 392.14 152.788 393.773 152.788 395.52C152.788 397.267 152.975 398.907 153.348 400.44C153.735 401.96 154.335 403.44 155.148 404.88H152.768ZM162.022 401.14C160.942 401.14 159.969 400.907 159.102 400.44C158.235 399.973 157.555 399.327 157.062 398.5C156.582 397.66 156.342 396.713 156.342 395.66C156.342 394.607 156.582 393.667 157.062 392.84C157.555 392.013 158.235 391.367 159.102 390.9C159.969 390.433 160.942 390.2 162.022 390.2C163.115 390.2 164.095 390.433 164.962 390.9C165.829 391.367 166.502 392.013 166.982 392.84C167.475 393.667 167.722 394.607 167.722 395.66C167.722 396.713 167.475 397.66 166.982 398.5C166.502 399.327 165.829 399.973 164.962 400.44C164.095 400.907 163.115 401.14 162.022 401.14ZM162.022 399C162.942 399 163.702 398.693 164.302 398.08C164.902 397.467 165.202 396.66 165.202 395.66C165.202 394.66 164.902 393.853 164.302 393.24C163.702 392.627 162.942 392.32 162.022 392.32C161.102 392.32 160.342 392.627 159.742 393.24C159.155 393.853 158.862 394.66 158.862 395.66C158.862 396.66 159.155 397.467 159.742 398.08C160.342 398.693 161.102 399 162.022 399ZM176.033 390.2C177.073 390.2 177.999 390.427 178.813 390.88C179.639 391.333 180.286 391.973 180.753 392.8C181.219 393.627 181.453 394.58 181.453 395.66C181.453 396.74 181.219 397.7 180.753 398.54C180.286 399.367 179.639 400.007 178.813 400.46C177.999 400.913 177.073 401.14 176.033 401.14C174.593 401.14 173.453 400.66 172.613 399.7V404.88H170.113V390.32H172.493V391.72C172.906 391.213 173.413 390.833 174.013 390.58C174.626 390.327 175.299 390.2 176.033 390.2ZM175.753 399C176.673 399 177.426 398.693 178.013 398.08C178.613 397.467 178.913 396.66 178.913 395.66C178.913 394.66 178.613 393.853 178.013 393.24C177.426 392.627 176.673 392.32 175.753 392.32C175.153 392.32 174.613 392.46 174.133 392.74C173.653 393.007 173.273 393.393 172.993 393.9C172.713 394.407 172.573 394.993 172.573 395.66C172.573 396.327 172.713 396.913 172.993 397.42C173.273 397.927 173.653 398.32 174.133 398.6C174.613 398.867 175.153 399 175.753 399ZM190.244 400.42C189.95 400.66 189.59 400.84 189.164 400.96C188.75 401.08 188.31 401.14 187.844 401.14C186.67 401.14 185.764 400.833 185.124 400.22C184.484 399.607 184.164 398.713 184.164 397.54V392.4H182.404V390.4H184.164V387.96H186.664V390.4H189.524V392.4H186.664V397.48C186.664 398 186.79 398.4 187.044 398.68C187.297 398.947 187.664 399.08 188.144 399.08C188.704 399.08 189.17 398.933 189.544 398.64L190.244 400.42ZM192.3 390.32H194.8V401H192.3V390.32ZM193.56 388.56C193.107 388.56 192.727 388.42 192.42 388.14C192.113 387.847 191.96 387.487 191.96 387.06C191.96 386.633 192.113 386.28 192.42 386C192.727 385.707 193.107 385.56 193.56 385.56C194.013 385.56 194.393 385.7 194.7 385.98C195.007 386.247 195.16 386.587 195.16 387C195.16 387.44 195.007 387.813 194.7 388.12C194.407 388.413 194.027 388.56 193.56 388.56ZM202.881 401.14C201.801 401.14 200.828 400.907 199.961 400.44C199.095 399.973 198.415 399.327 197.921 398.5C197.441 397.66 197.201 396.713 197.201 395.66C197.201 394.607 197.441 393.667 197.921 392.84C198.415 392.013 199.095 391.367 199.961 390.9C200.828 390.433 201.801 390.2 202.881 390.2C203.975 390.2 204.955 390.433 205.821 390.9C206.688 391.367 207.361 392.013 207.841 392.84C208.335 393.667 208.581 394.607 208.581 395.66C208.581 396.713 208.335 397.66 207.841 398.5C207.361 399.327 206.688 399.973 205.821 400.44C204.955 400.907 203.975 401.14 202.881 401.14ZM202.881 399C203.801 399 204.561 398.693 205.161 398.08C205.761 397.467 206.061 396.66 206.061 395.66C206.061 394.66 205.761 393.853 205.161 393.24C204.561 392.627 203.801 392.32 202.881 392.32C201.961 392.32 201.201 392.627 200.601 393.24C200.015 393.853 199.721 394.66 199.721 395.66C199.721 396.66 200.015 397.467 200.601 398.08C201.201 398.693 201.961 399 202.881 399ZM217.032 390.2C218.379 390.2 219.459 390.593 220.272 391.38C221.085 392.167 221.492 393.333 221.492 394.88V401H218.992V395.2C218.992 394.267 218.772 393.567 218.332 393.1C217.892 392.62 217.265 392.38 216.452 392.38C215.532 392.38 214.805 392.66 214.272 393.22C213.739 393.767 213.472 394.56 213.472 395.6V401H210.972V390.32H213.352V391.7C213.765 391.207 214.285 390.833 214.912 390.58C215.539 390.327 216.245 390.2 217.032 390.2ZM228.743 390.2C230.317 390.2 231.517 390.58 232.343 391.34C233.183 392.087 233.603 393.22 233.603 394.74V401H231.243V399.7C230.937 400.167 230.497 400.527 229.923 400.78C229.363 401.02 228.683 401.14 227.883 401.14C227.083 401.14 226.383 401.007 225.783 400.74C225.183 400.46 224.717 400.08 224.383 399.6C224.063 399.107 223.903 398.553 223.903 397.94C223.903 396.98 224.257 396.213 224.963 395.64C225.683 395.053 226.81 394.76 228.343 394.76H231.103V394.6C231.103 393.853 230.877 393.28 230.423 392.88C229.983 392.48 229.323 392.28 228.443 392.28C227.843 392.28 227.25 392.373 226.663 392.56C226.09 392.747 225.603 393.007 225.203 393.34L224.223 391.52C224.783 391.093 225.457 390.767 226.243 390.54C227.03 390.313 227.863 390.2 228.743 390.2ZM228.403 399.32C229.03 399.32 229.583 399.18 230.063 398.9C230.557 398.607 230.903 398.193 231.103 397.66V396.42H228.523C227.083 396.42 226.363 396.893 226.363 397.84C226.363 398.293 226.543 398.653 226.903 398.92C227.263 399.187 227.763 399.32 228.403 399.32ZM236.812 386.16H239.312V401H236.812V386.16ZM241.393 404.88C242.206 403.44 242.806 401.953 243.193 400.42C243.58 398.887 243.773 397.253 243.773 395.52C243.773 393.787 243.58 392.153 243.193 390.62C242.806 389.087 242.206 387.6 241.393 386.16H243.773C244.56 387.347 245.16 388.747 245.573 390.36C246 391.96 246.213 393.68 246.213 395.52C246.213 397.36 246 399.08 245.573 400.68C245.16 402.267 244.56 403.667 243.773 404.88H241.393Z" fill="#3C3C43"/>
<path d="M34.96 540.76H27.96L26.58 544H23.9L30.2 530H32.76L39.08 544H36.36L34.96 540.76ZM34.1 538.72L31.46 532.6L28.84 538.72H34.1ZM54.1005 533.2C55.4471 533.2 56.5138 533.593 57.3005 534.38C58.0871 535.153 58.4805 536.32 58.4805 537.88V544H55.9805V538.2C55.9805 537.267 55.7738 536.567 55.3605 536.1C54.9471 535.62 54.3538 535.38 53.5805 535.38C52.7405 535.38 52.0671 535.66 51.5605 536.22C51.0538 536.767 50.8005 537.553 50.8005 538.58V544H48.3005V538.2C48.3005 537.267 48.0938 536.567 47.6805 536.1C47.2671 535.62 46.6738 535.38 45.9005 535.38C45.0471 535.38 44.3671 535.653 43.8605 536.2C43.3671 536.747 43.1205 537.54 43.1205 538.58V544H40.6205V533.32H43.0005V534.68C43.4005 534.2 43.9005 533.833 44.5005 533.58C45.1005 533.327 45.7671 533.2 46.5005 533.2C47.3005 533.2 48.0071 533.353 48.6205 533.66C49.2471 533.953 49.7405 534.393 50.1005 534.98C50.5405 534.42 51.1071 533.987 51.8005 533.68C52.4938 533.36 53.2605 533.2 54.1005 533.2ZM66.5728 544.14C65.4928 544.14 64.5195 543.907 63.6528 543.44C62.7861 542.973 62.1061 542.327 61.6128 541.5C61.1328 540.66 60.8928 539.713 60.8928 538.66C60.8928 537.607 61.1328 536.667 61.6128 535.84C62.1061 535.013 62.7861 534.367 63.6528 533.9C64.5195 533.433 65.4928 533.2 66.5728 533.2C67.6661 533.2 68.6461 533.433 69.5128 533.9C70.3795 534.367 71.0528 535.013 71.5328 535.84C72.0261 536.667 72.2728 537.607 72.2728 538.66C72.2728 539.713 72.0261 540.66 71.5328 541.5C71.0528 542.327 70.3795 542.973 69.5128 543.44C68.6461 543.907 67.6661 544.14 66.5728 544.14ZM66.5728 542C67.4928 542 68.2528 541.693 68.8528 541.08C69.4528 540.467 69.7528 539.66 69.7528 538.66C69.7528 537.66 69.4528 536.853 68.8528 536.24C68.2528 535.627 67.4928 535.32 66.5728 535.32C65.6528 535.32 64.8928 535.627 64.2928 536.24C63.7061 536.853 63.4128 537.66 63.4128 538.66C63.4128 539.66 63.7061 540.467 64.2928 541.08C64.8928 541.693 65.6528 542 66.5728 542ZM85.0034 533.32V544H82.6234V542.64C82.2234 543.12 81.7234 543.493 81.1234 543.76C80.5234 544.013 79.8768 544.14 79.1834 544.14C77.7568 544.14 76.6301 543.747 75.8034 542.96C74.9901 542.16 74.5834 540.98 74.5834 539.42V533.32H77.0834V539.08C77.0834 540.04 77.2968 540.76 77.7234 541.24C78.1634 541.707 78.7834 541.94 79.5834 541.94C80.4768 541.94 81.1834 541.667 81.7034 541.12C82.2368 540.56 82.5034 539.76 82.5034 538.72V533.32H85.0034ZM94.3367 533.2C95.6834 533.2 96.7634 533.593 97.5767 534.38C98.3901 535.167 98.7967 536.333 98.7967 537.88V544H96.2967V538.2C96.2967 537.267 96.0767 536.567 95.6367 536.1C95.1967 535.62 94.5701 535.38 93.7567 535.38C92.8367 535.38 92.1101 535.66 91.5767 536.22C91.0434 536.767 90.7767 537.56 90.7767 538.6V544H88.2767V533.32H90.6567V534.7C91.0701 534.207 91.5901 533.833 92.2167 533.58C92.8434 533.327 93.5501 533.2 94.3367 533.2ZM108.388 543.42C108.095 543.66 107.735 543.84 107.308 543.96C106.895 544.08 106.455 544.14 105.988 544.14C104.815 544.14 103.908 543.833 103.268 543.22C102.628 542.607 102.308 541.713 102.308 540.54V535.4H100.548V533.4H102.308V530.96H104.808V533.4H107.668V535.4H104.808V540.48C104.808 541 104.935 541.4 105.188 541.68C105.441 541.947 105.808 542.08 106.288 542.08C106.848 542.08 107.315 541.933 107.688 541.64L108.388 543.42Z" fill="#3C3C43"/>
<rect x="303" y="523" width="66.1057" height="27" rx="13.5" fill="#F5F6FA"/>
<path d="M324.886 535.029H315" stroke="#6078E0" stroke-width="1.3" stroke-linecap="round" stroke-linejoin="round"/>
<path d="M321.591 531.5L324.886 535.029" stroke="#6078E0" stroke-width="1.3" stroke-linecap="round" stroke-linejoin="round"/>
<path d="M315.219 537.971H325.105" stroke="#6078E0" stroke-width="1.3" stroke-linecap="round" stroke-linejoin="round"/>
<path d="M315.219 537.971L318.515 541.5" stroke="#6078E0" stroke-width="1.3" stroke-linecap="round" stroke-linejoin="round"/>
<path d="M335.072 533.224C334.44 533.224 334.124 533.568 334.124 534.256V534.64H335.888V535.84H334.172V541H332.672V535.84H331.616V534.64H332.672V534.232C332.672 533.544 332.872 533.004 333.272 532.612C333.672 532.212 334.236 532.012 334.964 532.012C335.54 532.012 335.992 532.128 336.32 532.36L335.9 533.488C335.644 533.312 335.368 533.224 335.072 533.224ZM336.896 532.096H338.396V541H336.896V532.096ZM346.563 541.084C345.915 541.084 345.331 540.944 344.811 540.664C344.291 540.384 343.883 539.996 343.587 539.5C343.299 538.996 343.155 538.428 343.155 537.796C343.155 537.164 343.299 536.6 343.587 536.104C343.883 535.608 344.291 535.22 344.811 534.94C345.331 534.66 345.915 534.52 346.563 534.52C347.219 534.52 347.807 534.66 348.327 534.94C348.847 535.22 349.251 535.608 349.539 536.104C349.835 536.6 349.983 537.164 349.983 537.796C349.983 538.428 349.835 538.996 349.539 539.5C349.251 539.996 348.847 540.384 348.327 540.664C347.807 540.944 347.219 541.084 346.563 541.084ZM346.563 539.8C347.115 539.8 347.571 539.616 347.931 539.248C348.291 538.88 348.471 538.396 348.471 537.796C348.471 537.196 348.291 536.712 347.931 536.344C347.571 535.976 347.115 535.792 346.563 535.792C346.011 535.792 345.555 535.976 345.195 536.344C344.843 536.712 344.667 537.196 344.667 537.796C344.667 538.396 344.843 538.88 345.195 539.248C345.555 539.616 346.011 539.8 346.563 539.8ZM356.328 539.8V541H350.796V540.052L354.312 535.792H350.868V534.592H356.232V535.54L352.704 539.8H356.328Z" fill="#6078E0"/>
<path d="M23.4034 26.792L27.9634 19.672H30.1394V26.968H31.7874V28.696H30.1394V31H28.2194V28.696H23.4034V26.792ZM28.1874 22.392L25.3554 26.968H28.2194V22.392H28.1874ZM34.6961 23.208C35.3521 23.208 35.9761 23.704 35.9761 24.424C35.9761 25.128 35.4001 25.672 34.6961 25.672C34.0241 25.672 33.4161 25.128 33.4161 24.456C33.4161 23.768 34.0081 23.208 34.6961 23.208ZM34.6961 28.632C35.3681 28.632 35.9761 29.144 35.9761 29.848C35.9761 30.568 35.3841 31.096 34.6961 31.096C34.0241 31.096 33.4161 30.568 33.4161 29.88C33.4161 29.192 34.0081 28.632 34.6961 28.632ZM41.9265 19.48C44.1185 19.48 45.5905 20.648 45.5905 22.696C45.5905 23.88 45.0945 24.872 43.8625 26.008L40.3425 29.272H45.5905V31H38.0065V28.968L42.4065 24.712C43.3505 23.8 43.5745 23.336 43.5745 22.792C43.5745 21.864 42.8225 21.304 41.9265 21.304C40.9985 21.304 40.3105 21.912 40.1825 22.84L38.1665 22.68C38.3745 20.584 39.8465 19.48 41.9265 19.48ZM51.2673 19.48C53.8433 19.48 55.3633 21.464 55.3633 25.336C55.3633 29.192 53.8593 31.192 51.2673 31.192C48.6753 31.192 47.1713 29.192 47.1713 25.336C47.1713 21.464 48.6913 19.48 51.2673 19.48ZM49.0913 25.336C49.0913 27.768 49.7953 29.368 51.2673 29.368C52.7073 29.368 53.4433 27.848 53.4433 25.336C53.4433 22.792 52.7073 21.304 51.2513 21.304C49.8593 21.304 49.0913 22.776 49.0913 25.336Z" fill="#3C3C43"/>
<g filter="url(#filter0_b_413_289)">
<g clip-path="url(#clip1_413_289)">
<rect opacity="0.2" x="319.5" y="21.5" width="3.5" height="11.5" rx="1" fill="#3C3C43"/>
<path d="M314.5 25C314.5 24.4477 314.948 24 315.5 24H317C317.552 24 318 24.4477 318 25V32C318 32.5523 317.552 33 317 33H315.5C314.948 33 314.5 32.5523 314.5 32V25Z" fill="#3C3C43"/>
<path d="M309.5 27.5C309.5 26.9477 309.948 26.5 310.5 26.5H312C312.552 26.5 313 26.9477 313 27.5V32C313 32.5523 312.552 33 312 33H310.5C309.948 33 309.5 32.5523 309.5 32V27.5Z" fill="#3C3C43"/>
<path d="M304.5 29.5C304.5 28.9477 304.948 28.5 305.5 28.5H307C307.552 28.5 308 28.9477 308 29.5V32C308 32.5523 307.552 33 307 33H305.5C304.948 33 304.5 32.5523 304.5 32V29.5Z" fill="#3C3C43"/>
<path d="M338.325 30.789C338.39 30.7255 338.426 30.638 338.424 30.5473C338.422 30.4566 338.383 30.3706 338.316 30.3098C336.979 29.1783 335.022 29.1783 333.686 30.3098C333.618 30.3706 333.579 30.4565 333.577 30.5472C333.575 30.6379 333.611 30.7254 333.676 30.789L335.768 32.9029C335.83 32.965 335.913 33 336.001 33C336.088 33 336.171 32.965 336.233 32.9029L338.325 30.789Z" fill="#3C3C43"/>
<path d="M336 27.869C337.276 27.8689 338.506 28.3435 339.451 29.2005C339.579 29.3221 339.781 29.3195 339.905 29.1946L341.115 27.9711C341.179 27.9069 341.214 27.8198 341.213 27.7293C341.212 27.6389 341.175 27.5526 341.11 27.4897C338.231 24.8088 333.772 24.8088 330.893 27.4897C330.828 27.5526 330.791 27.6389 330.79 27.7294C330.789 27.8199 330.825 27.907 330.889 27.9711L332.098 29.1946C332.222 29.3195 332.424 29.3221 332.552 29.2005C333.497 28.344 334.726 27.8695 336 27.869Z" fill="#3C3C43"/>
<path opacity="0.2" d="M336 23.8883C338.322 23.8884 340.555 24.7813 342.237 26.3825C342.364 26.5061 342.566 26.5045 342.691 26.379L343.902 25.1555C343.965 25.0918 344.001 25.0055 344 24.9158C343.999 24.826 343.963 24.7402 343.899 24.6772C339.483 20.4409 332.517 20.4409 328.101 24.6772C328.037 24.7401 328.001 24.826 328 24.9157C327.999 25.0055 328.035 25.0917 328.098 25.1555L329.309 26.379C329.434 26.5047 329.637 26.5063 329.763 26.3825C331.446 24.7812 333.679 23.8883 336 23.8883Z" fill="#3C3C43"/>
<g clip-path="url(#clip2_413_289)">
<path d="M350 24.25C350 23.5596 350.56 23 351.25 23H352V31.5H351.25C350.56 31.5 350 30.9404 350 30.25V24.25Z" fill="#3C3C43"/>
<path d="M352 23H354V31.5H352V23Z" fill="#3C3C43"/>
<path d="M354 23H356V31.5H354V23Z" fill="#3C3C43"/>
<path d="M356 23H358V31.5H356V23Z" fill="#3C3C43"/>
<path d="M358 23H360V31.5H358V23Z" fill="#3C3C43"/>
<path d="M360 23H362V31.5H360V23Z" fill="#3C3C43"/>
<path d="M362 23H364V31.5H362V23Z" fill="#3C3C43"/>
<path d="M366 24.25C366 23.5596 365.44 23 364.75 23H364V31.5H364.75C365.44 31.5 366 30.9404 366 30.25V24.25Z" fill="#3C3C43"/>
</g>
<g opacity="0.5">
<path fill-rule="evenodd" clip-rule="evenodd" d="M348 24C348 22.3431 349.343 21 351 21H369C370.657 21 372 22.3431 372 24V30.5C372 32.1569 370.657 33.5 369 33.5H351C349.343 33.5 348 32.1569 348 30.5V24ZM351 22C349.895 22 349 22.8954 349 24V30.5C349 31.6046 349.895 32.5 351 32.5H369C370.105 32.5 371 31.6046 371 30.5V24C371 22.8954 370.105 22 369 22H351Z" fill="#3C3C43"/>
<path d="M373 29.542C373.883 29.1562 374.5 28.2751 374.5 27.25C374.5 26.2248 373.883 25.3438 373 24.958V29.542Z" fill="#3C3C43"/>
</g>
</g>
</g>
</g>
<defs>
<filter id="filter0_b_413_289" x="248" y="-37.5" width="184" height="128" filterUnits="userSpaceOnUse" color-interpolation-filters="sRGB">
<feFlood flood-opacity="0" result="BackgroundImageFix"/>
<feGaussianBlur in="BackgroundImageFix" stdDeviation="28"/>
<feComposite in2="SourceAlpha" operator="in" result="effect1_backgroundBlur_413_289"/>
<feBlend mode="normal" in="SourceGraphic" in2="effect1_backgroundBlur_413_289" result="shape"/>
</filter>
<clipPath id="clip0_413_289">
<rect width="393" height="1169" fill="white"/>
</clipPath>
<clipPath id="clip1_413_289">
<rect width="72" height="16" fill="white" transform="translate(304 18.5)"/>
</clipPath>
<clipPath id="clip2_413_289">
<rect width="16" height="8.5" fill="white" transform="translate(350 23)"/>
</clipPath>
</defs>
</svg>
