<svg width="393" height="1009" viewBox="0 0 393 1009" fill="none" xmlns="http://www.w3.org/2000/svg">
<g clip-path="url(#clip0_426_762)">
<rect width="393" height="1009" fill="white"/>
<mask id="path-1-inside-1_426_762" fill="white">
<path d="M0 0H393V110H0V0Z"/>
</mask>
<path d="M0 0H393V110H0V0Z" fill="white"/>
<path d="M393 109H0V111H393V109Z" fill="#3C3C43" fill-opacity="0.3" mask="url(#path-1-inside-1_426_762)"/>
<path d="M172.018 86.22C170.83 86.22 169.678 86.0513 168.564 85.714C167.464 85.3767 166.591 84.9293 165.946 84.372L166.936 82.15C167.566 82.6487 168.336 83.0593 169.246 83.382C170.17 83.69 171.094 83.844 172.018 83.844C173.162 83.844 174.012 83.6607 174.57 83.294C175.142 82.9273 175.428 82.4433 175.428 81.842C175.428 81.402 175.266 81.0427 174.944 80.764C174.636 80.4707 174.24 80.2433 173.756 80.082C173.272 79.9207 172.612 79.7373 171.776 79.532C170.602 79.2533 169.649 78.9747 168.916 78.696C168.197 78.4173 167.574 77.9847 167.046 77.398C166.532 76.7967 166.276 75.99 166.276 74.978C166.276 74.1273 166.503 73.3573 166.958 72.668C167.427 71.964 168.124 71.4067 169.048 70.996C169.986 70.5853 171.13 70.38 172.48 70.38C173.418 70.38 174.342 70.4973 175.252 70.732C176.161 70.9667 176.946 71.304 177.606 71.744L176.704 73.966C176.029 73.57 175.325 73.2693 174.592 73.064C173.858 72.8587 173.147 72.756 172.458 72.756C171.328 72.756 170.485 72.9467 169.928 73.328C169.385 73.7093 169.114 74.2153 169.114 74.846C169.114 75.286 169.268 75.6453 169.576 75.924C169.898 76.2027 170.302 76.4227 170.786 76.584C171.27 76.7453 171.93 76.9287 172.766 77.134C173.91 77.398 174.848 77.6767 175.582 77.97C176.315 78.2487 176.938 78.6813 177.452 79.268C177.98 79.8547 178.244 80.6467 178.244 81.644C178.244 82.4947 178.009 83.2647 177.54 83.954C177.085 84.6433 176.388 85.1933 175.45 85.604C174.511 86.0147 173.367 86.22 172.018 86.22ZM180.816 69.676H183.566V86H180.816V69.676ZM198.219 80.192C198.219 80.3827 198.204 80.654 198.175 81.006H188.957C189.118 81.8713 189.536 82.5607 190.211 83.074C190.9 83.5727 191.751 83.822 192.763 83.822C194.054 83.822 195.117 83.3967 195.953 82.546L197.427 84.24C196.899 84.8707 196.232 85.3473 195.425 85.67C194.618 85.9927 193.709 86.154 192.697 86.154C191.406 86.154 190.27 85.8973 189.287 85.384C188.304 84.8707 187.542 84.1593 186.999 83.25C186.471 82.326 186.207 81.2847 186.207 80.126C186.207 78.982 186.464 77.9553 186.977 77.046C187.505 76.122 188.231 75.4033 189.155 74.89C190.079 74.3767 191.12 74.12 192.279 74.12C193.423 74.12 194.442 74.3767 195.337 74.89C196.246 75.3887 196.95 76.1 197.449 77.024C197.962 77.9333 198.219 78.9893 198.219 80.192ZM192.279 76.32C191.399 76.32 190.651 76.584 190.035 77.112C189.434 77.6253 189.067 78.3147 188.935 79.18H195.601C195.484 78.3293 195.124 77.64 194.523 77.112C193.922 76.584 193.174 76.32 192.279 76.32ZM211.905 80.192C211.905 80.3827 211.89 80.654 211.861 81.006H202.643C202.804 81.8713 203.222 82.5607 203.897 83.074C204.586 83.5727 205.437 83.822 206.449 83.822C207.739 83.822 208.803 83.3967 209.639 82.546L211.113 84.24C210.585 84.8707 209.917 85.3473 209.111 85.67C208.304 85.9927 207.395 86.154 206.383 86.154C205.092 86.154 203.955 85.8973 202.973 85.384C201.99 84.8707 201.227 84.1593 200.685 83.25C200.157 82.326 199.893 81.2847 199.893 80.126C199.893 78.982 200.149 77.9553 200.663 77.046C201.191 76.122 201.917 75.4033 202.841 74.89C203.765 74.3767 204.806 74.12 205.965 74.12C207.109 74.12 208.128 74.3767 209.023 74.89C209.932 75.3887 210.636 76.1 211.135 77.024C211.648 77.9333 211.905 78.9893 211.905 80.192ZM205.965 76.32C205.085 76.32 204.337 76.584 203.721 77.112C203.119 77.6253 202.753 78.3147 202.621 79.18H209.287C209.169 78.3293 208.81 77.64 208.209 77.112C207.607 76.584 206.859 76.32 205.965 76.32ZM221.058 74.12C222.202 74.12 223.222 74.3693 224.116 74.868C225.026 75.3667 225.737 76.0707 226.25 76.98C226.764 77.8893 227.02 78.938 227.02 80.126C227.02 81.314 226.764 82.37 226.25 83.294C225.737 84.2033 225.026 84.9073 224.116 85.406C223.222 85.9047 222.202 86.154 221.058 86.154C219.474 86.154 218.22 85.626 217.296 84.57V90.268H214.546V74.252H217.164V75.792C217.619 75.2347 218.176 74.8167 218.836 74.538C219.511 74.2593 220.252 74.12 221.058 74.12ZM220.75 83.8C221.762 83.8 222.591 83.4627 223.236 82.788C223.896 82.1133 224.226 81.226 224.226 80.126C224.226 79.026 223.896 78.1387 223.236 77.464C222.591 76.7893 221.762 76.452 220.75 76.452C220.09 76.452 219.496 76.606 218.968 76.914C218.44 77.2073 218.022 77.6327 217.714 78.19C217.406 78.7473 217.252 79.3927 217.252 80.126C217.252 80.8593 217.406 81.5047 217.714 82.062C218.022 82.6193 218.44 83.052 218.968 83.36C219.496 83.6533 220.09 83.8 220.75 83.8Z" fill="#3C3C43"/>
<path d="M47.34 150L42.7 164H39.94L36.48 153.64L32.96 164H30.18L25.54 150H28.24L31.72 160.64L35.34 150H37.74L41.28 160.7L44.86 150H47.34ZM55.5711 153.2C56.9178 153.2 57.9978 153.593 58.8111 154.38C59.6244 155.167 60.0311 156.333 60.0311 157.88V164H57.5311V158.2C57.5311 157.267 57.3111 156.567 56.8711 156.1C56.4311 155.62 55.8044 155.38 54.9911 155.38C54.0711 155.38 53.3444 155.66 52.8111 156.22C52.2778 156.767 52.0111 157.56 52.0111 158.6V164H49.5111V149.16H52.0111V154.56C52.4244 154.12 52.9311 153.787 53.5311 153.56C54.1444 153.32 54.8244 153.2 55.5711 153.2ZM73.3402 158.72C73.3402 158.893 73.3268 159.14 73.3002 159.46H64.9202C65.0668 160.247 65.4468 160.873 66.0602 161.34C66.6868 161.793 67.4602 162.02 68.3802 162.02C69.5535 162.02 70.5202 161.633 71.2802 160.86L72.6202 162.4C72.1402 162.973 71.5335 163.407 70.8002 163.7C70.0668 163.993 69.2402 164.14 68.3202 164.14C67.1468 164.14 66.1135 163.907 65.2202 163.44C64.3268 162.973 63.6335 162.327 63.1402 161.5C62.6602 160.66 62.4202 159.713 62.4202 158.66C62.4202 157.62 62.6535 156.687 63.1202 155.86C63.6002 155.02 64.2602 154.367 65.1002 153.9C65.9402 153.433 66.8868 153.2 67.9402 153.2C68.9802 153.2 69.9068 153.433 70.7202 153.9C71.5468 154.353 72.1868 155 72.6402 155.84C73.1068 156.667 73.3402 157.627 73.3402 158.72ZM67.9402 155.2C67.1402 155.2 66.4602 155.44 65.9002 155.92C65.3535 156.387 65.0202 157.013 64.9002 157.8H70.9602C70.8535 157.027 70.5268 156.4 69.9802 155.92C69.4335 155.44 68.7535 155.2 67.9402 155.2ZM81.8016 153.2C83.1482 153.2 84.2282 153.593 85.0416 154.38C85.8549 155.167 86.2616 156.333 86.2616 157.88V164H83.7616V158.2C83.7616 157.267 83.5416 156.567 83.1016 156.1C82.6616 155.62 82.0349 155.38 81.2216 155.38C80.3016 155.38 79.5749 155.66 79.0416 156.22C78.5082 156.767 78.2416 157.56 78.2416 158.6V164H75.7416V153.32H78.1216V154.7C78.5349 154.207 79.0549 153.833 79.6816 153.58C80.3082 153.327 81.0149 153.2 81.8016 153.2Z" fill="#3C3C43"/>
<path d="M26.88 309H33C34.4933 309 35.82 309.293 36.98 309.88C38.14 310.453 39.04 311.273 39.68 312.34C40.32 313.393 40.64 314.613 40.64 316C40.64 317.387 40.32 318.613 39.68 319.68C39.04 320.733 38.14 321.553 36.98 322.14C35.82 322.713 34.4933 323 33 323H26.88V309ZM32.88 320.8C33.9067 320.8 34.8067 320.607 35.58 320.22C36.3667 319.82 36.9667 319.26 37.38 318.54C37.8067 317.807 38.02 316.96 38.02 316C38.02 315.04 37.8067 314.2 37.38 313.48C36.9667 312.747 36.3667 312.187 35.58 311.8C34.8067 311.4 33.9067 311.2 32.88 311.2H29.48V320.8H32.88ZM53.5034 312.32V323H51.1234V321.64C50.7234 322.12 50.2234 322.493 49.6234 322.76C49.0234 323.013 48.3768 323.14 47.6834 323.14C46.2568 323.14 45.1301 322.747 44.3034 321.96C43.4901 321.16 43.0834 319.98 43.0834 318.42V312.32H45.5834V318.08C45.5834 319.04 45.7968 319.76 46.2234 320.24C46.6634 320.707 47.2834 320.94 48.0834 320.94C48.9768 320.94 49.6834 320.667 50.2034 320.12C50.7368 319.56 51.0034 318.76 51.0034 317.72V312.32H53.5034ZM59.1567 313.88C59.8767 312.76 61.1434 312.2 62.9567 312.2V314.58C62.7434 314.54 62.5501 314.52 62.3767 314.52C61.4034 314.52 60.6434 314.807 60.0967 315.38C59.5501 315.94 59.2767 316.753 59.2767 317.82V323H56.7767V312.32H59.1567V313.88ZM69.0989 312.2C70.6722 312.2 71.8722 312.58 72.6989 313.34C73.5389 314.087 73.9589 315.22 73.9589 316.74V323H71.5989V321.7C71.2922 322.167 70.8522 322.527 70.2789 322.78C69.7189 323.02 69.0389 323.14 68.2389 323.14C67.4389 323.14 66.7389 323.007 66.1389 322.74C65.5389 322.46 65.0722 322.08 64.7389 321.6C64.4189 321.107 64.2589 320.553 64.2589 319.94C64.2589 318.98 64.6122 318.213 65.3189 317.64C66.0389 317.053 67.1656 316.76 68.6989 316.76H71.4589V316.6C71.4589 315.853 71.2322 315.28 70.7789 314.88C70.3389 314.48 69.6789 314.28 68.7989 314.28C68.1989 314.28 67.6056 314.373 67.0189 314.56C66.4456 314.747 65.9589 315.007 65.5589 315.34L64.5789 313.52C65.1389 313.093 65.8122 312.767 66.5989 312.54C67.3856 312.313 68.2189 312.2 69.0989 312.2ZM68.7589 321.32C69.3856 321.32 69.9389 321.18 70.4189 320.9C70.9122 320.607 71.2589 320.193 71.4589 319.66V318.42H68.8789C67.4389 318.42 66.7189 318.893 66.7189 319.84C66.7189 320.293 66.8989 320.653 67.2589 320.92C67.6189 321.187 68.1189 321.32 68.7589 321.32ZM83.5873 322.42C83.294 322.66 82.934 322.84 82.5073 322.96C82.094 323.08 81.654 323.14 81.1873 323.14C80.014 323.14 79.1073 322.833 78.4673 322.22C77.8273 321.607 77.5073 320.713 77.5073 319.54V314.4H75.7473V312.4H77.5073V309.96H80.0073V312.4H82.8673V314.4H80.0073V319.48C80.0073 320 80.134 320.4 80.3873 320.68C80.6407 320.947 81.0073 321.08 81.4873 321.08C82.0473 321.08 82.514 320.933 82.8873 320.64L83.5873 322.42ZM85.6439 312.32H88.1439V323H85.6439V312.32ZM86.9039 310.56C86.4506 310.56 86.0706 310.42 85.7639 310.14C85.4572 309.847 85.3039 309.487 85.3039 309.06C85.3039 308.633 85.4572 308.28 85.7639 308C86.0706 307.707 86.4506 307.56 86.9039 307.56C87.3572 307.56 87.7372 307.7 88.0439 307.98C88.3506 308.247 88.5039 308.587 88.5039 309C88.5039 309.44 88.3506 309.813 88.0439 310.12C87.7506 310.413 87.3706 310.56 86.9039 310.56ZM96.2252 323.14C95.1452 323.14 94.1718 322.907 93.3052 322.44C92.4385 321.973 91.7585 321.327 91.2652 320.5C90.7852 319.66 90.5452 318.713 90.5452 317.66C90.5452 316.607 90.7852 315.667 91.2652 314.84C91.7585 314.013 92.4385 313.367 93.3052 312.9C94.1718 312.433 95.1452 312.2 96.2252 312.2C97.3185 312.2 98.2985 312.433 99.1652 312.9C100.032 313.367 100.705 314.013 101.185 314.84C101.678 315.667 101.925 316.607 101.925 317.66C101.925 318.713 101.678 319.66 101.185 320.5C100.705 321.327 100.032 321.973 99.1652 322.44C98.2985 322.907 97.3185 323.14 96.2252 323.14ZM96.2252 321C97.1452 321 97.9052 320.693 98.5052 320.08C99.1052 319.467 99.4052 318.66 99.4052 317.66C99.4052 316.66 99.1052 315.853 98.5052 315.24C97.9052 314.627 97.1452 314.32 96.2252 314.32C95.3052 314.32 94.5452 314.627 93.9452 315.24C93.3585 315.853 93.0652 316.66 93.0652 317.66C93.0652 318.66 93.3585 319.467 93.9452 320.08C94.5452 320.693 95.3052 321 96.2252 321ZM110.376 312.2C111.722 312.2 112.802 312.593 113.616 313.38C114.429 314.167 114.836 315.333 114.836 316.88V323H112.336V317.2C112.336 316.267 112.116 315.567 111.676 315.1C111.236 314.62 110.609 314.38 109.796 314.38C108.876 314.38 108.149 314.66 107.616 315.22C107.082 315.767 106.816 316.56 106.816 317.6V323H104.316V312.32H106.696V313.7C107.109 313.207 107.629 312.833 108.256 312.58C108.882 312.327 109.589 312.2 110.376 312.2Z" fill="#3C3C43"/>
<path d="M32.43 391.02V393.61H36.966V395.43H32.43V399H30.162V389.2H37.568V391.02H32.43ZM40.8987 392.462C41.16 392.098 41.51 391.823 41.9487 391.636C42.3967 391.449 42.91 391.356 43.4887 391.356V393.372C43.246 393.353 43.0827 393.344 42.9987 393.344C42.3734 393.344 41.8834 393.521 41.5287 393.876C41.174 394.221 40.9967 394.744 40.9967 395.444V399H38.8127V391.468H40.8987V392.462ZM48.3029 399.112C47.5096 399.112 46.7956 398.949 46.1609 398.622C45.5356 398.286 45.0456 397.824 44.6909 397.236C44.3363 396.648 44.1589 395.981 44.1589 395.234C44.1589 394.487 44.3363 393.82 44.6909 393.232C45.0456 392.644 45.5356 392.187 46.1609 391.86C46.7956 391.524 47.5096 391.356 48.3029 391.356C49.0963 391.356 49.8056 391.524 50.4309 391.86C51.0563 392.187 51.5463 392.644 51.9009 393.232C52.2556 393.82 52.4329 394.487 52.4329 395.234C52.4329 395.981 52.2556 396.648 51.9009 397.236C51.5463 397.824 51.0563 398.286 50.4309 398.622C49.8056 398.949 49.0963 399.112 48.3029 399.112ZM48.3029 397.32C48.8629 397.32 49.3203 397.133 49.6749 396.76C50.0389 396.377 50.2209 395.869 50.2209 395.234C50.2209 394.599 50.0389 394.095 49.6749 393.722C49.3203 393.339 48.8629 393.148 48.3029 393.148C47.7429 393.148 47.2809 393.339 46.9169 393.722C46.5529 394.095 46.3709 394.599 46.3709 395.234C46.3709 395.869 46.5529 396.377 46.9169 396.76C47.2809 397.133 47.7429 397.32 48.3029 397.32ZM63.5388 391.356C64.4814 391.356 65.2281 391.636 65.7788 392.196C66.3388 392.747 66.6188 393.577 66.6188 394.688V399H64.4348V395.024C64.4348 394.427 64.3088 393.983 64.0568 393.694C63.8141 393.395 63.4641 393.246 63.0068 393.246C62.4934 393.246 62.0874 393.414 61.7888 393.75C61.4901 394.077 61.3408 394.567 61.3408 395.22V399H59.1568V395.024C59.1568 393.839 58.6808 393.246 57.7288 393.246C57.2248 393.246 56.8234 393.414 56.5248 393.75C56.2261 394.077 56.0768 394.567 56.0768 395.22V399H53.8928V391.468H55.9788V392.336C56.2588 392.019 56.5994 391.776 57.0008 391.608C57.4114 391.44 57.8594 391.356 58.3448 391.356C58.8768 391.356 59.3574 391.463 59.7868 391.678C60.2161 391.883 60.5614 392.187 60.8228 392.588C61.1308 392.196 61.5181 391.893 61.9848 391.678C62.4608 391.463 62.9788 391.356 63.5388 391.356Z" fill="#3C3C43"/>
<path d="M32.192 513.048H29.056V511.2H37.596V513.048H34.46V521H32.192V513.048ZM41.4807 521.112C40.6873 521.112 39.9733 520.949 39.3387 520.622C38.7133 520.286 38.2233 519.824 37.8687 519.236C37.514 518.648 37.3367 517.981 37.3367 517.234C37.3367 516.487 37.514 515.82 37.8687 515.232C38.2233 514.644 38.7133 514.187 39.3387 513.86C39.9733 513.524 40.6873 513.356 41.4807 513.356C42.274 513.356 42.9833 513.524 43.6087 513.86C44.234 514.187 44.724 514.644 45.0787 515.232C45.4333 515.82 45.6107 516.487 45.6107 517.234C45.6107 517.981 45.4333 518.648 45.0787 519.236C44.724 519.824 44.234 520.286 43.6087 520.622C42.9833 520.949 42.274 521.112 41.4807 521.112ZM41.4807 519.32C42.0407 519.32 42.498 519.133 42.8527 518.76C43.2167 518.377 43.3987 517.869 43.3987 517.234C43.3987 516.599 43.2167 516.095 42.8527 515.722C42.498 515.339 42.0407 515.148 41.4807 515.148C40.9207 515.148 40.4587 515.339 40.0947 515.722C39.7307 516.095 39.5487 516.599 39.5487 517.234C39.5487 517.869 39.7307 518.377 40.0947 518.76C40.4587 519.133 40.9207 519.32 41.4807 519.32Z" fill="#3C3C43"/>
<path d="M38.74 630L38.72 620.72L34.12 628.4H32.96L28.36 620.84V630H25.88V616H28.02L33.58 625.28L39.04 616H41.18L41.2 630H38.74ZM54.7816 624.72C54.7816 624.893 54.7682 625.14 54.7416 625.46H46.3616C46.5082 626.247 46.8882 626.873 47.5016 627.34C48.1282 627.793 48.9016 628.02 49.8216 628.02C50.9949 628.02 51.9616 627.633 52.7216 626.86L54.0616 628.4C53.5816 628.973 52.9749 629.407 52.2416 629.7C51.5082 629.993 50.6816 630.14 49.7616 630.14C48.5882 630.14 47.5549 629.907 46.6616 629.44C45.7682 628.973 45.0749 628.327 44.5816 627.5C44.1016 626.66 43.8616 625.713 43.8616 624.66C43.8616 623.62 44.0949 622.687 44.5616 621.86C45.0416 621.02 45.7016 620.367 46.5416 619.9C47.3816 619.433 48.3282 619.2 49.3816 619.2C50.4216 619.2 51.3482 619.433 52.1616 619.9C52.9882 620.353 53.6282 621 54.0816 621.84C54.5482 622.667 54.7816 623.627 54.7816 624.72ZM49.3816 621.2C48.5816 621.2 47.9016 621.44 47.3416 621.92C46.7949 622.387 46.4616 623.013 46.3416 623.8H52.4016C52.2949 623.027 51.9682 622.4 51.4216 621.92C50.8749 621.44 50.1949 621.2 49.3816 621.2ZM70.663 619.2C72.0096 619.2 73.0763 619.593 73.863 620.38C74.6496 621.153 75.043 622.32 75.043 623.88V630H72.543V624.2C72.543 623.267 72.3363 622.567 71.923 622.1C71.5096 621.62 70.9163 621.38 70.143 621.38C69.303 621.38 68.6296 621.66 68.123 622.22C67.6163 622.767 67.363 623.553 67.363 624.58V630H64.863V624.2C64.863 623.267 64.6563 622.567 64.243 622.1C63.8296 621.62 63.2363 621.38 62.463 621.38C61.6096 621.38 60.9296 621.653 60.423 622.2C59.9296 622.747 59.683 623.54 59.683 624.58V630H57.183V619.32H59.563V620.68C59.963 620.2 60.463 619.833 61.063 619.58C61.663 619.327 62.3296 619.2 63.063 619.2C63.863 619.2 64.5696 619.353 65.183 619.66C65.8096 619.953 66.303 620.393 66.663 620.98C67.103 620.42 67.6696 619.987 68.363 619.68C69.0563 619.36 69.823 619.2 70.663 619.2ZM83.1353 630.14C82.0553 630.14 81.082 629.907 80.2153 629.44C79.3486 628.973 78.6686 628.327 78.1753 627.5C77.6953 626.66 77.4553 625.713 77.4553 624.66C77.4553 623.607 77.6953 622.667 78.1753 621.84C78.6686 621.013 79.3486 620.367 80.2153 619.9C81.082 619.433 82.0553 619.2 83.1353 619.2C84.2286 619.2 85.2086 619.433 86.0753 619.9C86.942 620.367 87.6153 621.013 88.0953 621.84C88.5886 622.667 88.8353 623.607 88.8353 624.66C88.8353 625.713 88.5886 626.66 88.0953 627.5C87.6153 628.327 86.942 628.973 86.0753 629.44C85.2086 629.907 84.2286 630.14 83.1353 630.14ZM83.1353 628C84.0553 628 84.8153 627.693 85.4153 627.08C86.0153 626.467 86.3153 625.66 86.3153 624.66C86.3153 623.66 86.0153 622.853 85.4153 622.24C84.8153 621.627 84.0553 621.32 83.1353 621.32C82.2153 621.32 81.4553 621.627 80.8553 622.24C80.2686 622.853 79.9753 623.66 79.9753 624.66C79.9753 625.66 80.2686 626.467 80.8553 627.08C81.4553 627.693 82.2153 628 83.1353 628Z" fill="#3C3C43"/>
<path d="M138.5 1000L254.5 1000" stroke="black" stroke-width="4" stroke-linecap="round"/>
<path d="M23.4034 26.792L27.9634 19.672H30.1394V26.968H31.7874V28.696H30.1394V31H28.2194V28.696H23.4034V26.792ZM28.1874 22.392L25.3554 26.968H28.2194V22.392H28.1874ZM34.6961 23.208C35.3521 23.208 35.9761 23.704 35.9761 24.424C35.9761 25.128 35.4001 25.672 34.6961 25.672C34.0241 25.672 33.4161 25.128 33.4161 24.456C33.4161 23.768 34.0081 23.208 34.6961 23.208ZM34.6961 28.632C35.3681 28.632 35.9761 29.144 35.9761 29.848C35.9761 30.568 35.3841 31.096 34.6961 31.096C34.0241 31.096 33.4161 30.568 33.4161 29.88C33.4161 29.192 34.0081 28.632 34.6961 28.632ZM41.9265 19.48C44.1185 19.48 45.5905 20.648 45.5905 22.696C45.5905 23.88 45.0945 24.872 43.8625 26.008L40.3425 29.272H45.5905V31H38.0065V28.968L42.4065 24.712C43.3505 23.8 43.5745 23.336 43.5745 22.792C43.5745 21.864 42.8225 21.304 41.9265 21.304C40.9985 21.304 40.3105 21.912 40.1825 22.84L38.1665 22.68C38.3745 20.584 39.8465 19.48 41.9265 19.48ZM51.2673 19.48C53.8433 19.48 55.3633 21.464 55.3633 25.336C55.3633 29.192 53.8593 31.192 51.2673 31.192C48.6753 31.192 47.1713 29.192 47.1713 25.336C47.1713 21.464 48.6913 19.48 51.2673 19.48ZM49.0913 25.336C49.0913 27.768 49.7953 29.368 51.2673 29.368C52.7073 29.368 53.4433 27.848 53.4433 25.336C53.4433 22.792 52.7073 21.304 51.2513 21.304C49.8593 21.304 49.0913 22.776 49.0913 25.336Z" fill="#3C3C43"/>
<g filter="url(#filter0_b_426_762)">
<g clip-path="url(#clip1_426_762)">
<rect opacity="0.2" x="319.5" y="21.5" width="3.5" height="11.5" rx="1" fill="#3C3C43"/>
<path d="M314.5 25C314.5 24.4477 314.948 24 315.5 24H317C317.552 24 318 24.4477 318 25V32C318 32.5523 317.552 33 317 33H315.5C314.948 33 314.5 32.5523 314.5 32V25Z" fill="#3C3C43"/>
<path d="M309.5 27.5C309.5 26.9477 309.948 26.5 310.5 26.5H312C312.552 26.5 313 26.9477 313 27.5V32C313 32.5523 312.552 33 312 33H310.5C309.948 33 309.5 32.5523 309.5 32V27.5Z" fill="#3C3C43"/>
<path d="M304.5 29.5C304.5 28.9477 304.948 28.5 305.5 28.5H307C307.552 28.5 308 28.9477 308 29.5V32C308 32.5523 307.552 33 307 33H305.5C304.948 33 304.5 32.5523 304.5 32V29.5Z" fill="#3C3C43"/>
<path d="M338.325 30.7893C338.39 30.7257 338.426 30.6382 338.424 30.5475C338.422 30.4568 338.383 30.3709 338.316 30.31C336.979 29.1786 335.022 29.1786 333.686 30.31C333.618 30.3708 333.579 30.4567 333.577 30.5474C333.575 30.6382 333.611 30.7257 333.676 30.7893L335.768 32.9031C335.83 32.9653 335.913 33.0002 336.001 33.0002C336.088 33.0002 336.171 32.9653 336.233 32.9031L338.325 30.7893Z" fill="#3C3C43"/>
<path d="M336 27.869C337.276 27.8689 338.506 28.3435 339.451 29.2005C339.579 29.3221 339.781 29.3195 339.905 29.1946L341.115 27.9711C341.179 27.9069 341.214 27.8198 341.213 27.7293C341.212 27.6389 341.175 27.5526 341.11 27.4897C338.231 24.8088 333.772 24.8088 330.893 27.4897C330.828 27.5526 330.791 27.6389 330.79 27.7294C330.789 27.8199 330.825 27.907 330.889 27.9711L332.098 29.1946C332.222 29.3195 332.424 29.3221 332.552 29.2005C333.497 28.344 334.726 27.8695 336 27.869Z" fill="#3C3C43"/>
<path opacity="0.2" d="M336 23.8883C338.322 23.8884 340.555 24.7813 342.237 26.3825C342.364 26.5061 342.566 26.5045 342.691 26.379L343.902 25.1555C343.965 25.0918 344.001 25.0055 344 24.9158C343.999 24.826 343.963 24.7402 343.899 24.6772C339.483 20.4409 332.517 20.4409 328.101 24.6772C328.037 24.7401 328.001 24.826 328 24.9157C327.999 25.0055 328.035 25.0917 328.098 25.1555L329.309 26.379C329.434 26.5047 329.637 26.5063 329.763 26.3825C331.446 24.7812 333.679 23.8883 336 23.8883Z" fill="#3C3C43"/>
<g clip-path="url(#clip2_426_762)">
<path d="M350 24.25C350 23.5596 350.56 23 351.25 23H352V31.5H351.25C350.56 31.5 350 30.9404 350 30.25V24.25Z" fill="#3C3C43"/>
<path d="M352 23H354V31.5H352V23Z" fill="#3C3C43"/>
<path d="M354 23H356V31.5H354V23Z" fill="#3C3C43"/>
<path d="M356 23H358V31.5H356V23Z" fill="#3C3C43"/>
<path d="M358 23H360V31.5H358V23Z" fill="#3C3C43"/>
<path d="M360 23H362V31.5H360V23Z" fill="#3C3C43"/>
<path d="M362 23H364V31.5H362V23Z" fill="#3C3C43"/>
<path d="M366 24.25C366 23.5596 365.44 23 364.75 23H364V31.5H364.75C365.44 31.5 366 30.9404 366 30.25V24.25Z" fill="#3C3C43"/>
</g>
<g opacity="0.5">
<path fill-rule="evenodd" clip-rule="evenodd" d="M348 24C348 22.3431 349.343 21 351 21H369C370.657 21 372 22.3431 372 24V30.5C372 32.1569 370.657 33.5 369 33.5H351C349.343 33.5 348 32.1569 348 30.5V24ZM351 22C349.895 22 349 22.8954 349 24V30.5C349 31.6046 349.895 32.5 351 32.5H369C370.105 32.5 371 31.6046 371 30.5V24C371 22.8954 370.105 22 369 22H351Z" fill="#3C3C43"/>
<path d="M373 29.542C373.883 29.1562 374.5 28.2751 374.5 27.25C374.5 26.2248 373.883 25.3438 373 24.958V29.542Z" fill="#3C3C43"/>
</g>
</g>
</g>
</g>
<defs>
<filter id="filter0_b_426_762" x="248" y="-37.5" width="184" height="128" filterUnits="userSpaceOnUse" color-interpolation-filters="sRGB">
<feFlood flood-opacity="0" result="BackgroundImageFix"/>
<feGaussianBlur in="BackgroundImageFix" stdDeviation="28"/>
<feComposite in2="SourceAlpha" operator="in" result="effect1_backgroundBlur_426_762"/>
<feBlend mode="normal" in="SourceGraphic" in2="effect1_backgroundBlur_426_762" result="shape"/>
</filter>
<clipPath id="clip0_426_762">
<rect width="393" height="1009" fill="white"/>
</clipPath>
<clipPath id="clip1_426_762">
<rect width="72" height="16" fill="white" transform="translate(304 18.5)"/>
</clipPath>
<clipPath id="clip2_426_762">
<rect width="16" height="8.5" fill="white" transform="translate(350 23)"/>
</clipPath>
</defs>
</svg>
