<svg width="390" height="852" viewBox="0 0 390 852" fill="none" xmlns="http://www.w3.org/2000/svg">
<g clip-path="url(#clip0_394_1286)">
<rect width="390" height="852" fill="white"/>
<path d="M32.395 26.408V24.92L36.891 17.672H38.539V25.16H40.171V26.408H38.539V29H37.195V26.408H32.395ZM37.163 19.24L33.547 25.16H37.195V19.24H37.163ZM43.5896 22.28C43.5896 22.792 43.1256 23.24 42.6296 23.24C42.1656 23.24 41.6696 22.808 41.6696 22.28C41.6696 21.752 42.1176 21.32 42.6296 21.32C43.1896 21.32 43.5896 21.784 43.5896 22.28ZM43.5896 28.136C43.5896 28.648 43.1416 29.096 42.6296 29.096C42.1336 29.096 41.6696 28.648 41.6696 28.136C41.6696 27.608 42.1016 27.176 42.6296 27.176C43.1576 27.176 43.5896 27.624 43.5896 28.136ZM49.0987 17.48C51.1147 17.48 52.5547 18.664 52.5547 20.552C52.5547 22.28 51.6907 23.16 50.3467 24.44L46.8587 27.72V27.752H52.6347V29H45.3387V27.464L49.6907 23.224C51.1627 21.8 51.2107 21.176 51.2107 20.552C51.2107 19.416 50.3147 18.632 49.1467 18.632C48.0107 18.632 47.2107 19.336 47.0027 20.44L45.5467 20.312C45.8507 18.504 47.2267 17.48 49.0987 17.48ZM57.5574 17.48C60.0694 17.48 61.3974 19.688 61.3974 23.336C61.3974 27 60.0694 29.192 57.5574 29.192C55.0454 29.192 53.7174 26.984 53.7174 23.336C53.7174 19.688 55.0454 17.48 57.5574 17.48ZM55.0614 23.336C55.0614 26.392 55.9414 28.04 57.5574 28.04C59.1734 28.04 60.0534 26.408 60.0534 23.336C60.0534 20.28 59.1894 18.632 57.5414 18.632C55.9734 18.632 55.0614 20.216 55.0614 23.336Z" fill="white"/>
<g filter="url(#filter0_b_394_1286)">
<g clip-path="url(#clip1_394_1286)">
<rect opacity="0.2" x="317.5" y="19" width="3.5" height="11.5" rx="1" fill="white"/>
<path d="M312.5 22.5C312.5 21.9477 312.948 21.5 313.5 21.5H315C315.552 21.5 316 21.9477 316 22.5V29.5C316 30.0523 315.552 30.5 315 30.5H313.5C312.948 30.5 312.5 30.0523 312.5 29.5V22.5Z" fill="white"/>
<path d="M307.5 25C307.5 24.4477 307.948 24 308.5 24H310C310.552 24 311 24.4477 311 25V29.5C311 30.0523 310.552 30.5 310 30.5H308.5C307.948 30.5 307.5 30.0523 307.5 29.5V25Z" fill="white"/>
<path d="M302.5 27C302.5 26.4477 302.948 26 303.5 26H305C305.552 26 306 26.4477 306 27V29.5C306 30.0523 305.552 30.5 305 30.5H303.5C302.948 30.5 302.5 30.0523 302.5 29.5V27Z" fill="white"/>
<path d="M336.325 28.2893C336.39 28.2257 336.426 28.1382 336.424 28.0475C336.422 27.9568 336.383 27.8709 336.316 27.81C334.979 26.6786 333.022 26.6786 331.686 27.81C331.618 27.8708 331.579 27.9567 331.577 28.0474C331.575 28.1382 331.611 28.2257 331.676 28.2893L333.768 30.4031C333.83 30.4653 333.913 30.5002 334.001 30.5002C334.088 30.5002 334.171 30.4653 334.233 30.4031L336.325 28.2893Z" fill="white"/>
<path d="M334 25.369C335.276 25.3689 336.506 25.8435 337.451 26.7005C337.579 26.8221 337.781 26.8195 337.905 26.6946L339.115 25.4711C339.179 25.4069 339.214 25.3198 339.213 25.2293C339.212 25.1389 339.175 25.0526 339.11 24.9897C336.231 22.3088 331.772 22.3088 328.893 24.9897C328.828 25.0526 328.791 25.1389 328.79 25.2294C328.789 25.3199 328.825 25.407 328.889 25.4711L330.098 26.6946C330.222 26.8195 330.424 26.8221 330.552 26.7005C331.497 25.844 332.726 25.3695 334 25.369Z" fill="white"/>
<path opacity="0.2" d="M334 21.3883C336.322 21.3884 338.555 22.2813 340.237 23.8825C340.364 24.0061 340.566 24.0045 340.691 23.879L341.902 22.6555C341.965 22.5918 342.001 22.5055 342 22.4158C341.999 22.326 341.963 22.2402 341.899 22.1772C337.483 17.9409 330.517 17.9409 326.101 22.1772C326.037 22.2401 326.001 22.326 326 22.4157C325.999 22.5055 326.035 22.5917 326.098 22.6555L327.309 23.879C327.434 24.0047 327.637 24.0063 327.763 23.8825C329.446 22.2812 331.679 21.3883 334 21.3883Z" fill="white"/>
<g clip-path="url(#clip2_394_1286)">
<path d="M348 21.75C348 21.0596 348.56 20.5 349.25 20.5H350V29H349.25C348.56 29 348 28.4404 348 27.75V21.75Z" fill="white"/>
<path d="M350 20.5H352V29H350V20.5Z" fill="white"/>
<path d="M352 20.5H354V29H352V20.5Z" fill="white"/>
<path d="M354 20.5H356V29H354V20.5Z" fill="white"/>
<path d="M356 20.5H358V29H356V20.5Z" fill="white"/>
<path d="M358 20.5H360V29H358V20.5Z" fill="white"/>
<path d="M360 20.5H362V29H360V20.5Z" fill="white"/>
<path d="M364 21.75C364 21.0596 363.44 20.5 362.75 20.5H362V29H362.75C363.44 29 364 28.4404 364 27.75V21.75Z" fill="white"/>
</g>
<g opacity="0.5">
<path fill-rule="evenodd" clip-rule="evenodd" d="M346 21.5C346 19.8431 347.343 18.5 349 18.5H367C368.657 18.5 370 19.8431 370 21.5V28C370 29.6569 368.657 31 367 31H349C347.343 31 346 29.6569 346 28V21.5ZM349 19.5C347.895 19.5 347 20.3954 347 21.5V28C347 29.1046 347.895 30 349 30H367C368.105 30 369 29.1046 369 28V21.5C369 20.3954 368.105 19.5 367 19.5H349Z" fill="white"/>
<path d="M371 27.042C371.883 26.6562 372.5 25.7751 372.5 24.75C372.5 23.7248 371.883 22.8438 371 22.458V27.042Z" fill="white"/>
</g>
</g>
</g>
<path d="M55.928 143.042L51.608 136.802H51.352H46.84V143.042H41.656V120.642H51.352C53.336 120.642 55.0533 120.973 56.504 121.634C57.976 122.296 59.1067 123.234 59.896 124.45C60.6853 125.666 61.08 127.106 61.08 128.77C61.08 130.434 60.6747 131.874 59.864 133.09C59.0747 134.285 57.944 135.202 56.472 135.842L61.496 143.042H55.928ZM55.832 128.77C55.832 127.512 55.4267 126.552 54.616 125.89C53.8053 125.208 52.6213 124.866 51.064 124.866H46.84V132.674H51.064C52.6213 132.674 53.8053 132.333 54.616 131.65C55.4267 130.968 55.832 130.008 55.832 128.77ZM81.6993 134.498C81.6993 134.562 81.6673 135.01 81.6033 135.842H68.5793C68.8139 136.909 69.3686 137.752 70.2433 138.37C71.1179 138.989 72.2059 139.298 73.5073 139.298C74.4033 139.298 75.1926 139.17 75.8753 138.914C76.5793 138.637 77.2299 138.21 77.8273 137.634L80.4833 140.514C78.8619 142.37 76.4939 143.298 73.3793 143.298C71.4379 143.298 69.7206 142.925 68.2273 142.178C66.7339 141.41 65.5819 140.354 64.7713 139.01C63.9606 137.666 63.5553 136.141 63.5553 134.434C63.5553 132.749 63.9499 131.234 64.7393 129.89C65.5499 128.525 66.6486 127.469 68.0353 126.722C69.4433 125.954 71.0113 125.57 72.7393 125.57C74.4246 125.57 75.9499 125.933 77.3153 126.658C78.6806 127.384 79.7473 128.429 80.5153 129.794C81.3046 131.138 81.6993 132.706 81.6993 134.498ZM72.7713 129.346C71.6406 129.346 70.6913 129.666 69.9233 130.306C69.1553 130.946 68.6859 131.821 68.5153 132.93H76.9953C76.8246 131.842 76.3553 130.978 75.5873 130.338C74.8193 129.677 73.8806 129.346 72.7713 129.346ZM102.783 125.826V140.162C102.783 143.32 101.961 145.666 100.319 147.202C98.6761 148.738 96.2761 149.506 93.1188 149.506C91.4548 149.506 89.8761 149.304 88.3828 148.898C86.8894 148.493 85.6521 147.906 84.6708 147.138L86.6548 143.554C87.3801 144.152 88.2974 144.621 89.4068 144.962C90.5161 145.325 91.6254 145.506 92.7348 145.506C94.4628 145.506 95.7321 145.112 96.5428 144.322C97.3748 143.554 97.7908 142.381 97.7908 140.802V140.066C96.4894 141.496 94.6761 142.21 92.3508 142.21C90.7721 142.21 89.3214 141.869 87.9988 141.186C86.6974 140.482 85.6628 139.501 84.8948 138.242C84.1268 136.984 83.7428 135.533 83.7428 133.89C83.7428 132.248 84.1268 130.797 84.8948 129.538C85.6628 128.28 86.6974 127.309 87.9988 126.626C89.3214 125.922 90.7721 125.57 92.3508 125.57C94.8468 125.57 96.7454 126.392 98.0468 128.034V125.826H102.783ZM93.3428 138.114C94.6654 138.114 95.7428 137.73 96.5748 136.962C97.4281 136.173 97.8548 135.149 97.8548 133.89C97.8548 132.632 97.4281 131.618 96.5748 130.85C95.7428 130.061 94.6654 129.666 93.3428 129.666C92.0201 129.666 90.9321 130.061 90.0788 130.85C89.2254 131.618 88.7988 132.632 88.7988 133.89C88.7988 135.149 89.2254 136.173 90.0788 136.962C90.9321 137.73 92.0201 138.114 93.3428 138.114ZM107.429 125.826H112.421V143.042H107.429V125.826ZM109.925 123.426C109.008 123.426 108.261 123.16 107.685 122.626C107.109 122.093 106.821 121.432 106.821 120.642C106.821 119.853 107.109 119.192 107.685 118.658C108.261 118.125 109.008 117.858 109.925 117.858C110.842 117.858 111.589 118.114 112.165 118.626C112.741 119.138 113.029 119.778 113.029 120.546C113.029 121.378 112.741 122.072 112.165 122.626C111.589 123.16 110.842 123.426 109.925 123.426ZM122.846 143.298C121.417 143.298 120.019 143.128 118.654 142.786C117.289 142.424 116.201 141.976 115.39 141.442L117.054 137.858C117.822 138.349 118.75 138.754 119.838 139.074C120.926 139.373 121.993 139.522 123.038 139.522C125.15 139.522 126.206 139 126.206 137.954C126.206 137.464 125.918 137.112 125.342 136.898C124.766 136.685 123.881 136.504 122.686 136.354C121.278 136.141 120.115 135.896 119.198 135.618C118.281 135.341 117.481 134.85 116.798 134.146C116.137 133.442 115.806 132.44 115.806 131.138C115.806 130.05 116.115 129.09 116.734 128.258C117.374 127.405 118.291 126.744 119.486 126.274C120.702 125.805 122.131 125.57 123.774 125.57C124.99 125.57 126.195 125.709 127.39 125.986C128.606 126.242 129.609 126.605 130.398 127.074L128.734 130.626C127.219 129.773 125.566 129.346 123.774 129.346C122.707 129.346 121.907 129.496 121.374 129.794C120.841 130.093 120.574 130.477 120.574 130.946C120.574 131.48 120.862 131.853 121.438 132.066C122.014 132.28 122.931 132.482 124.19 132.674C125.598 132.909 126.75 133.165 127.646 133.442C128.542 133.698 129.321 134.178 129.982 134.882C130.643 135.586 130.974 136.568 130.974 137.826C130.974 138.893 130.654 139.842 130.014 140.674C129.374 141.506 128.435 142.157 127.198 142.626C125.982 143.074 124.531 143.298 122.846 143.298ZM145.158 142.21C144.667 142.573 144.059 142.85 143.334 143.042C142.63 143.213 141.883 143.298 141.094 143.298C139.046 143.298 137.457 142.776 136.326 141.73C135.217 140.685 134.662 139.149 134.662 137.122V130.05H132.006V126.21H134.662V122.018H139.654V126.21H143.942V130.05H139.654V137.058C139.654 137.784 139.835 138.349 140.198 138.754C140.582 139.138 141.115 139.33 141.798 139.33C142.587 139.33 143.259 139.117 143.814 138.69L145.158 142.21ZM164.293 134.498C164.293 134.562 164.261 135.01 164.197 135.842H151.173C151.408 136.909 151.962 137.752 152.837 138.37C153.712 138.989 154.8 139.298 156.101 139.298C156.997 139.298 157.786 139.17 158.469 138.914C159.173 138.637 159.824 138.21 160.421 137.634L163.077 140.514C161.456 142.37 159.088 143.298 155.973 143.298C154.032 143.298 152.314 142.925 150.821 142.178C149.328 141.41 148.176 140.354 147.365 139.01C146.554 137.666 146.149 136.141 146.149 134.434C146.149 132.749 146.544 131.234 147.333 129.89C148.144 128.525 149.242 127.469 150.629 126.722C152.037 125.954 153.605 125.57 155.333 125.57C157.018 125.57 158.544 125.933 159.909 126.658C161.274 127.384 162.341 128.429 163.109 129.794C163.898 131.138 164.293 132.706 164.293 134.498ZM155.365 129.346C154.234 129.346 153.285 129.666 152.517 130.306C151.749 130.946 151.28 131.821 151.109 132.93H159.589C159.418 131.842 158.949 130.978 158.181 130.338C157.413 129.677 156.474 129.346 155.365 129.346ZM172.385 128.098C172.982 127.266 173.782 126.637 174.785 126.21C175.809 125.784 176.982 125.57 178.305 125.57V130.178C177.75 130.136 177.377 130.114 177.185 130.114C175.755 130.114 174.635 130.52 173.825 131.33C173.014 132.12 172.609 133.314 172.609 134.914V143.042H167.617V125.826H172.385V128.098ZM205.564 138.242H195.164L193.18 143.042H187.868L197.852 120.642H202.972L212.988 143.042H207.548L205.564 138.242ZM203.932 134.306L200.38 125.73L196.828 134.306H203.932ZM244.919 120.642V143.042H240.663L229.495 129.442V143.042H224.375V120.642H228.663L239.799 134.242V120.642H244.919ZM266.731 134.498C266.731 134.562 266.699 135.01 266.635 135.842H253.611C253.845 136.909 254.4 137.752 255.275 138.37C256.149 138.989 257.237 139.298 258.539 139.298C259.435 139.298 260.224 139.17 260.907 138.914C261.611 138.637 262.261 138.21 262.859 137.634L265.515 140.514C263.893 142.37 261.525 143.298 258.411 143.298C256.469 143.298 254.752 142.925 253.259 142.178C251.765 141.41 250.613 140.354 249.803 139.01C248.992 137.666 248.587 136.141 248.587 134.434C248.587 132.749 248.981 131.234 249.771 129.89C250.581 128.525 251.68 127.469 253.067 126.722C254.475 125.954 256.043 125.57 257.771 125.57C259.456 125.57 260.981 125.933 262.347 126.658C263.712 127.384 264.779 128.429 265.547 129.794C266.336 131.138 266.731 132.706 266.731 134.498ZM257.803 129.346C256.672 129.346 255.723 129.666 254.955 130.306C254.187 130.946 253.717 131.821 253.547 132.93H262.027C261.856 131.842 261.387 130.978 260.619 130.338C259.851 129.677 258.912 129.346 257.803 129.346ZM297.39 125.826L291.15 143.042H286.35L282.478 132.354L278.478 143.042H273.678L267.47 125.826H272.174L276.238 137.474L280.462 125.826H284.686L288.782 137.474L292.974 125.826H297.39ZM58.104 173.394C59.384 173.8 60.3867 174.482 61.112 175.442C61.8373 176.381 62.2 177.544 62.2 178.93C62.2 180.893 61.432 182.408 59.896 183.474C58.3813 184.52 56.1627 185.042 53.24 185.042H41.656V162.642H52.6C55.3307 162.642 57.4213 163.165 58.872 164.21C60.344 165.256 61.08 166.674 61.08 168.466C61.08 169.554 60.8133 170.525 60.28 171.378C59.768 172.232 59.0427 172.904 58.104 173.394ZM46.808 166.546V171.826H51.96C53.24 171.826 54.2107 171.602 54.872 171.154C55.5333 170.706 55.864 170.045 55.864 169.17C55.864 168.296 55.5333 167.645 54.872 167.218C54.2107 166.77 53.24 166.546 51.96 166.546H46.808ZM52.856 181.138C54.2213 181.138 55.2453 180.914 55.928 180.466C56.632 180.018 56.984 179.325 56.984 178.386C56.984 176.53 55.608 175.602 52.856 175.602H46.808V181.138H52.856ZM72.7168 167.57C75.3834 167.57 77.4314 168.21 78.8608 169.49C80.2901 170.749 81.0048 172.658 81.0048 175.218V185.042H76.3328V182.898C75.3941 184.498 73.6448 185.298 71.0848 185.298C69.7621 185.298 68.6101 185.074 67.6288 184.626C66.6688 184.178 65.9328 183.56 65.4208 182.77C64.9088 181.981 64.6528 181.085 64.6528 180.082C64.6528 178.482 65.2501 177.224 66.4448 176.306C67.6608 175.389 69.5274 174.93 72.0448 174.93H76.0128C76.0128 173.842 75.6821 173.01 75.0208 172.434C74.3594 171.837 73.3674 171.538 72.0448 171.538C71.1274 171.538 70.2208 171.688 69.3248 171.986C68.4501 172.264 67.7034 172.648 67.0848 173.138L65.2928 169.65C66.2314 168.989 67.3514 168.477 68.6528 168.114C69.9754 167.752 71.3301 167.57 72.7168 167.57ZM72.3328 181.938C73.1861 181.938 73.9434 181.746 74.6048 181.362C75.2661 180.957 75.7354 180.37 76.0128 179.602V177.842H72.5888C70.5408 177.842 69.5168 178.514 69.5168 179.858C69.5168 180.498 69.7621 181.01 70.2528 181.394C70.7648 181.757 71.4581 181.938 72.3328 181.938ZM95.6988 167.57C97.2988 167.57 98.7494 167.944 100.051 168.69C101.373 169.416 102.408 170.45 103.155 171.794C103.901 173.117 104.275 174.664 104.275 176.434C104.275 178.205 103.901 179.762 103.155 181.106C102.408 182.429 101.373 183.464 100.051 184.21C98.7494 184.936 97.2988 185.298 95.6988 185.298C93.3308 185.298 91.5281 184.552 90.2908 183.058V185.042H85.5228V161.298H90.5148V169.65C91.7734 168.264 93.5014 167.57 95.6988 167.57ZM94.8348 181.202C96.1148 181.202 97.1601 180.776 97.9708 179.922C98.8028 179.048 99.2188 177.885 99.2188 176.434C99.2188 174.984 98.8028 173.832 97.9708 172.978C97.1601 172.104 96.1148 171.666 94.8348 171.666C93.5548 171.666 92.4988 172.104 91.6667 172.978C90.8561 173.832 90.4508 174.984 90.4508 176.434C90.4508 177.885 90.8561 179.048 91.6667 179.922C92.4988 180.776 93.5548 181.202 94.8348 181.202ZM124.236 167.826L116.46 186.098C115.67 188.082 114.689 189.48 113.516 190.29C112.364 191.101 110.966 191.506 109.324 191.506C108.428 191.506 107.542 191.368 106.668 191.09C105.793 190.813 105.078 190.429 104.524 189.938L106.348 186.386C106.732 186.728 107.169 186.994 107.66 187.186C108.172 187.378 108.673 187.474 109.164 187.474C109.846 187.474 110.401 187.304 110.828 186.962C111.254 186.642 111.638 186.098 111.98 185.33L112.044 185.17L104.588 167.826H109.74L114.572 179.506L119.436 167.826H124.236Z" fill="#6078E0"/>
<path d="M32.395 26.408V24.92L36.891 17.672H38.539V25.16H40.171V26.408H38.539V29H37.195V26.408H32.395ZM37.163 19.24L33.547 25.16H37.195V19.24H37.163ZM43.5896 22.28C43.5896 22.792 43.1256 23.24 42.6296 23.24C42.1656 23.24 41.6696 22.808 41.6696 22.28C41.6696 21.752 42.1176 21.32 42.6296 21.32C43.1896 21.32 43.5896 21.784 43.5896 22.28ZM43.5896 28.136C43.5896 28.648 43.1416 29.096 42.6296 29.096C42.1336 29.096 41.6696 28.648 41.6696 28.136C41.6696 27.608 42.1016 27.176 42.6296 27.176C43.1576 27.176 43.5896 27.624 43.5896 28.136ZM49.0987 17.48C51.1147 17.48 52.5547 18.664 52.5547 20.552C52.5547 22.28 51.6907 23.16 50.3467 24.44L46.8587 27.72V27.752H52.6347V29H45.3387V27.464L49.6907 23.224C51.1627 21.8 51.2107 21.176 51.2107 20.552C51.2107 19.416 50.3147 18.632 49.1467 18.632C48.0107 18.632 47.2107 19.336 47.0027 20.44L45.5467 20.312C45.8507 18.504 47.2267 17.48 49.0987 17.48ZM57.5574 17.48C60.0694 17.48 61.3974 19.688 61.3974 23.336C61.3974 27 60.0694 29.192 57.5574 29.192C55.0454 29.192 53.7174 26.984 53.7174 23.336C53.7174 19.688 55.0454 17.48 57.5574 17.48ZM55.0614 23.336C55.0614 26.392 55.9414 28.04 57.5574 28.04C59.1734 28.04 60.0534 26.408 60.0534 23.336C60.0534 20.28 59.1894 18.632 57.5414 18.632C55.9734 18.632 55.0614 20.216 55.0614 23.336Z" fill="#3C3C43"/>
<g filter="url(#filter1_b_394_1286)">
<g clip-path="url(#clip3_394_1286)">
<rect opacity="0.2" x="317.5" y="19" width="3.5" height="11.5" rx="1" fill="#3C3C43"/>
<path d="M312.5 22.5C312.5 21.9477 312.948 21.5 313.5 21.5H315C315.552 21.5 316 21.9477 316 22.5V29.5C316 30.0523 315.552 30.5 315 30.5H313.5C312.948 30.5 312.5 30.0523 312.5 29.5V22.5Z" fill="#3C3C43"/>
<path d="M307.5 25C307.5 24.4477 307.948 24 308.5 24H310C310.552 24 311 24.4477 311 25V29.5C311 30.0523 310.552 30.5 310 30.5H308.5C307.948 30.5 307.5 30.0523 307.5 29.5V25Z" fill="#3C3C43"/>
<path d="M302.5 27C302.5 26.4477 302.948 26 303.5 26H305C305.552 26 306 26.4477 306 27V29.5C306 30.0523 305.552 30.5 305 30.5H303.5C302.948 30.5 302.5 30.0523 302.5 29.5V27Z" fill="#3C3C43"/>
<path d="M336.325 28.2893C336.39 28.2257 336.426 28.1382 336.424 28.0475C336.422 27.9568 336.383 27.8709 336.316 27.81C334.979 26.6786 333.022 26.6786 331.686 27.81C331.618 27.8708 331.579 27.9567 331.577 28.0474C331.575 28.1382 331.611 28.2257 331.676 28.2893L333.768 30.4031C333.83 30.4653 333.913 30.5002 334.001 30.5002C334.088 30.5002 334.171 30.4653 334.233 30.4031L336.325 28.2893Z" fill="#3C3C43"/>
<path d="M334 25.369C335.276 25.3689 336.506 25.8435 337.451 26.7005C337.579 26.8221 337.781 26.8195 337.905 26.6946L339.115 25.4711C339.179 25.4069 339.214 25.3198 339.213 25.2293C339.212 25.1389 339.175 25.0526 339.11 24.9897C336.231 22.3088 331.772 22.3088 328.893 24.9897C328.828 25.0526 328.791 25.1389 328.79 25.2294C328.789 25.3199 328.825 25.407 328.889 25.4711L330.098 26.6946C330.222 26.8195 330.424 26.8221 330.552 26.7005C331.497 25.844 332.726 25.3695 334 25.369Z" fill="#3C3C43"/>
<path opacity="0.2" d="M334 21.3883C336.322 21.3884 338.555 22.2813 340.237 23.8825C340.364 24.0061 340.566 24.0045 340.691 23.879L341.902 22.6555C341.965 22.5918 342.001 22.5055 342 22.4158C341.999 22.326 341.963 22.2402 341.899 22.1772C337.483 17.9409 330.517 17.9409 326.101 22.1772C326.037 22.2401 326.001 22.326 326 22.4157C325.999 22.5055 326.035 22.5917 326.098 22.6555L327.309 23.879C327.434 24.0047 327.637 24.0063 327.763 23.8825C329.446 22.2812 331.679 21.3883 334 21.3883Z" fill="#3C3C43"/>
<g clip-path="url(#clip4_394_1286)">
<path d="M348 21.75C348 21.0596 348.56 20.5 349.25 20.5H350V29H349.25C348.56 29 348 28.4404 348 27.75V21.75Z" fill="#3C3C43"/>
<path d="M350 20.5H352V29H350V20.5Z" fill="#3C3C43"/>
<path d="M352 20.5H354V29H352V20.5Z" fill="#3C3C43"/>
<path d="M354 20.5H356V29H354V20.5Z" fill="#3C3C43"/>
<path d="M356 20.5H358V29H356V20.5Z" fill="#3C3C43"/>
<path d="M358 20.5H360V29H358V20.5Z" fill="#3C3C43"/>
<path d="M360 20.5H362V29H360V20.5Z" fill="#3C3C43"/>
<path d="M364 21.75C364 21.0596 363.44 20.5 362.75 20.5H362V29H362.75C363.44 29 364 28.4404 364 27.75V21.75Z" fill="#3C3C43"/>
</g>
<g opacity="0.5">
<path fill-rule="evenodd" clip-rule="evenodd" d="M346 21.5C346 19.8431 347.343 18.5 349 18.5H367C368.657 18.5 370 19.8431 370 21.5V28C370 29.6569 368.657 31 367 31H349C347.343 31 346 29.6569 346 28V21.5ZM349 19.5C347.895 19.5 347 20.3954 347 21.5V28C347 29.1046 347.895 30 349 30H367C368.105 30 369 29.1046 369 28V21.5C369 20.3954 368.105 19.5 367 19.5H349Z" fill="#3C3C43"/>
<path d="M371 27.042C371.883 26.6562 372.5 25.7751 372.5 24.75C372.5 23.7248 371.883 22.8438 371 22.458V27.042Z" fill="#3C3C43"/>
</g>
</g>
</g>
<path d="M136.5 843L252.5 843" stroke="black" stroke-width="4" stroke-linecap="round"/>
<path d="M47.5533 413.918C48.1226 414.077 48.5706 414.366 48.8973 414.786C49.2239 415.197 49.3873 415.719 49.3873 416.354C49.3873 417.203 49.0653 417.857 48.4213 418.314C47.7866 418.771 46.8579 419 45.6353 419H40.9593V409.2H45.3553C46.4753 409.2 47.3386 409.424 47.9453 409.872C48.5613 410.32 48.8693 410.941 48.8693 411.734C48.8693 412.247 48.7479 412.691 48.5053 413.064C48.2719 413.437 47.9546 413.722 47.5533 413.918ZM42.3593 410.334V413.47H45.2293C45.9479 413.47 46.4986 413.339 46.8813 413.078C47.2733 412.807 47.4693 412.415 47.4693 411.902C47.4693 411.389 47.2733 411.001 46.8813 410.74C46.4986 410.469 45.9479 410.334 45.2293 410.334H42.3593ZM45.5793 417.866C46.3726 417.866 46.9699 417.735 47.3713 417.474C47.7726 417.213 47.9733 416.802 47.9733 416.242C47.9733 415.15 47.1753 414.604 45.5793 414.604H42.3593V417.866H45.5793ZM54.061 411.51C55.0876 411.51 55.8716 411.762 56.413 412.266C56.9636 412.77 57.239 413.521 57.239 414.52V419H55.965V418.02C55.741 418.365 55.419 418.631 54.999 418.818C54.5883 418.995 54.0983 419.084 53.529 419.084C52.6983 419.084 52.031 418.883 51.527 418.482C51.0323 418.081 50.785 417.553 50.785 416.9C50.785 416.247 51.023 415.724 51.499 415.332C51.975 414.931 52.731 414.73 53.767 414.73H55.895V414.464C55.895 413.885 55.727 413.442 55.391 413.134C55.055 412.826 54.5603 412.672 53.907 412.672C53.4683 412.672 53.039 412.747 52.619 412.896C52.199 413.036 51.8443 413.227 51.555 413.47L50.995 412.462C51.3776 412.154 51.835 411.921 52.367 411.762C52.899 411.594 53.4636 411.51 54.061 411.51ZM53.753 418.048C54.2663 418.048 54.7096 417.936 55.083 417.712C55.4563 417.479 55.727 417.152 55.895 416.732V415.696H53.823C52.6843 415.696 52.115 416.079 52.115 416.844C52.115 417.217 52.2596 417.511 52.549 417.726C52.8383 417.941 53.2396 418.048 53.753 418.048ZM63.6601 411.51C64.3788 411.51 65.0228 411.669 65.5921 411.986C66.1615 412.303 66.6048 412.747 66.9221 413.316C67.2488 413.885 67.4121 414.543 67.4121 415.29C67.4121 416.037 67.2488 416.699 66.9221 417.278C66.6048 417.847 66.1615 418.291 65.5921 418.608C65.0228 418.925 64.3788 419.084 63.6601 419.084C63.1095 419.084 62.6055 418.977 62.1481 418.762C61.6908 418.547 61.3128 418.235 61.0141 417.824V419H59.7261V408.612H61.0701V412.7C61.3688 412.308 61.7421 412.014 62.1901 411.818C62.6381 411.613 63.1281 411.51 63.6601 411.51ZM63.5481 417.908C64.0241 417.908 64.4488 417.801 64.8221 417.586C65.2048 417.362 65.5035 417.054 65.7181 416.662C65.9421 416.261 66.0541 415.803 66.0541 415.29C66.0541 414.777 65.9421 414.324 65.7181 413.932C65.5035 413.531 65.2048 413.223 64.8221 413.008C64.4488 412.793 64.0241 412.686 63.5481 412.686C63.0815 412.686 62.6568 412.793 62.2741 413.008C61.8915 413.223 61.5928 413.531 61.3781 413.932C61.1635 414.324 61.0561 414.777 61.0561 415.29C61.0561 415.803 61.1635 416.261 61.3781 416.662C61.5928 417.054 61.8915 417.362 62.2741 417.586C62.6568 417.801 63.0815 417.908 63.5481 417.908ZM75.63 411.58L72.032 419.742C71.7147 420.498 71.3414 421.03 70.912 421.338C70.492 421.646 69.9834 421.8 69.386 421.8C69.022 421.8 68.6674 421.739 68.322 421.618C67.986 421.506 67.706 421.338 67.482 421.114L68.056 420.106C68.4387 420.47 68.882 420.652 69.386 420.652C69.7127 420.652 69.9834 420.563 70.198 420.386C70.422 420.218 70.6227 419.924 70.8 419.504L71.038 418.986L67.762 411.58H69.162L71.752 417.516L74.314 411.58H75.63ZM77.4528 408.528C77.7141 408.528 77.9288 408.621 78.0968 408.808C78.2741 408.985 78.3628 409.209 78.3628 409.48C78.3628 409.62 78.3488 409.76 78.3208 409.9C78.2928 410.031 78.2321 410.222 78.1388 410.474L77.4668 412.434H76.5848L77.1028 410.348C76.9254 410.283 76.7808 410.175 76.6688 410.026C76.5661 409.867 76.5148 409.685 76.5148 409.48C76.5148 409.2 76.6034 408.971 76.7808 408.794C76.9581 408.617 77.1821 408.528 77.4528 408.528ZM82.1842 419.084C81.5776 419.084 80.9942 419.005 80.4342 418.846C79.8742 418.678 79.4356 418.468 79.1182 418.216L79.6782 417.152C80.0049 417.385 80.4016 417.572 80.8682 417.712C81.3349 417.852 81.8062 417.922 82.2822 417.922C83.4582 417.922 84.0462 417.586 84.0462 416.914C84.0462 416.69 83.9669 416.513 83.8082 416.382C83.6496 416.251 83.4489 416.158 83.2062 416.102C82.9729 416.037 82.6369 415.967 82.1982 415.892C81.6009 415.799 81.1109 415.691 80.7282 415.57C80.3549 415.449 80.0329 415.243 79.7622 414.954C79.4916 414.665 79.3562 414.259 79.3562 413.736C79.3562 413.064 79.6362 412.527 80.1962 412.126C80.7562 411.715 81.5076 411.51 82.4502 411.51C82.9449 411.51 83.4396 411.571 83.9342 411.692C84.4289 411.813 84.8349 411.977 85.1522 412.182L84.5782 413.246C83.9716 412.854 83.2576 412.658 82.4362 412.658C81.8669 412.658 81.4329 412.751 81.1342 412.938C80.8356 413.125 80.6862 413.372 80.6862 413.68C80.6862 413.923 80.7702 414.114 80.9382 414.254C81.1062 414.394 81.3116 414.497 81.5542 414.562C81.8062 414.627 82.1562 414.702 82.6042 414.786C83.2016 414.889 83.6822 415.001 84.0462 415.122C84.4196 415.234 84.7369 415.43 84.9982 415.71C85.2596 415.99 85.3902 416.382 85.3902 416.886C85.3902 417.558 85.1009 418.095 84.5222 418.496C83.9529 418.888 83.1736 419.084 82.1842 419.084ZM99.4537 409.2V419H98.3057L92.4257 411.692V419H91.0257V409.2H92.1737L98.0537 416.508V409.2H99.4537ZM104.893 411.51C105.92 411.51 106.704 411.762 107.245 412.266C107.796 412.77 108.071 413.521 108.071 414.52V419H106.797V418.02C106.573 418.365 106.251 418.631 105.831 418.818C105.42 418.995 104.93 419.084 104.361 419.084C103.53 419.084 102.863 418.883 102.359 418.482C101.864 418.081 101.617 417.553 101.617 416.9C101.617 416.247 101.855 415.724 102.331 415.332C102.807 414.931 103.563 414.73 104.599 414.73H106.727V414.464C106.727 413.885 106.559 413.442 106.223 413.134C105.887 412.826 105.392 412.672 104.739 412.672C104.3 412.672 103.871 412.747 103.451 412.896C103.031 413.036 102.676 413.227 102.387 413.47L101.827 412.462C102.21 412.154 102.667 411.921 103.199 411.762C103.731 411.594 104.296 411.51 104.893 411.51ZM104.585 418.048C105.098 418.048 105.542 417.936 105.915 417.712C106.288 417.479 106.559 417.152 106.727 416.732V415.696H104.655C103.516 415.696 102.947 416.079 102.947 416.844C102.947 417.217 103.092 417.511 103.381 417.726C103.67 417.941 104.072 418.048 104.585 418.048ZM119.84 411.51C120.774 411.51 121.511 411.781 122.052 412.322C122.603 412.863 122.878 413.666 122.878 414.73V419H121.534V414.884C121.534 414.165 121.366 413.624 121.03 413.26C120.704 412.896 120.232 412.714 119.616 412.714C118.935 412.714 118.394 412.929 117.992 413.358C117.591 413.778 117.39 414.385 117.39 415.178V419H116.046V414.884C116.046 414.165 115.878 413.624 115.542 413.26C115.216 412.896 114.744 412.714 114.128 412.714C113.447 412.714 112.906 412.929 112.504 413.358C112.103 413.778 111.902 414.385 111.902 415.178V419H110.558V411.58H111.846V412.686C112.117 412.303 112.472 412.014 112.91 411.818C113.349 411.613 113.848 411.51 114.408 411.51C114.987 411.51 115.5 411.627 115.948 411.86C116.396 412.093 116.742 412.434 116.984 412.882C117.264 412.453 117.652 412.117 118.146 411.874C118.65 411.631 119.215 411.51 119.84 411.51ZM132.098 415.332C132.098 415.435 132.089 415.57 132.07 415.738H126.05C126.134 416.391 126.419 416.919 126.904 417.32C127.399 417.712 128.01 417.908 128.738 417.908C129.625 417.908 130.339 417.609 130.88 417.012L131.622 417.88C131.286 418.272 130.866 418.571 130.362 418.776C129.867 418.981 129.312 419.084 128.696 419.084C127.912 419.084 127.217 418.925 126.61 418.608C126.003 418.281 125.532 417.829 125.196 417.25C124.869 416.671 124.706 416.018 124.706 415.29C124.706 414.571 124.865 413.923 125.182 413.344C125.509 412.765 125.952 412.317 126.512 412C127.081 411.673 127.721 411.51 128.43 411.51C129.139 411.51 129.769 411.673 130.32 412C130.88 412.317 131.314 412.765 131.622 413.344C131.939 413.923 132.098 414.585 132.098 415.332ZM128.43 412.644C127.786 412.644 127.245 412.84 126.806 413.232C126.377 413.624 126.125 414.137 126.05 414.772H130.81C130.735 414.147 130.479 413.638 130.04 413.246C129.611 412.845 129.074 412.644 128.43 412.644ZM139.446 421.716C138.914 420.857 138.504 419.873 138.214 418.762C137.925 417.642 137.78 416.443 137.78 415.164C137.78 413.885 137.925 412.686 138.214 411.566C138.504 410.437 138.914 409.452 139.446 408.612H140.72C140.16 409.592 139.75 410.619 139.488 411.692C139.227 412.765 139.096 413.923 139.096 415.164C139.096 416.405 139.227 417.563 139.488 418.636C139.75 419.709 140.16 420.736 140.72 421.716H139.446ZM151.065 409.2V419H149.917L144.037 411.692V419H142.637V409.2H143.785L149.665 416.508V409.2H151.065ZM153.802 411.58H155.146V419H153.802V411.58ZM154.474 410.152C154.213 410.152 153.994 410.068 153.816 409.9C153.648 409.732 153.564 409.527 153.564 409.284C153.564 409.041 153.648 408.836 153.816 408.668C153.994 408.491 154.213 408.402 154.474 408.402C154.736 408.402 154.95 408.486 155.118 408.654C155.296 408.813 155.384 409.013 155.384 409.256C155.384 409.508 155.296 409.723 155.118 409.9C154.95 410.068 154.736 410.152 154.474 410.152ZM160.946 419.084C160.19 419.084 159.514 418.921 158.916 418.594C158.328 418.267 157.866 417.819 157.53 417.25C157.194 416.671 157.026 416.018 157.026 415.29C157.026 414.562 157.194 413.913 157.53 413.344C157.866 412.765 158.328 412.317 158.916 412C159.514 411.673 160.19 411.51 160.946 411.51C161.618 411.51 162.216 411.645 162.738 411.916C163.27 412.187 163.681 412.579 163.97 413.092L162.948 413.75C162.715 413.395 162.426 413.129 162.08 412.952C161.735 412.775 161.352 412.686 160.932 412.686C160.447 412.686 160.008 412.793 159.616 413.008C159.234 413.223 158.93 413.531 158.706 413.932C158.492 414.324 158.384 414.777 158.384 415.29C158.384 415.813 158.492 416.275 158.706 416.676C158.93 417.068 159.234 417.371 159.616 417.586C160.008 417.801 160.447 417.908 160.932 417.908C161.352 417.908 161.735 417.819 162.08 417.642C162.426 417.465 162.715 417.199 162.948 416.844L163.97 417.488C163.681 418.001 163.27 418.398 162.738 418.678C162.216 418.949 161.618 419.084 160.946 419.084ZM168.499 415.542L166.959 416.97V419H165.615V408.612H166.959V415.276L171.005 411.58H172.629L169.507 414.646L172.937 419H171.285L168.499 415.542ZM178.108 411.51C179.051 411.51 179.797 411.785 180.348 412.336C180.908 412.877 181.188 413.675 181.188 414.73V419H179.844V414.884C179.844 414.165 179.671 413.624 179.326 413.26C178.981 412.896 178.486 412.714 177.842 412.714C177.114 412.714 176.54 412.929 176.12 413.358C175.7 413.778 175.49 414.385 175.49 415.178V419H174.146V411.58H175.434V412.7C175.705 412.317 176.069 412.023 176.526 411.818C176.993 411.613 177.52 411.51 178.108 411.51ZM186.377 411.51C187.404 411.51 188.188 411.762 188.729 412.266C189.28 412.77 189.555 413.521 189.555 414.52V419H188.281V418.02C188.057 418.365 187.735 418.631 187.315 418.818C186.905 418.995 186.415 419.084 185.845 419.084C185.015 419.084 184.347 418.883 183.843 418.482C183.349 418.081 183.101 417.553 183.101 416.9C183.101 416.247 183.339 415.724 183.815 415.332C184.291 414.931 185.047 414.73 186.083 414.73H188.211V414.464C188.211 413.885 188.043 413.442 187.707 413.134C187.371 412.826 186.877 412.672 186.223 412.672C185.785 412.672 185.355 412.747 184.935 412.896C184.515 413.036 184.161 413.227 183.871 413.47L183.311 412.462C183.694 412.154 184.151 411.921 184.683 411.762C185.215 411.594 185.78 411.51 186.377 411.51ZM186.069 418.048C186.583 418.048 187.026 417.936 187.399 417.712C187.773 417.479 188.043 417.152 188.211 416.732V415.696H186.139C185.001 415.696 184.431 416.079 184.431 416.844C184.431 417.217 184.576 417.511 184.865 417.726C185.155 417.941 185.556 418.048 186.069 418.048ZM201.325 411.51C202.258 411.51 202.995 411.781 203.537 412.322C204.087 412.863 204.363 413.666 204.363 414.73V419H203.019V414.884C203.019 414.165 202.851 413.624 202.515 413.26C202.188 412.896 201.717 412.714 201.101 412.714C200.419 412.714 199.878 412.929 199.477 413.358C199.075 413.778 198.875 414.385 198.875 415.178V419H197.531V414.884C197.531 414.165 197.363 413.624 197.027 413.26C196.7 412.896 196.229 412.714 195.613 412.714C194.931 412.714 194.39 412.929 193.989 413.358C193.587 413.778 193.387 414.385 193.387 415.178V419H192.043V411.58H193.331V412.686C193.601 412.303 193.956 412.014 194.395 411.818C194.833 411.613 195.333 411.51 195.893 411.51C196.471 411.51 196.985 411.627 197.433 411.86C197.881 412.093 198.226 412.434 198.469 412.882C198.749 412.453 199.136 412.117 199.631 411.874C200.135 411.631 200.699 411.51 201.325 411.51ZM213.583 415.332C213.583 415.435 213.573 415.57 213.555 415.738H207.535C207.619 416.391 207.903 416.919 208.389 417.32C208.883 417.712 209.495 417.908 210.223 417.908C211.109 417.908 211.823 417.609 212.365 417.012L213.107 417.88C212.771 418.272 212.351 418.571 211.847 418.776C211.352 418.981 210.797 419.084 210.181 419.084C209.397 419.084 208.701 418.925 208.095 418.608C207.488 418.281 207.017 417.829 206.681 417.25C206.354 416.671 206.191 416.018 206.191 415.29C206.191 414.571 206.349 413.923 206.667 413.344C206.993 412.765 207.437 412.317 207.997 412C208.566 411.673 209.205 411.51 209.915 411.51C210.624 411.51 211.254 411.673 211.805 412C212.365 412.317 212.799 412.765 213.107 413.344C213.424 413.923 213.583 414.585 213.583 415.332ZM209.915 412.644C209.271 412.644 208.729 412.84 208.291 413.232C207.861 413.624 207.609 414.137 207.535 414.772H212.295C212.22 414.147 211.963 413.638 211.525 413.246C211.095 412.845 210.559 412.644 209.915 412.644ZM214.623 421.716C215.183 420.736 215.593 419.709 215.855 418.636C216.125 417.563 216.261 416.405 216.261 415.164C216.261 413.923 216.125 412.765 215.855 411.692C215.593 410.619 215.183 409.592 214.623 408.612H215.897C216.438 409.452 216.853 410.432 217.143 411.552C217.432 412.672 217.577 413.876 217.577 415.164C217.577 416.443 217.432 417.642 217.143 418.762C216.853 419.882 216.438 420.867 215.897 421.716H214.623ZM222.573 411.216L224.239 412.154L223.805 412.924L222.111 411.93L222.125 413.834H221.285L221.299 411.93L219.605 412.924L219.171 412.154L220.851 411.216L219.171 410.292L219.605 409.508L221.299 410.502L221.285 408.612H222.125L222.111 410.502L223.805 409.508L224.239 410.292L222.573 411.216Z" fill="#3C3C43"/>
<path d="M47.2661 628.918C47.8355 629.077 48.2835 629.366 48.6101 629.786C48.9368 630.197 49.1001 630.719 49.1001 631.354C49.1001 632.203 48.7781 632.857 48.1341 633.314C47.4995 633.771 46.5708 634 45.3481 634H40.6721V624.2H45.0681C46.1881 624.2 47.0515 624.424 47.6581 624.872C48.2741 625.32 48.5821 625.941 48.5821 626.734C48.5821 627.247 48.4608 627.691 48.2181 628.064C47.9848 628.437 47.6675 628.722 47.2661 628.918ZM42.0721 625.334V628.47H44.9421C45.6608 628.47 46.2115 628.339 46.5941 628.078C46.9861 627.807 47.1821 627.415 47.1821 626.902C47.1821 626.389 46.9861 626.001 46.5941 625.74C46.2115 625.469 45.6608 625.334 44.9421 625.334H42.0721ZM45.2921 632.866C46.0855 632.866 46.6828 632.735 47.0841 632.474C47.4855 632.213 47.6861 631.802 47.6861 631.242C47.6861 630.15 46.8881 629.604 45.2921 629.604H42.0721V632.866H45.2921ZM51.0719 626.58H52.4159V634H51.0719V626.58ZM51.7439 625.152C51.4825 625.152 51.2632 625.068 51.0859 624.9C50.9179 624.732 50.8339 624.527 50.8339 624.284C50.8339 624.041 50.9179 623.836 51.0859 623.668C51.2632 623.491 51.4825 623.402 51.7439 623.402C52.0052 623.402 52.2199 623.486 52.3879 623.654C52.5652 623.813 52.6539 624.013 52.6539 624.256C52.6539 624.508 52.5652 624.723 52.3879 624.9C52.2199 625.068 52.0052 625.152 51.7439 625.152ZM56.27 627.826C56.5033 627.397 56.8487 627.07 57.306 626.846C57.7633 626.622 58.3187 626.51 58.972 626.51V627.812C58.8973 627.803 58.7947 627.798 58.664 627.798C57.936 627.798 57.362 628.017 56.942 628.456C56.5313 628.885 56.326 629.501 56.326 630.304V634H54.982V626.58H56.27V627.826ZM65.1013 633.566C64.9053 633.734 64.6626 633.865 64.3733 633.958C64.0839 634.042 63.7853 634.084 63.4773 634.084C62.7306 634.084 62.1519 633.883 61.7413 633.482C61.3306 633.081 61.1253 632.507 61.1253 631.76V627.686H59.8653V626.58H61.1253V624.956H62.4693V626.58H64.5973V627.686H62.4693V631.704C62.4693 632.105 62.5673 632.413 62.7633 632.628C62.9686 632.843 63.2579 632.95 63.6313 632.95C64.0419 632.95 64.3919 632.833 64.6813 632.6L65.1013 633.566ZM70.6881 626.51C71.6308 626.51 72.3775 626.785 72.9281 627.336C73.4881 627.877 73.7681 628.675 73.7681 629.73V634H72.4241V629.884C72.4241 629.165 72.2515 628.624 71.9061 628.26C71.5608 627.896 71.0661 627.714 70.4221 627.714C69.6941 627.714 69.1201 627.929 68.7001 628.358C68.2801 628.778 68.0701 629.385 68.0701 630.178V634H66.7261V623.612H68.0701V627.63C68.3501 627.275 68.7141 627 69.1621 626.804C69.6195 626.608 70.1281 626.51 70.6881 626.51ZM80.2112 624.2H84.3412C85.3772 624.2 86.2965 624.405 87.0992 624.816C87.9019 625.227 88.5225 625.805 88.9612 626.552C89.4092 627.289 89.6332 628.139 89.6332 629.1C89.6332 630.061 89.4092 630.915 88.9612 631.662C88.5225 632.399 87.9019 632.973 87.0992 633.384C86.2965 633.795 85.3772 634 84.3412 634H80.2112V624.2ZM84.2572 632.782C85.0505 632.782 85.7459 632.628 86.3432 632.32C86.9499 632.012 87.4165 631.583 87.7432 631.032C88.0699 630.472 88.2332 629.828 88.2332 629.1C88.2332 628.372 88.0699 627.733 87.7432 627.182C87.4165 626.622 86.9499 626.188 86.3432 625.88C85.7459 625.572 85.0505 625.418 84.2572 625.418H81.6112V632.782H84.2572ZM94.2836 626.51C95.3103 626.51 96.0943 626.762 96.6356 627.266C97.1863 627.77 97.4616 628.521 97.4616 629.52V634H96.1876V633.02C95.9636 633.365 95.6416 633.631 95.2216 633.818C94.811 633.995 94.321 634.084 93.7516 634.084C92.921 634.084 92.2536 633.883 91.7496 633.482C91.255 633.081 91.0076 632.553 91.0076 631.9C91.0076 631.247 91.2456 630.724 91.7216 630.332C92.1976 629.931 92.9536 629.73 93.9896 629.73H96.1176V629.464C96.1176 628.885 95.9496 628.442 95.6136 628.134C95.2776 627.826 94.783 627.672 94.1296 627.672C93.691 627.672 93.2616 627.747 92.8416 627.896C92.4216 628.036 92.067 628.227 91.7776 628.47L91.2176 627.462C91.6003 627.154 92.0576 626.921 92.5896 626.762C93.1216 626.594 93.6863 626.51 94.2836 626.51ZM93.9756 633.048C94.489 633.048 94.9323 632.936 95.3056 632.712C95.679 632.479 95.9496 632.152 96.1176 631.732V630.696H94.0456C92.907 630.696 92.3376 631.079 92.3376 631.844C92.3376 632.217 92.4823 632.511 92.7716 632.726C93.061 632.941 93.4623 633.048 93.9756 633.048ZM104.121 633.566C103.925 633.734 103.682 633.865 103.393 633.958C103.103 634.042 102.805 634.084 102.497 634.084C101.75 634.084 101.171 633.883 100.761 633.482C100.35 633.081 100.145 632.507 100.145 631.76V627.686H98.8848V626.58H100.145V624.956H101.489V626.58H103.617V627.686H101.489V631.704C101.489 632.105 101.587 632.413 101.783 632.628C101.988 632.843 102.277 632.95 102.651 632.95C103.061 632.95 103.411 632.833 103.701 632.6L104.121 633.566ZM112.206 630.332C112.206 630.435 112.196 630.57 112.178 630.738H106.158C106.242 631.391 106.526 631.919 107.012 632.32C107.506 632.712 108.118 632.908 108.846 632.908C109.732 632.908 110.446 632.609 110.988 632.012L111.73 632.88C111.394 633.272 110.974 633.571 110.47 633.776C109.975 633.981 109.42 634.084 108.804 634.084C108.02 634.084 107.324 633.925 106.718 633.608C106.111 633.281 105.64 632.829 105.304 632.25C104.977 631.671 104.814 631.018 104.814 630.29C104.814 629.571 104.972 628.923 105.29 628.344C105.616 627.765 106.06 627.317 106.62 627C107.189 626.673 107.828 626.51 108.538 626.51C109.247 626.51 109.877 626.673 110.428 627C110.988 627.317 111.422 627.765 111.73 628.344C112.047 628.923 112.206 629.585 112.206 630.332ZM108.538 627.644C107.894 627.644 107.352 627.84 106.914 628.232C106.484 628.624 106.232 629.137 106.158 629.772H110.918C110.843 629.147 110.586 628.638 110.148 628.246C109.718 627.845 109.182 627.644 108.538 627.644Z" fill="#3C3C43"/>
<path d="M227.964 634V624.2H232.36C233.489 624.2 234.357 624.429 234.964 624.886C235.571 625.334 235.874 625.95 235.874 626.734C235.874 627.266 235.753 627.714 235.51 628.078C235.277 628.442 234.959 628.722 234.558 628.918C234.157 629.114 233.723 629.212 233.256 629.212L233.508 628.792C234.068 628.792 234.563 628.89 234.992 629.086C235.421 629.282 235.762 629.571 236.014 629.954C236.266 630.327 236.392 630.794 236.392 631.354C236.392 632.194 236.075 632.847 235.44 633.314C234.815 633.771 233.881 634 232.64 634H227.964ZM229.364 632.866H232.584C233.359 632.866 233.951 632.735 234.362 632.474C234.773 632.213 234.978 631.802 234.978 631.242C234.978 630.673 234.773 630.257 234.362 629.996C233.951 629.735 233.359 629.604 232.584 629.604H229.238V628.47H232.234C232.943 628.47 233.494 628.339 233.886 628.078C234.278 627.817 234.474 627.425 234.474 626.902C234.474 626.379 234.278 625.987 233.886 625.726C233.494 625.465 232.943 625.334 232.234 625.334H229.364V632.866ZM238.364 634V626.58H239.708V634H238.364ZM239.036 625.152C238.775 625.152 238.555 625.068 238.378 624.9C238.21 624.732 238.126 624.527 238.126 624.284C238.126 624.032 238.21 623.822 238.378 623.654C238.555 623.486 238.775 623.402 239.036 623.402C239.297 623.402 239.512 623.486 239.68 623.654C239.857 623.813 239.946 624.013 239.946 624.256C239.946 624.508 239.862 624.723 239.694 624.9C239.526 625.068 239.307 625.152 239.036 625.152ZM242.274 634V626.58H243.562V628.596L243.436 628.092C243.641 627.579 243.987 627.187 244.472 626.916C244.957 626.645 245.555 626.51 246.264 626.51V627.812C246.208 627.803 246.152 627.798 246.096 627.798C246.049 627.798 246.003 627.798 245.956 627.798C245.237 627.798 244.668 628.013 244.248 628.442C243.828 628.871 243.618 629.492 243.618 630.304V634H242.274ZM250.769 634.084C250.023 634.084 249.444 633.883 249.033 633.482C248.623 633.081 248.417 632.507 248.417 631.76V624.956H249.761V631.704C249.761 632.105 249.859 632.413 250.055 632.628C250.261 632.843 250.55 632.95 250.923 632.95C251.343 632.95 251.693 632.833 251.973 632.6L252.393 633.566C252.188 633.743 251.941 633.874 251.651 633.958C251.371 634.042 251.077 634.084 250.769 634.084ZM247.157 627.686V626.58H251.889V627.686H247.157ZM257.98 626.51C258.587 626.51 259.119 626.627 259.576 626.86C260.043 627.093 260.407 627.448 260.668 627.924C260.929 628.4 261.06 629.002 261.06 629.73V634H259.716V629.884C259.716 629.165 259.539 628.624 259.184 628.26C258.839 627.896 258.349 627.714 257.714 627.714C257.238 627.714 256.823 627.807 256.468 627.994C256.113 628.181 255.838 628.456 255.642 628.82C255.455 629.184 255.362 629.637 255.362 630.178V634H254.018V623.612H255.362V628.582L255.096 628.05C255.339 627.565 255.712 627.187 256.216 626.916C256.72 626.645 257.308 626.51 257.98 626.51ZM269.757 634L266.481 624.2H267.923L270.933 633.244H270.205L273.327 624.2H274.615L277.667 633.244H276.967L280.019 624.2H281.349L278.073 634H276.603L273.747 625.614H274.125L271.255 634H269.757ZM285.609 634.084C284.816 634.084 284.116 633.921 283.509 633.594C282.912 633.267 282.445 632.819 282.109 632.25C281.783 631.681 281.619 631.027 281.619 630.29C281.619 629.553 281.778 628.899 282.095 628.33C282.422 627.761 282.865 627.317 283.425 627C283.995 626.673 284.634 626.51 285.343 626.51C286.062 626.51 286.697 626.669 287.247 626.986C287.798 627.303 288.227 627.751 288.535 628.33C288.853 628.899 289.011 629.567 289.011 630.332C289.011 630.388 289.007 630.453 288.997 630.528C288.997 630.603 288.993 630.673 288.983 630.738H282.669V629.772H288.283L287.737 630.108C287.747 629.632 287.649 629.207 287.443 628.834C287.238 628.461 286.953 628.171 286.589 627.966C286.235 627.751 285.819 627.644 285.343 627.644C284.877 627.644 284.461 627.751 284.097 627.966C283.733 628.171 283.449 628.465 283.243 628.848C283.038 629.221 282.935 629.651 282.935 630.136V630.36C282.935 630.855 283.047 631.298 283.271 631.69C283.505 632.073 283.827 632.371 284.237 632.586C284.648 632.801 285.119 632.908 285.651 632.908C286.09 632.908 286.487 632.833 286.841 632.684C287.205 632.535 287.523 632.311 287.793 632.012L288.535 632.88C288.199 633.272 287.779 633.571 287.275 633.776C286.781 633.981 286.225 634.084 285.609 634.084ZM290.878 634V626.58H292.222V634H290.878ZM291.55 625.152C291.288 625.152 291.069 625.068 290.892 624.9C290.724 624.732 290.64 624.527 290.64 624.284C290.64 624.032 290.724 623.822 290.892 623.654C291.069 623.486 291.288 623.402 291.55 623.402C291.811 623.402 292.026 623.486 292.194 623.654C292.371 623.813 292.46 624.013 292.46 624.256C292.46 624.508 292.376 624.723 292.208 624.9C292.04 625.068 291.82 625.152 291.55 625.152ZM298.036 636.8C297.354 636.8 296.692 636.702 296.048 636.506C295.413 636.319 294.895 636.049 294.494 635.694L295.138 634.658C295.483 634.957 295.908 635.19 296.412 635.358C296.916 635.535 297.443 635.624 297.994 635.624C298.871 635.624 299.515 635.419 299.926 635.008C300.336 634.597 300.542 633.972 300.542 633.132V631.564L300.682 630.094L300.612 628.61V626.58H301.886V632.992C301.886 634.299 301.559 635.26 300.906 635.876C300.252 636.492 299.296 636.8 298.036 636.8ZM297.868 633.692C297.149 633.692 296.505 633.543 295.936 633.244C295.376 632.936 294.928 632.511 294.592 631.97C294.265 631.429 294.102 630.803 294.102 630.094C294.102 629.375 294.265 628.75 294.592 628.218C294.928 627.677 295.376 627.257 295.936 626.958C296.505 626.659 297.149 626.51 297.868 626.51C298.502 626.51 299.081 626.641 299.604 626.902C300.126 627.154 300.542 627.546 300.85 628.078C301.167 628.61 301.326 629.282 301.326 630.094C301.326 630.897 301.167 631.564 300.85 632.096C300.542 632.628 300.126 633.029 299.604 633.3C299.081 633.561 298.502 633.692 297.868 633.692ZM298.022 632.516C298.516 632.516 298.955 632.413 299.338 632.208C299.72 632.003 300.019 631.718 300.234 631.354C300.458 630.99 300.57 630.57 300.57 630.094C300.57 629.618 300.458 629.198 300.234 628.834C300.019 628.47 299.72 628.19 299.338 627.994C298.955 627.789 298.516 627.686 298.022 627.686C297.527 627.686 297.084 627.789 296.692 627.994C296.309 628.19 296.006 628.47 295.782 628.834C295.567 629.198 295.46 629.618 295.46 630.094C295.46 630.57 295.567 630.99 295.782 631.354C296.006 631.718 296.309 632.003 296.692 632.208C297.084 632.413 297.527 632.516 298.022 632.516ZM308.416 626.51C309.022 626.51 309.554 626.627 310.012 626.86C310.478 627.093 310.842 627.448 311.104 627.924C311.365 628.4 311.496 629.002 311.496 629.73V634H310.152V629.884C310.152 629.165 309.974 628.624 309.62 628.26C309.274 627.896 308.784 627.714 308.15 627.714C307.674 627.714 307.258 627.807 306.904 627.994C306.549 628.181 306.274 628.456 306.078 628.82C305.891 629.184 305.798 629.637 305.798 630.178V634H304.454V623.612H305.798V628.582L305.532 628.05C305.774 627.565 306.148 627.187 306.652 626.916C307.156 626.645 307.744 626.51 308.416 626.51ZM316.531 634.084C315.784 634.084 315.206 633.883 314.795 633.482C314.384 633.081 314.179 632.507 314.179 631.76V624.956H315.523V631.704C315.523 632.105 315.621 632.413 315.817 632.628C316.022 632.843 316.312 632.95 316.685 632.95C317.105 632.95 317.455 632.833 317.735 632.6L318.155 633.566C317.95 633.743 317.702 633.874 317.413 633.958C317.133 634.042 316.839 634.084 316.531 634.084ZM312.919 627.686V626.58H317.651V627.686H312.919Z" fill="#3C3C43"/>
<path d="M341.456 666V654.128H342.992V666H341.456ZM350.421 666.096C349.695 666.096 349.039 665.936 348.453 665.616C347.877 665.285 347.418 664.8 347.077 664.16C346.746 663.52 346.581 662.72 346.581 661.76C346.581 660.8 346.751 660 347.093 659.36C347.445 658.72 347.909 658.24 348.485 657.92C349.071 657.6 349.717 657.44 350.421 657.44C351.253 657.44 351.989 657.621 352.629 657.984C353.269 658.347 353.775 658.853 354.149 659.504C354.522 660.144 354.709 660.896 354.709 661.76C354.709 662.624 354.522 663.381 354.149 664.032C353.775 664.683 353.269 665.189 352.629 665.552C351.989 665.915 351.253 666.096 350.421 666.096ZM345.925 666V654.128H347.461V659.776L347.301 661.744L347.397 663.712V666H345.925ZM350.293 664.752C350.837 664.752 351.322 664.629 351.749 664.384C352.186 664.139 352.527 663.792 352.773 663.344C353.029 662.885 353.157 662.357 353.157 661.76C353.157 661.152 353.029 660.629 352.773 660.192C352.527 659.744 352.186 659.397 351.749 659.152C351.322 658.907 350.837 658.784 350.293 658.784C349.759 658.784 349.274 658.907 348.837 659.152C348.41 659.397 348.069 659.744 347.813 660.192C347.567 660.629 347.445 661.152 347.445 661.76C347.445 662.357 347.567 662.885 347.813 663.344C348.069 663.792 348.41 664.139 348.837 664.384C349.274 664.629 349.759 664.752 350.293 664.752ZM359.263 666.096C358.559 666.096 357.887 666 357.247 665.808C356.618 665.616 356.122 665.381 355.759 665.104L356.399 663.888C356.762 664.133 357.21 664.341 357.743 664.512C358.276 664.683 358.82 664.768 359.375 664.768C360.09 664.768 360.602 664.667 360.911 664.464C361.231 664.261 361.391 663.979 361.391 663.616C361.391 663.349 361.295 663.141 361.103 662.992C360.911 662.843 360.655 662.731 360.335 662.656C360.026 662.581 359.679 662.517 359.295 662.464C358.911 662.4 358.527 662.325 358.143 662.24C357.759 662.144 357.407 662.016 357.087 661.856C356.767 661.685 356.511 661.456 356.319 661.168C356.127 660.869 356.031 660.475 356.031 659.984C356.031 659.472 356.175 659.024 356.463 658.64C356.751 658.256 357.156 657.963 357.679 657.76C358.212 657.547 358.842 657.44 359.567 657.44C360.122 657.44 360.682 657.509 361.247 657.648C361.823 657.776 362.292 657.963 362.655 658.208L361.999 659.424C361.615 659.168 361.215 658.992 360.799 658.896C360.383 658.8 359.967 658.752 359.551 658.752C358.879 658.752 358.378 658.864 358.047 659.088C357.716 659.301 357.551 659.579 357.551 659.92C357.551 660.208 357.647 660.432 357.839 660.592C358.042 660.741 358.298 660.859 358.607 660.944C358.927 661.029 359.279 661.104 359.663 661.168C360.047 661.221 360.431 661.296 360.815 661.392C361.199 661.477 361.546 661.6 361.855 661.76C362.175 661.92 362.431 662.144 362.623 662.432C362.826 662.72 362.927 663.104 362.927 663.584C362.927 664.096 362.778 664.539 362.479 664.912C362.18 665.285 361.759 665.579 361.215 665.792C360.671 665.995 360.02 666.096 359.263 666.096Z" fill="#3C3C43"/>
<path d="M47.1089 518.918C47.6783 519.077 48.1263 519.366 48.4529 519.786C48.7796 520.197 48.9429 520.719 48.9429 521.354C48.9429 522.203 48.6209 522.857 47.9769 523.314C47.3423 523.771 46.4136 524 45.1909 524H40.5149V514.2H44.9109C46.0309 514.2 46.8943 514.424 47.5009 514.872C48.1169 515.32 48.4249 515.941 48.4249 516.734C48.4249 517.247 48.3036 517.691 48.0609 518.064C47.8276 518.437 47.5103 518.722 47.1089 518.918ZM41.9149 515.334V518.47H44.7849C45.5036 518.47 46.0543 518.339 46.4369 518.078C46.8289 517.807 47.0249 517.415 47.0249 516.902C47.0249 516.389 46.8289 516.001 46.4369 515.74C46.0543 515.469 45.5036 515.334 44.7849 515.334H41.9149ZM45.1349 522.866C45.9283 522.866 46.5256 522.735 46.9269 522.474C47.3283 522.213 47.5289 521.802 47.5289 521.242C47.5289 520.15 46.7309 519.604 45.1349 519.604H41.9149V522.866H45.1349ZM53.6166 516.51C54.6433 516.51 55.4273 516.762 55.9686 517.266C56.5193 517.77 56.7946 518.521 56.7946 519.52V524H55.5206V523.02C55.2966 523.365 54.9746 523.631 54.5546 523.818C54.144 523.995 53.654 524.084 53.0846 524.084C52.254 524.084 51.5866 523.883 51.0826 523.482C50.588 523.081 50.3406 522.553 50.3406 521.9C50.3406 521.247 50.5786 520.724 51.0546 520.332C51.5306 519.931 52.2866 519.73 53.3226 519.73H55.4506V519.464C55.4506 518.885 55.2826 518.442 54.9466 518.134C54.6106 517.826 54.116 517.672 53.4626 517.672C53.024 517.672 52.5946 517.747 52.1746 517.896C51.7546 518.036 51.4 518.227 51.1106 518.47L50.5506 517.462C50.9333 517.154 51.3906 516.921 51.9226 516.762C52.4546 516.594 53.0193 516.51 53.6166 516.51ZM53.3086 523.048C53.822 523.048 54.2653 522.936 54.6386 522.712C55.012 522.479 55.2826 522.152 55.4506 521.732V520.696H53.3786C52.24 520.696 51.6706 521.079 51.6706 521.844C51.6706 522.217 51.8153 522.511 52.1046 522.726C52.394 522.941 52.7953 523.048 53.3086 523.048ZM63.2158 516.51C63.9345 516.51 64.5785 516.669 65.1478 516.986C65.7171 517.303 66.1605 517.747 66.4778 518.316C66.8045 518.885 66.9678 519.543 66.9678 520.29C66.9678 521.037 66.8045 521.699 66.4778 522.278C66.1605 522.847 65.7171 523.291 65.1478 523.608C64.5785 523.925 63.9345 524.084 63.2158 524.084C62.6651 524.084 62.1611 523.977 61.7038 523.762C61.2465 523.547 60.8685 523.235 60.5698 522.824V524H59.2818V513.612H60.6258V517.7C60.9245 517.308 61.2978 517.014 61.7458 516.818C62.1938 516.613 62.6838 516.51 63.2158 516.51ZM63.1038 522.908C63.5798 522.908 64.0045 522.801 64.3778 522.586C64.7605 522.362 65.0591 522.054 65.2738 521.662C65.4978 521.261 65.6098 520.803 65.6098 520.29C65.6098 519.777 65.4978 519.324 65.2738 518.932C65.0591 518.531 64.7605 518.223 64.3778 518.008C64.0045 517.793 63.5798 517.686 63.1038 517.686C62.6371 517.686 62.2125 517.793 61.8298 518.008C61.4471 518.223 61.1485 518.531 60.9338 518.932C60.7191 519.324 60.6118 519.777 60.6118 520.29C60.6118 520.803 60.7191 521.261 60.9338 521.662C61.1485 522.054 61.4471 522.362 61.8298 522.586C62.2125 522.801 62.6371 522.908 63.1038 522.908ZM75.1857 516.58L71.5877 524.742C71.2704 525.498 70.897 526.03 70.4677 526.338C70.0477 526.646 69.539 526.8 68.9417 526.8C68.5777 526.8 68.223 526.739 67.8777 526.618C67.5417 526.506 67.2617 526.338 67.0377 526.114L67.6117 525.106C67.9944 525.47 68.4377 525.652 68.9417 525.652C69.2684 525.652 69.539 525.563 69.7537 525.386C69.9777 525.218 70.1784 524.924 70.3557 524.504L70.5937 523.986L67.3177 516.58H68.7177L71.3077 522.516L73.8697 516.58H75.1857ZM77.0084 513.528C77.2698 513.528 77.4844 513.621 77.6524 513.808C77.8298 513.985 77.9184 514.209 77.9184 514.48C77.9184 514.62 77.9044 514.76 77.8764 514.9C77.8484 515.031 77.7878 515.222 77.6944 515.474L77.0224 517.434H76.1404L76.6584 515.348C76.4811 515.283 76.3364 515.175 76.2244 515.026C76.1218 514.867 76.0704 514.685 76.0704 514.48C76.0704 514.2 76.1591 513.971 76.3364 513.794C76.5138 513.617 76.7378 513.528 77.0084 513.528ZM81.7399 524.084C81.1332 524.084 80.5499 524.005 79.9899 523.846C79.4299 523.678 78.9912 523.468 78.6739 523.216L79.2339 522.152C79.5606 522.385 79.9572 522.572 80.4239 522.712C80.8906 522.852 81.3619 522.922 81.8379 522.922C83.0139 522.922 83.6019 522.586 83.6019 521.914C83.6019 521.69 83.5226 521.513 83.3639 521.382C83.2052 521.251 83.0046 521.158 82.7619 521.102C82.5286 521.037 82.1926 520.967 81.7539 520.892C81.1566 520.799 80.6666 520.691 80.2839 520.57C79.9106 520.449 79.5886 520.243 79.3179 519.954C79.0472 519.665 78.9119 519.259 78.9119 518.736C78.9119 518.064 79.1919 517.527 79.7519 517.126C80.3119 516.715 81.0632 516.51 82.0059 516.51C82.5006 516.51 82.9952 516.571 83.4899 516.692C83.9846 516.813 84.3906 516.977 84.7079 517.182L84.1339 518.246C83.5272 517.854 82.8132 517.658 81.9919 517.658C81.4226 517.658 80.9886 517.751 80.6899 517.938C80.3912 518.125 80.2419 518.372 80.2419 518.68C80.2419 518.923 80.3259 519.114 80.4939 519.254C80.6619 519.394 80.8672 519.497 81.1099 519.562C81.3619 519.627 81.7119 519.702 82.1599 519.786C82.7572 519.889 83.2379 520.001 83.6019 520.122C83.9752 520.234 84.2926 520.43 84.5539 520.71C84.8152 520.99 84.9459 521.382 84.9459 521.886C84.9459 522.558 84.6566 523.095 84.0779 523.496C83.5086 523.888 82.7292 524.084 81.7399 524.084ZM97.3713 519.044H98.7153V522.866C98.23 523.267 97.6653 523.575 97.0213 523.79C96.3773 524.005 95.7053 524.112 95.0053 524.112C94.016 524.112 93.1247 523.897 92.3313 523.468C91.538 523.029 90.9127 522.432 90.4553 521.676C90.0073 520.911 89.7833 520.052 89.7833 519.1C89.7833 518.148 90.0073 517.289 90.4553 516.524C90.9127 515.759 91.538 515.161 92.3313 514.732C93.134 514.303 94.0347 514.088 95.0333 514.088C95.8173 514.088 96.5267 514.219 97.1613 514.48C97.8053 514.732 98.3513 515.105 98.7993 515.6L97.9313 516.468C97.1473 515.712 96.2 515.334 95.0893 515.334C94.3427 515.334 93.6707 515.497 93.0733 515.824C92.4853 516.141 92.0233 516.589 91.6873 517.168C91.3513 517.737 91.1833 518.381 91.1833 519.1C91.1833 519.809 91.3513 520.453 91.6873 521.032C92.0233 521.601 92.4853 522.049 93.0733 522.376C93.6707 522.703 94.338 522.866 95.0753 522.866C95.9527 522.866 96.718 522.656 97.3713 522.236V519.044ZM107.906 520.332C107.906 520.435 107.896 520.57 107.878 520.738H101.858C101.942 521.391 102.226 521.919 102.712 522.32C103.206 522.712 103.818 522.908 104.546 522.908C105.432 522.908 106.146 522.609 106.688 522.012L107.43 522.88C107.094 523.272 106.674 523.571 106.17 523.776C105.675 523.981 105.12 524.084 104.504 524.084C103.72 524.084 103.024 523.925 102.418 523.608C101.811 523.281 101.34 522.829 101.004 522.25C100.677 521.671 100.514 521.018 100.514 520.29C100.514 519.571 100.672 518.923 100.99 518.344C101.316 517.765 101.76 517.317 102.32 517C102.889 516.673 103.528 516.51 104.238 516.51C104.947 516.51 105.577 516.673 106.128 517C106.688 517.317 107.122 517.765 107.43 518.344C107.747 518.923 107.906 519.585 107.906 520.332ZM104.238 517.644C103.594 517.644 103.052 517.84 102.614 518.232C102.184 518.624 101.932 519.137 101.858 519.772H106.618C106.543 519.147 106.286 518.638 105.848 518.246C105.418 517.845 104.882 517.644 104.238 517.644ZM113.734 516.51C114.677 516.51 115.423 516.785 115.974 517.336C116.534 517.877 116.814 518.675 116.814 519.73V524H115.47V519.884C115.47 519.165 115.297 518.624 114.952 518.26C114.607 517.896 114.112 517.714 113.468 517.714C112.74 517.714 112.166 517.929 111.746 518.358C111.326 518.778 111.116 519.385 111.116 520.178V524H109.772V516.58H111.06V517.7C111.331 517.317 111.695 517.023 112.152 516.818C112.619 516.613 113.146 516.51 113.734 516.51ZM126.342 513.612V524H125.054V522.824C124.756 523.235 124.378 523.547 123.92 523.762C123.463 523.977 122.959 524.084 122.408 524.084C121.69 524.084 121.046 523.925 120.476 523.608C119.907 523.291 119.459 522.847 119.132 522.278C118.815 521.699 118.656 521.037 118.656 520.29C118.656 519.543 118.815 518.885 119.132 518.316C119.459 517.747 119.907 517.303 120.476 516.986C121.046 516.669 121.69 516.51 122.408 516.51C122.94 516.51 123.43 516.613 123.878 516.818C124.326 517.014 124.7 517.308 124.998 517.7V513.612H126.342ZM122.52 522.908C122.987 522.908 123.412 522.801 123.794 522.586C124.177 522.362 124.476 522.054 124.69 521.662C124.905 521.261 125.012 520.803 125.012 520.29C125.012 519.777 124.905 519.324 124.69 518.932C124.476 518.531 124.177 518.223 123.794 518.008C123.412 517.793 122.987 517.686 122.52 517.686C122.044 517.686 121.615 517.793 121.232 518.008C120.859 518.223 120.56 518.531 120.336 518.932C120.122 519.324 120.014 519.777 120.014 520.29C120.014 520.803 120.122 521.261 120.336 521.662C120.56 522.054 120.859 522.362 121.232 522.586C121.615 522.801 122.044 522.908 122.52 522.908ZM135.591 520.332C135.591 520.435 135.582 520.57 135.563 520.738H129.543C129.627 521.391 129.912 521.919 130.397 522.32C130.892 522.712 131.503 522.908 132.231 522.908C133.118 522.908 133.832 522.609 134.373 522.012L135.115 522.88C134.779 523.272 134.359 523.571 133.855 523.776C133.361 523.981 132.805 524.084 132.189 524.084C131.405 524.084 130.71 523.925 130.103 523.608C129.497 523.281 129.025 522.829 128.689 522.25C128.363 521.671 128.199 521.018 128.199 520.29C128.199 519.571 128.358 518.923 128.675 518.344C129.002 517.765 129.445 517.317 130.005 517C130.575 516.673 131.214 516.51 131.923 516.51C132.633 516.51 133.263 516.673 133.813 517C134.373 517.317 134.807 517.765 135.115 518.344C135.433 518.923 135.591 519.585 135.591 520.332ZM131.923 517.644C131.279 517.644 130.738 517.84 130.299 518.232C129.87 518.624 129.618 519.137 129.543 519.772H134.303C134.229 519.147 133.972 518.638 133.533 518.246C133.104 517.845 132.567 517.644 131.923 517.644ZM138.746 517.826C138.979 517.397 139.324 517.07 139.782 516.846C140.239 516.622 140.794 516.51 141.448 516.51V517.812C141.373 517.803 141.27 517.798 141.14 517.798C140.412 517.798 139.838 518.017 139.418 518.456C139.007 518.885 138.802 519.501 138.802 520.304V524H137.458V516.58H138.746V517.826ZM146.018 516.216L147.684 517.154L147.25 517.924L145.556 516.93L145.57 518.834H144.73L144.744 516.93L143.05 517.924L142.616 517.154L144.296 516.216L142.616 515.292L143.05 514.508L144.744 515.502L144.73 513.612H145.57L145.556 515.502L147.25 514.508L147.684 515.292L146.018 516.216Z" fill="#3C3C43"/>
</g>
<defs>
<filter id="filter0_b_394_1286" x="238" y="-56" width="208" height="156" filterUnits="userSpaceOnUse" color-interpolation-filters="sRGB">
<feFlood flood-opacity="0" result="BackgroundImageFix"/>
<feGaussianBlur in="BackgroundImageFix" stdDeviation="28"/>
<feComposite in2="SourceAlpha" operator="in" result="effect1_backgroundBlur_394_1286"/>
<feBlend mode="normal" in="SourceGraphic" in2="effect1_backgroundBlur_394_1286" result="shape"/>
</filter>
<filter id="filter1_b_394_1286" x="238" y="-56" width="208" height="156" filterUnits="userSpaceOnUse" color-interpolation-filters="sRGB">
<feFlood flood-opacity="0" result="BackgroundImageFix"/>
<feGaussianBlur in="BackgroundImageFix" stdDeviation="28"/>
<feComposite in2="SourceAlpha" operator="in" result="effect1_backgroundBlur_394_1286"/>
<feBlend mode="normal" in="SourceGraphic" in2="effect1_backgroundBlur_394_1286" result="shape"/>
</filter>
<clipPath id="clip0_394_1286">
<rect width="390" height="852" fill="white"/>
</clipPath>
<clipPath id="clip1_394_1286">
<rect width="72" height="16" fill="white" transform="translate(302 16)"/>
</clipPath>
<clipPath id="clip2_394_1286">
<rect width="16" height="8.5" fill="white" transform="translate(348 20.5)"/>
</clipPath>
<clipPath id="clip3_394_1286">
<rect width="72" height="16" fill="white" transform="translate(302 16)"/>
</clipPath>
<clipPath id="clip4_394_1286">
<rect width="16" height="8.5" fill="white" transform="translate(348 20.5)"/>
</clipPath>
</defs>
</svg>
