<svg width="393" height="852" viewBox="0 0 393 852" fill="none" xmlns="http://www.w3.org/2000/svg">
<g clip-path="url(#clip0_451_991)">
<rect width="393" height="852" fill="white"/>
<path d="M47.376 111.218C45.0933 111.218 43.024 110.728 41.168 109.746C39.3333 108.744 37.8827 107.368 36.816 105.618C35.7707 103.848 35.248 101.853 35.248 99.6342C35.248 97.4156 35.7707 95.4316 36.816 93.6822C37.8827 91.9116 39.3333 90.5356 41.168 89.5542C43.024 88.5516 45.104 88.0502 47.408 88.0502C49.3493 88.0502 51.0987 88.3916 52.656 89.0742C54.2347 89.7569 55.5573 90.7382 56.624 92.0182L53.296 95.0902C51.7813 93.3409 49.904 92.4662 47.664 92.4662C46.2773 92.4662 45.04 92.7756 43.952 93.3942C42.864 93.9916 42.0107 94.8342 41.392 95.9222C40.7947 97.0102 40.496 98.2476 40.496 99.6342C40.496 101.021 40.7947 102.258 41.392 103.346C42.0107 104.434 42.864 105.288 43.952 105.906C45.04 106.504 46.2773 106.802 47.664 106.802C49.904 106.802 51.7813 105.917 53.296 104.146L56.624 107.218C55.5573 108.52 54.2347 109.512 52.656 110.194C51.0773 110.877 49.3173 111.218 47.376 111.218ZM64.1327 95.8902C64.7301 95.0582 65.5301 94.4289 66.5327 94.0022C67.5567 93.5756 68.7301 93.3622 70.0527 93.3622V97.9702C69.4981 97.9276 69.1247 97.9062 68.9327 97.9062C67.5034 97.9062 66.3834 98.3116 65.5727 99.1222C64.7621 99.9116 64.3567 101.106 64.3567 102.706V110.834H59.3647V93.6182H64.1327V95.8902ZM89.3207 102.29C89.3207 102.354 89.2887 102.802 89.2247 103.634H76.2007C76.4354 104.701 76.9901 105.544 77.8647 106.162C78.7394 106.781 79.8274 107.09 81.1287 107.09C82.0247 107.09 82.8141 106.962 83.4967 106.706C84.2007 106.429 84.8514 106.002 85.4487 105.426L88.1047 108.306C86.4834 110.162 84.1154 111.09 81.0007 111.09C79.0594 111.09 77.3421 110.717 75.8487 109.97C74.3554 109.202 73.2034 108.146 72.3927 106.802C71.5821 105.458 71.1767 103.933 71.1767 102.226C71.1767 100.541 71.5714 99.0262 72.3607 97.6822C73.1714 96.3169 74.2701 95.2609 75.6567 94.5142C77.0647 93.7462 78.6327 93.3622 80.3607 93.3622C82.0461 93.3622 83.5714 93.7249 84.9367 94.4502C86.3021 95.1756 87.3687 96.2209 88.1367 97.5862C88.9261 98.9302 89.3207 100.498 89.3207 102.29ZM80.3927 97.1382C79.2621 97.1382 78.3127 97.4582 77.5447 98.0982C76.7767 98.7382 76.3074 99.6129 76.1367 100.722H84.6167C84.4461 99.6342 83.9767 98.7702 83.2087 98.1302C82.4407 97.4689 81.5021 97.1382 80.3927 97.1382ZM98.7115 93.3622C101.378 93.3622 103.426 94.0022 104.856 95.2822C106.285 96.5409 107 98.4502 107 101.01V110.834H102.328V108.69C101.389 110.29 99.6395 111.09 97.0795 111.09C95.7568 111.09 94.6048 110.866 93.6235 110.418C92.6635 109.97 91.9275 109.352 91.4155 108.562C90.9035 107.773 90.6475 106.877 90.6475 105.874C90.6475 104.274 91.2448 103.016 92.4395 102.098C93.6555 101.181 95.5222 100.722 98.0395 100.722H102.008C102.008 99.6342 101.677 98.8022 101.016 98.2262C100.354 97.6289 99.3622 97.3302 98.0395 97.3302C97.1222 97.3302 96.2155 97.4796 95.3195 97.7782C94.4448 98.0556 93.6982 98.4396 93.0795 98.9302L91.2875 95.4422C92.2262 94.7809 93.3462 94.2689 94.6475 93.9062C95.9702 93.5436 97.3248 93.3622 98.7115 93.3622ZM98.3275 107.73C99.1808 107.73 99.9382 107.538 100.6 107.154C101.261 106.749 101.73 106.162 102.008 105.394V103.634H98.5835C96.5355 103.634 95.5115 104.306 95.5115 105.65C95.5115 106.29 95.7568 106.802 96.2475 107.186C96.7595 107.549 97.4528 107.73 98.3275 107.73ZM122.213 110.002C121.723 110.365 121.115 110.642 120.389 110.834C119.685 111.005 118.939 111.09 118.149 111.09C116.101 111.09 114.512 110.568 113.381 109.522C112.272 108.477 111.717 106.941 111.717 104.914V97.8422H109.061V94.0022H111.717V89.8102H116.709V94.0022H120.997V97.8422H116.709V104.85C116.709 105.576 116.891 106.141 117.253 106.546C117.637 106.93 118.171 107.122 118.853 107.122C119.643 107.122 120.315 106.909 120.869 106.482L122.213 110.002ZM140.941 102.29C140.941 102.354 140.909 102.802 140.844 103.634H127.82C128.055 104.701 128.61 105.544 129.484 106.162C130.359 106.781 131.447 107.09 132.748 107.09C133.644 107.09 134.434 106.962 135.116 106.706C135.82 106.429 136.471 106.002 137.068 105.426L139.725 108.306C138.103 110.162 135.735 111.09 132.62 111.09C130.679 111.09 128.962 110.717 127.468 109.97C125.975 109.202 124.823 108.146 124.012 106.802C123.202 105.458 122.796 103.933 122.796 102.226C122.796 100.541 123.191 99.0262 123.98 97.6822C124.791 96.3169 125.89 95.2609 127.276 94.5142C128.684 93.7462 130.252 93.3622 131.98 93.3622C133.666 93.3622 135.191 93.7249 136.556 94.4502C137.922 95.1756 138.988 96.2209 139.757 97.5862C140.546 98.9302 140.941 100.498 140.941 102.29ZM132.012 97.1382C130.882 97.1382 129.932 97.4582 129.164 98.0982C128.396 98.7382 127.927 99.6129 127.756 100.722H136.236C136.066 99.6342 135.597 98.7702 134.828 98.1302C134.06 97.4689 133.122 97.1382 132.012 97.1382ZM167.614 106.034H157.214L155.23 110.834H149.918L159.902 88.4342H165.022L175.038 110.834H169.598L167.614 106.034ZM165.982 102.098L162.43 93.5222L158.878 102.098H165.982ZM187.066 93.3622C189.2 93.3622 190.917 94.0022 192.218 95.2822C193.541 96.5622 194.202 98.4609 194.202 100.978V110.834H189.21V101.746C189.21 100.381 188.912 99.3676 188.314 98.7062C187.717 98.0236 186.853 97.6822 185.722 97.6822C184.464 97.6822 183.461 98.0769 182.714 98.8662C181.968 99.6342 181.594 100.786 181.594 102.322V110.834H176.602V93.6182H181.37V95.6342C182.032 94.9089 182.853 94.3542 183.834 93.9702C184.816 93.5649 185.893 93.3622 187.066 93.3622ZM222.078 106.034H211.678L209.694 110.834H204.382L214.366 88.4342H219.486L229.502 110.834H224.062L222.078 106.034ZM220.446 102.098L216.894 93.5222L213.342 102.098H220.446ZM239.23 111.09C237.395 111.09 235.742 110.717 234.27 109.97C232.819 109.202 231.678 108.146 230.846 106.802C230.035 105.458 229.63 103.933 229.63 102.226C229.63 100.52 230.035 98.9942 230.846 97.6502C231.678 96.3062 232.819 95.2609 234.27 94.5142C235.742 93.7462 237.395 93.3622 239.23 93.3622C241.043 93.3622 242.622 93.7462 243.966 94.5142C245.331 95.2609 246.323 96.3382 246.942 97.7462L243.07 99.8262C242.174 98.2476 240.883 97.4582 239.198 97.4582C237.896 97.4582 236.819 97.8849 235.966 98.7382C235.112 99.5916 234.686 100.754 234.686 102.226C234.686 103.698 235.112 104.861 235.966 105.714C236.819 106.568 237.896 106.994 239.198 106.994C240.904 106.994 242.195 106.205 243.07 104.626L246.942 106.738C246.323 108.104 245.331 109.17 243.966 109.938C242.622 110.706 241.043 111.09 239.23 111.09ZM257.509 111.09C255.675 111.09 254.021 110.717 252.549 109.97C251.099 109.202 249.957 108.146 249.125 106.802C248.315 105.458 247.909 103.933 247.909 102.226C247.909 100.52 248.315 98.9942 249.125 97.6502C249.957 96.3062 251.099 95.2609 252.549 94.5142C254.021 93.7462 255.675 93.3622 257.509 93.3622C259.323 93.3622 260.901 93.7462 262.245 94.5142C263.611 95.2609 264.603 96.3382 265.221 97.7462L261.349 99.8262C260.453 98.2476 259.163 97.4582 257.477 97.4582C256.176 97.4582 255.099 97.8849 254.245 98.7382C253.392 99.5916 252.965 100.754 252.965 102.226C252.965 103.698 253.392 104.861 254.245 105.714C255.099 106.568 256.176 106.994 257.477 106.994C259.184 106.994 260.475 106.205 261.349 104.626L265.221 106.738C264.603 108.104 263.611 109.17 262.245 109.938C260.901 110.706 259.323 111.09 257.509 111.09ZM275.661 111.09C273.847 111.09 272.215 110.717 270.765 109.97C269.335 109.202 268.215 108.146 267.405 106.802C266.594 105.458 266.189 103.933 266.189 102.226C266.189 100.52 266.594 98.9942 267.405 97.6502C268.215 96.3062 269.335 95.2609 270.765 94.5142C272.215 93.7462 273.847 93.3622 275.661 93.3622C277.474 93.3622 279.095 93.7462 280.525 94.5142C281.954 95.2609 283.074 96.3062 283.885 97.6502C284.695 98.9942 285.101 100.52 285.101 102.226C285.101 103.933 284.695 105.458 283.885 106.802C283.074 108.146 281.954 109.202 280.525 109.97C279.095 110.717 277.474 111.09 275.661 111.09ZM275.661 106.994C276.941 106.994 277.986 106.568 278.797 105.714C279.629 104.84 280.045 103.677 280.045 102.226C280.045 100.776 279.629 99.6236 278.797 98.7702C277.986 97.8956 276.941 97.4582 275.661 97.4582C274.381 97.4582 273.325 97.8956 272.493 98.7702C271.661 99.6236 271.245 100.776 271.245 102.226C271.245 103.677 271.661 104.84 272.493 105.714C273.325 106.568 274.381 106.994 275.661 106.994ZM305.373 93.6182V110.834H300.637V108.786C299.976 109.533 299.187 110.109 298.269 110.514C297.352 110.898 296.36 111.09 295.293 111.09C293.032 111.09 291.24 110.44 289.917 109.138C288.595 107.837 287.933 105.906 287.933 103.346V93.6182H292.925V102.61C292.925 105.384 294.088 106.77 296.413 106.77C297.608 106.77 298.568 106.386 299.293 105.618C300.019 104.829 300.381 103.666 300.381 102.13V93.6182H305.373ZM320.054 93.3622C322.188 93.3622 323.905 94.0022 325.206 95.2822C326.529 96.5622 327.19 98.4609 327.19 100.978V110.834H322.198V101.746C322.198 100.381 321.9 99.3676 321.302 98.7062C320.705 98.0236 319.841 97.6822 318.71 97.6822C317.452 97.6822 316.449 98.0769 315.702 98.8662C314.956 99.6342 314.582 100.786 314.582 102.322V110.834H309.59V93.6182H314.358V95.6342C315.02 94.9089 315.841 94.3542 316.822 93.9702C317.804 93.5649 318.881 93.3622 320.054 93.3622ZM342.411 110.002C341.921 110.365 341.313 110.642 340.587 110.834C339.883 111.005 339.137 111.09 338.347 111.09C336.299 111.09 334.71 110.568 333.579 109.522C332.47 108.477 331.915 106.941 331.915 104.914V97.8422H329.259V94.0022H331.915V89.8102H336.907V94.0022H341.195V97.8422H336.907V104.85C336.907 105.576 337.089 106.141 337.451 106.546C337.835 106.93 338.369 107.122 339.051 107.122C339.841 107.122 340.513 106.909 341.067 106.482L342.411 110.002Z" fill="#6078E0"/>
<path d="M242.981 469.908V472.464H247.037V473.784H242.981V477H241.421V468.6H247.553V469.908H242.981ZM251.622 477.084C250.974 477.084 250.39 476.944 249.87 476.664C249.35 476.384 248.942 475.996 248.646 475.5C248.358 474.996 248.214 474.428 248.214 473.796C248.214 473.164 248.358 472.6 248.646 472.104C248.942 471.608 249.35 471.22 249.87 470.94C250.39 470.66 250.974 470.52 251.622 470.52C252.278 470.52 252.866 470.66 253.386 470.94C253.906 471.22 254.31 471.608 254.598 472.104C254.894 472.6 255.042 473.164 255.042 473.796C255.042 474.428 254.894 474.996 254.598 475.5C254.31 475.996 253.906 476.384 253.386 476.664C252.866 476.944 252.278 477.084 251.622 477.084ZM251.622 475.8C252.174 475.8 252.63 475.616 252.99 475.248C253.35 474.88 253.53 474.396 253.53 473.796C253.53 473.196 253.35 472.712 252.99 472.344C252.63 471.976 252.174 471.792 251.622 471.792C251.07 471.792 250.614 471.976 250.254 472.344C249.902 472.712 249.726 473.196 249.726 473.796C249.726 474.396 249.902 474.88 250.254 475.248C250.614 475.616 251.07 475.8 251.622 475.8ZM257.904 471.528C258.336 470.856 259.096 470.52 260.184 470.52V471.948C260.056 471.924 259.94 471.912 259.836 471.912C259.252 471.912 258.796 472.084 258.468 472.428C258.14 472.764 257.976 473.252 257.976 473.892V477H256.476V470.592H257.904V471.528ZM267.758 470.592V476.028C267.758 478.284 266.606 479.412 264.302 479.412C263.686 479.412 263.102 479.332 262.55 479.172C261.998 479.02 261.542 478.796 261.182 478.5L261.854 477.372C262.134 477.604 262.486 477.788 262.91 477.924C263.342 478.068 263.778 478.14 264.218 478.14C264.922 478.14 265.438 477.98 265.766 477.66C266.094 477.34 266.258 476.852 266.258 476.196V475.86C266.002 476.14 265.69 476.352 265.322 476.496C264.954 476.64 264.55 476.712 264.11 476.712C263.502 476.712 262.95 476.584 262.454 476.328C261.966 476.064 261.578 475.696 261.29 475.224C261.01 474.752 260.87 474.212 260.87 473.604C260.87 472.996 261.01 472.46 261.29 471.996C261.578 471.524 261.966 471.16 262.454 470.904C262.95 470.648 263.502 470.52 264.11 470.52C264.574 470.52 264.994 470.596 265.37 470.748C265.754 470.9 266.074 471.132 266.33 471.444V470.592H267.758ZM264.338 475.44C264.906 475.44 265.37 475.272 265.73 474.936C266.098 474.592 266.282 474.148 266.282 473.604C266.282 473.068 266.098 472.632 265.73 472.296C265.37 471.96 264.906 471.792 264.338 471.792C263.762 471.792 263.29 471.96 262.922 472.296C262.562 472.632 262.382 473.068 262.382 473.604C262.382 474.148 262.562 474.592 262.922 474.936C263.29 475.272 263.762 475.44 264.338 475.44ZM275.754 473.832C275.754 473.936 275.746 474.084 275.73 474.276H270.702C270.79 474.748 271.018 475.124 271.386 475.404C271.762 475.676 272.226 475.812 272.778 475.812C273.482 475.812 274.062 475.58 274.518 475.116L275.322 476.04C275.034 476.384 274.67 476.644 274.23 476.82C273.79 476.996 273.294 477.084 272.742 477.084C272.038 477.084 271.418 476.944 270.882 476.664C270.346 476.384 269.93 475.996 269.634 475.5C269.346 474.996 269.202 474.428 269.202 473.796C269.202 473.172 269.342 472.612 269.622 472.116C269.91 471.612 270.306 471.22 270.81 470.94C271.314 470.66 271.882 470.52 272.514 470.52C273.138 470.52 273.694 470.66 274.182 470.94C274.678 471.212 275.062 471.6 275.334 472.104C275.614 472.6 275.754 473.176 275.754 473.832ZM272.514 471.72C272.034 471.72 271.626 471.864 271.29 472.152C270.962 472.432 270.762 472.808 270.69 473.28H274.326C274.262 472.816 274.066 472.44 273.738 472.152C273.41 471.864 273.002 471.72 272.514 471.72ZM281.047 476.652C280.871 476.796 280.655 476.904 280.399 476.976C280.151 477.048 279.887 477.084 279.607 477.084C278.903 477.084 278.359 476.9 277.975 476.532C277.591 476.164 277.399 475.628 277.399 474.924V471.84H276.343V470.64H277.399V469.176H278.899V470.64H280.615V471.84H278.899V474.888C278.899 475.2 278.975 475.44 279.127 475.608C279.279 475.768 279.499 475.848 279.787 475.848C280.123 475.848 280.403 475.76 280.627 475.584L281.047 476.652ZM289.149 470.52C289.773 470.52 290.329 470.656 290.817 470.928C291.313 471.2 291.701 471.584 291.981 472.08C292.261 472.576 292.401 473.148 292.401 473.796C292.401 474.444 292.261 475.02 291.981 475.524C291.701 476.02 291.313 476.404 290.817 476.676C290.329 476.948 289.773 477.084 289.149 477.084C288.285 477.084 287.601 476.796 287.097 476.22V479.328H285.597V470.592H287.025V471.432C287.273 471.128 287.577 470.9 287.937 470.748C288.305 470.596 288.709 470.52 289.149 470.52ZM288.981 475.8C289.533 475.8 289.985 475.616 290.337 475.248C290.697 474.88 290.877 474.396 290.877 473.796C290.877 473.196 290.697 472.712 290.337 472.344C289.985 471.976 289.533 471.792 288.981 471.792C288.621 471.792 288.297 471.876 288.009 472.044C287.721 472.204 287.493 472.436 287.325 472.74C287.157 473.044 287.073 473.396 287.073 473.796C287.073 474.196 287.157 474.548 287.325 474.852C287.493 475.156 287.721 475.392 288.009 475.56C288.297 475.72 288.621 475.8 288.981 475.8ZM296.19 470.52C297.134 470.52 297.854 470.748 298.35 471.204C298.854 471.652 299.106 472.332 299.106 473.244V477H297.69V476.22C297.506 476.5 297.242 476.716 296.898 476.868C296.562 477.012 296.154 477.084 295.674 477.084C295.194 477.084 294.774 477.004 294.414 476.844C294.054 476.676 293.774 476.448 293.574 476.16C293.382 475.864 293.286 475.532 293.286 475.164C293.286 474.588 293.498 474.128 293.922 473.784C294.354 473.432 295.03 473.256 295.95 473.256H297.606V473.16C297.606 472.712 297.47 472.368 297.198 472.128C296.934 471.888 296.538 471.768 296.01 471.768C295.65 471.768 295.294 471.824 294.942 471.936C294.598 472.048 294.306 472.204 294.066 472.404L293.478 471.312C293.814 471.056 294.218 470.86 294.69 470.724C295.162 470.588 295.662 470.52 296.19 470.52ZM295.986 475.992C296.362 475.992 296.694 475.908 296.982 475.74C297.278 475.564 297.486 475.316 297.606 474.996V474.252H296.058C295.194 474.252 294.762 474.536 294.762 475.104C294.762 475.376 294.87 475.592 295.086 475.752C295.302 475.912 295.602 475.992 295.986 475.992ZM303.011 477.084C302.491 477.084 301.983 477.016 301.487 476.88C300.991 476.744 300.595 476.572 300.299 476.364L300.875 475.224C301.163 475.416 301.507 475.572 301.907 475.692C302.315 475.804 302.715 475.86 303.107 475.86C304.003 475.86 304.451 475.624 304.451 475.152C304.451 474.928 304.335 474.772 304.103 474.684C303.879 474.596 303.515 474.512 303.011 474.432C302.483 474.352 302.051 474.26 301.715 474.156C301.387 474.052 301.099 473.872 300.851 473.616C300.611 473.352 300.491 472.988 300.491 472.524C300.491 471.916 300.743 471.432 301.247 471.072C301.759 470.704 302.447 470.52 303.311 470.52C303.751 470.52 304.191 470.572 304.631 470.676C305.071 470.772 305.431 470.904 305.711 471.072L305.135 472.212C304.591 471.892 303.979 471.732 303.299 471.732C302.859 471.732 302.523 471.8 302.291 471.936C302.067 472.064 301.955 472.236 301.955 472.452C301.955 472.692 302.075 472.864 302.315 472.968C302.563 473.064 302.943 473.156 303.455 473.244C303.967 473.324 304.387 473.416 304.715 473.52C305.043 473.624 305.323 473.8 305.555 474.048C305.795 474.296 305.915 474.648 305.915 475.104C305.915 475.704 305.655 476.184 305.135 476.544C304.615 476.904 303.907 477.084 303.011 477.084ZM309.187 477.084C308.667 477.084 308.159 477.016 307.663 476.88C307.167 476.744 306.771 476.572 306.475 476.364L307.051 475.224C307.339 475.416 307.683 475.572 308.083 475.692C308.491 475.804 308.891 475.86 309.283 475.86C310.179 475.86 310.627 475.624 310.627 475.152C310.627 474.928 310.511 474.772 310.279 474.684C310.055 474.596 309.691 474.512 309.187 474.432C308.659 474.352 308.227 474.26 307.891 474.156C307.563 474.052 307.275 473.872 307.027 473.616C306.787 473.352 306.667 472.988 306.667 472.524C306.667 471.916 306.919 471.432 307.423 471.072C307.935 470.704 308.623 470.52 309.487 470.52C309.927 470.52 310.367 470.572 310.807 470.676C311.247 470.772 311.607 470.904 311.887 471.072L311.311 472.212C310.767 471.892 310.155 471.732 309.475 471.732C309.035 471.732 308.699 471.8 308.467 471.936C308.243 472.064 308.131 472.236 308.131 472.452C308.131 472.692 308.251 472.864 308.491 472.968C308.739 473.064 309.119 473.156 309.631 473.244C310.143 473.324 310.563 473.416 310.891 473.52C311.219 473.624 311.499 473.8 311.731 474.048C311.971 474.296 312.091 474.648 312.091 475.104C312.091 475.704 311.831 476.184 311.311 476.544C310.791 476.904 310.083 477.084 309.187 477.084ZM323.261 470.592L320.897 477H319.457L317.801 472.584L316.121 477H314.681L312.329 470.592H313.745L315.437 475.32L317.201 470.592H318.461L320.189 475.344L321.929 470.592H323.261ZM326.997 477.084C326.349 477.084 325.765 476.944 325.245 476.664C324.725 476.384 324.317 475.996 324.021 475.5C323.733 474.996 323.589 474.428 323.589 473.796C323.589 473.164 323.733 472.6 324.021 472.104C324.317 471.608 324.725 471.22 325.245 470.94C325.765 470.66 326.349 470.52 326.997 470.52C327.653 470.52 328.241 470.66 328.761 470.94C329.281 471.22 329.685 471.608 329.973 472.104C330.269 472.6 330.417 473.164 330.417 473.796C330.417 474.428 330.269 474.996 329.973 475.5C329.685 475.996 329.281 476.384 328.761 476.664C328.241 476.944 327.653 477.084 326.997 477.084ZM326.997 475.8C327.549 475.8 328.005 475.616 328.365 475.248C328.725 474.88 328.905 474.396 328.905 473.796C328.905 473.196 328.725 472.712 328.365 472.344C328.005 471.976 327.549 471.792 326.997 471.792C326.445 471.792 325.989 471.976 325.629 472.344C325.277 472.712 325.101 473.196 325.101 473.796C325.101 474.396 325.277 474.88 325.629 475.248C325.989 475.616 326.445 475.8 326.997 475.8ZM333.279 471.528C333.711 470.856 334.471 470.52 335.559 470.52V471.948C335.431 471.924 335.315 471.912 335.211 471.912C334.627 471.912 334.171 472.084 333.843 472.428C333.515 472.764 333.351 473.252 333.351 473.892V477H331.851V470.592H333.279V471.528ZM343.049 468.096V477H341.609V476.172C341.361 476.476 341.053 476.704 340.685 476.856C340.325 477.008 339.925 477.084 339.485 477.084C338.869 477.084 338.313 476.948 337.817 476.676C337.329 476.404 336.945 476.02 336.665 475.524C336.385 475.02 336.245 474.444 336.245 473.796C336.245 473.148 336.385 472.576 336.665 472.08C336.945 471.584 337.329 471.2 337.817 470.928C338.313 470.656 338.869 470.52 339.485 470.52C339.909 470.52 340.297 470.592 340.649 470.736C341.001 470.88 341.301 471.096 341.549 471.384V468.096H343.049ZM339.665 475.8C340.025 475.8 340.349 475.72 340.637 475.56C340.925 475.392 341.153 475.156 341.321 474.852C341.489 474.548 341.573 474.196 341.573 473.796C341.573 473.396 341.489 473.044 341.321 472.74C341.153 472.436 340.925 472.204 340.637 472.044C340.349 471.876 340.025 471.792 339.665 471.792C339.305 471.792 338.981 471.876 338.693 472.044C338.405 472.204 338.177 472.436 338.009 472.74C337.841 473.044 337.757 473.396 337.757 473.796C337.757 474.196 337.841 474.548 338.009 474.852C338.177 475.156 338.405 475.392 338.693 475.56C338.981 475.72 339.305 475.8 339.665 475.8ZM346.691 474.216C346.691 473.784 346.787 473.428 346.979 473.148C347.179 472.86 347.467 472.548 347.843 472.212C348.131 471.956 348.343 471.736 348.479 471.552C348.623 471.36 348.695 471.144 348.695 470.904C348.695 470.568 348.559 470.296 348.287 470.088C348.015 469.88 347.651 469.776 347.195 469.776C346.331 469.776 345.679 470.084 345.239 470.7L344.075 469.944C344.419 469.472 344.863 469.112 345.407 468.864C345.951 468.608 346.591 468.48 347.327 468.48C348.223 468.48 348.935 468.676 349.463 469.068C349.999 469.452 350.267 469.984 350.267 470.664C350.267 470.992 350.211 471.28 350.099 471.528C349.995 471.776 349.867 471.988 349.715 472.164C349.563 472.332 349.363 472.528 349.115 472.752C348.811 473.024 348.583 473.264 348.431 473.472C348.287 473.68 348.215 473.928 348.215 474.216H346.691ZM347.459 477.084C347.179 477.084 346.947 476.996 346.763 476.82C346.587 476.636 346.499 476.412 346.499 476.148C346.499 475.884 346.587 475.664 346.763 475.488C346.947 475.312 347.179 475.224 347.459 475.224C347.731 475.224 347.955 475.312 348.131 475.488C348.315 475.664 348.407 475.884 348.407 476.148C348.407 476.412 348.315 476.636 348.131 476.82C347.955 476.996 347.731 477.084 347.459 477.084Z" fill="#6078E0"/>
<path d="M25.4034 27.792L29.9634 20.672H32.1394V27.968H33.7874V29.696H32.1394V32H30.2194V29.696H25.4034V27.792ZM30.1874 23.392L27.3554 27.968H30.2194V23.392H30.1874ZM36.6961 24.208C37.3521 24.208 37.9761 24.704 37.9761 25.424C37.9761 26.128 37.4001 26.672 36.6961 26.672C36.0241 26.672 35.4161 26.128 35.4161 25.456C35.4161 24.768 36.0081 24.208 36.6961 24.208ZM36.6961 29.632C37.3681 29.632 37.9761 30.144 37.9761 30.848C37.9761 31.568 37.3841 32.096 36.6961 32.096C36.0241 32.096 35.4161 31.568 35.4161 30.88C35.4161 30.192 36.0081 29.632 36.6961 29.632ZM43.9265 20.48C46.1185 20.48 47.5905 21.648 47.5905 23.696C47.5905 24.88 47.0945 25.872 45.8625 27.008L42.3425 30.272H47.5905V32H40.0065V29.968L44.4065 25.712C45.3505 24.8 45.5745 24.336 45.5745 23.792C45.5745 22.864 44.8225 22.304 43.9265 22.304C42.9985 22.304 42.3105 22.912 42.1825 23.84L40.1665 23.68C40.3745 21.584 41.8465 20.48 43.9265 20.48ZM53.2673 20.48C55.8433 20.48 57.3633 22.464 57.3633 26.336C57.3633 30.192 55.8593 32.192 53.2673 32.192C50.6753 32.192 49.1713 30.192 49.1713 26.336C49.1713 22.464 50.6913 20.48 53.2673 20.48ZM51.0913 26.336C51.0913 28.768 51.7953 30.368 53.2673 30.368C54.7073 30.368 55.4433 28.848 55.4433 26.336C55.4433 23.792 54.7073 22.304 53.2513 22.304C51.8593 22.304 51.0913 23.776 51.0913 26.336Z" fill="#3C3C43"/>
<g filter="url(#filter0_b_451_991)">
<g clip-path="url(#clip1_451_991)">
<rect opacity="0.2" x="321.5" y="22.5" width="3.5" height="11.5" rx="1" fill="#3C3C43"/>
<path d="M316.5 26C316.5 25.4477 316.948 25 317.5 25H319C319.552 25 320 25.4477 320 26V33C320 33.5523 319.552 34 319 34H317.5C316.948 34 316.5 33.5523 316.5 33V26Z" fill="#3C3C43"/>
<path d="M311.5 28.5C311.5 27.9477 311.948 27.5 312.5 27.5H314C314.552 27.5 315 27.9477 315 28.5V33C315 33.5523 314.552 34 314 34H312.5C311.948 34 311.5 33.5523 311.5 33V28.5Z" fill="#3C3C43"/>
<path d="M306.5 30.5C306.5 29.9477 306.948 29.5 307.5 29.5H309C309.552 29.5 310 29.9477 310 30.5V33C310 33.5523 309.552 34 309 34H307.5C306.948 34 306.5 33.5523 306.5 33V30.5Z" fill="#3C3C43"/>
<path d="M340.325 31.789C340.39 31.7255 340.426 31.638 340.424 31.5473C340.422 31.4566 340.383 31.3706 340.316 31.3098C338.979 30.1783 337.022 30.1783 335.686 31.3098C335.618 31.3706 335.579 31.4565 335.577 31.5472C335.575 31.6379 335.611 31.7254 335.676 31.789L337.768 33.9029C337.83 33.965 337.913 34 338.001 34C338.088 34 338.171 33.965 338.233 33.9029L340.325 31.789Z" fill="#3C3C43"/>
<path d="M338 28.869C339.276 28.8689 340.506 29.3435 341.451 30.2005C341.579 30.3221 341.781 30.3195 341.905 30.1946L343.115 28.9711C343.179 28.9069 343.214 28.8198 343.213 28.7293C343.212 28.6389 343.175 28.5526 343.11 28.4897C340.231 25.8088 335.772 25.8088 332.893 28.4897C332.828 28.5526 332.791 28.6389 332.79 28.7294C332.789 28.8199 332.825 28.907 332.889 28.9711L334.098 30.1946C334.222 30.3195 334.424 30.3221 334.552 30.2005C335.497 29.344 336.726 28.8695 338 28.869Z" fill="#3C3C43"/>
<path opacity="0.2" d="M338 24.8883C340.322 24.8884 342.555 25.7813 344.237 27.3825C344.364 27.5061 344.566 27.5045 344.691 27.379L345.902 26.1555C345.965 26.0918 346.001 26.0055 346 25.9158C345.999 25.826 345.963 25.7402 345.899 25.6772C341.483 21.4409 334.517 21.4409 330.101 25.6772C330.037 25.7401 330.001 25.826 330 25.9157C329.999 26.0055 330.035 26.0917 330.098 26.1555L331.309 27.379C331.434 27.5047 331.637 27.5063 331.763 27.3825C333.446 25.7812 335.679 24.8883 338 24.8883Z" fill="#3C3C43"/>
<g clip-path="url(#clip2_451_991)">
<path d="M352 25.25C352 24.5596 352.56 24 353.25 24H354V32.5H353.25C352.56 32.5 352 31.9404 352 31.25V25.25Z" fill="#3C3C43"/>
<path d="M354 24H356V32.5H354V24Z" fill="#3C3C43"/>
<path d="M356 24H358V32.5H356V24Z" fill="#3C3C43"/>
<path d="M358 24H360V32.5H358V24Z" fill="#3C3C43"/>
<path d="M360 24H362V32.5H360V24Z" fill="#3C3C43"/>
<path d="M362 24H364V32.5H362V24Z" fill="#3C3C43"/>
<path d="M364 24H366V32.5H364V24Z" fill="#3C3C43"/>
<path d="M368 25.25C368 24.5596 367.44 24 366.75 24H366V32.5H366.75C367.44 32.5 368 31.9404 368 31.25V25.25Z" fill="#3C3C43"/>
</g>
<g opacity="0.5">
<path fill-rule="evenodd" clip-rule="evenodd" d="M350 25C350 23.3431 351.343 22 353 22H371C372.657 22 374 23.3431 374 25V31.5C374 33.1569 372.657 34.5 371 34.5H353C351.343 34.5 350 33.1569 350 31.5V25ZM353 23C351.895 23 351 23.8954 351 25V31.5C351 32.6046 351.895 33.5 353 33.5H371C372.105 33.5 373 32.6046 373 31.5V25C373 23.8954 372.105 23 371 23H353Z" fill="#3C3C43"/>
<path d="M375 30.542C375.883 30.1562 376.5 29.2751 376.5 28.25C376.5 27.2248 375.883 26.3438 375 25.958V30.542Z" fill="#3C3C43"/>
</g>
</g>
</g>
<path d="M136.5 843L252.5 843" stroke="black" stroke-width="4" stroke-linecap="round"/>
</g>
<defs>
<filter id="filter0_b_451_991" x="250" y="-36.5" width="184" height="128" filterUnits="userSpaceOnUse" color-interpolation-filters="sRGB">
<feFlood flood-opacity="0" result="BackgroundImageFix"/>
<feGaussianBlur in="BackgroundImageFix" stdDeviation="28"/>
<feComposite in2="SourceAlpha" operator="in" result="effect1_backgroundBlur_451_991"/>
<feBlend mode="normal" in="SourceGraphic" in2="effect1_backgroundBlur_451_991" result="shape"/>
</filter>
<clipPath id="clip0_451_991">
<rect width="393" height="852" fill="white"/>
</clipPath>
<clipPath id="clip1_451_991">
<rect width="72" height="16" fill="white" transform="translate(306 19.5)"/>
</clipPath>
<clipPath id="clip2_451_991">
<rect width="16" height="8.5" fill="white" transform="translate(352 24)"/>
</clipPath>
</defs>
</svg>
