<svg width="208" height="160" viewBox="0 0 208 160" fill="none" xmlns="http://www.w3.org/2000/svg">
<g filter="url(#filter0_d_329_268)">
<mask id="mask0_329_268" style="mask-type:alpha" maskUnits="userSpaceOnUse" x="14" y="14" width="180" height="128">
<rect x="14" y="14" width="180" height="128" rx="12" fill="white"/>
</mask>
<g mask="url(#mask0_329_268)">
<rect x="14" y="14" width="180" height="128" fill="white"/>
<g opacity="0.1">
<path d="M53 127.104C59.5607 129.217 66.4117 130.29 73.3043 130.283C109.804 130.283 139.394 100.694 139.394 64.1936C139.405 55.1852 137.568 46.2703 133.997 38C160.569 46.566 179.782 71.4928 179.782 100.91C179.782 137.41 150.192 167 113.693 167C86.4965 167 63.1411 150.577 53 127.104Z" fill="#BA91DE"/>
</g>
<path d="M44.22 65.2C43.1267 65.2 42.08 65.0467 41.08 64.74C40.08 64.42 39.2867 64.0133 38.7 63.52L39.6 61.5C40.16 61.94 40.8533 62.3067 41.68 62.6C42.5067 62.8933 43.3533 63.04 44.22 63.04C44.9533 63.04 45.5467 62.96 46 62.8C46.4533 62.64 46.7867 62.4267 47 62.16C47.2133 61.88 47.32 61.5667 47.32 61.22C47.32 60.7933 47.1667 60.4533 46.86 60.2C46.5533 59.9333 46.1533 59.7267 45.66 59.58C45.18 59.42 44.64 59.2733 44.04 59.14C43.4533 59.0067 42.86 58.8533 42.26 58.68C41.6733 58.4933 41.1333 58.26 40.64 57.98C40.16 57.6867 39.7667 57.3 39.46 56.82C39.1533 56.34 39 55.7267 39 54.98C39 54.22 39.2 53.5267 39.6 52.9C40.0133 52.26 40.6333 51.7533 41.46 51.38C42.3 50.9933 43.36 50.8 44.64 50.8C45.48 50.8 46.3133 50.9067 47.14 51.12C47.9667 51.3333 48.6867 51.64 49.3 52.04L48.48 54.06C47.8533 53.6867 47.2067 53.4133 46.54 53.24C45.8733 53.0533 45.2333 52.96 44.62 52.96C43.9 52.96 43.3133 53.0467 42.86 53.22C42.42 53.3933 42.0933 53.62 41.88 53.9C41.68 54.18 41.58 54.5 41.58 54.86C41.58 55.2867 41.7267 55.6333 42.02 55.9C42.3267 56.1533 42.72 56.3533 43.2 56.5C43.6933 56.6467 44.24 56.7933 44.84 56.94C45.44 57.0733 46.0333 57.2267 46.62 57.4C47.22 57.5733 47.76 57.8 48.24 58.08C48.7333 58.36 49.1267 58.74 49.42 59.22C49.7267 59.7 49.88 60.3067 49.88 61.04C49.88 61.7867 49.6733 62.48 49.26 63.12C48.86 63.7467 48.24 64.2533 47.4 64.64C46.56 65.0133 45.5 65.2 44.22 65.2ZM52.2181 65V50.16H54.7181V65H52.2181ZM63.0194 65.14C61.8327 65.14 60.7927 64.9067 59.8994 64.44C59.0194 63.96 58.3327 63.3067 57.8394 62.48C57.3594 61.6533 57.1194 60.7133 57.1194 59.66C57.1194 58.5933 57.3527 57.6533 57.8194 56.84C58.2994 56.0133 58.9527 55.3667 59.7794 54.9C60.6194 54.4333 61.5727 54.2 62.6394 54.2C63.6794 54.2 64.606 54.4267 65.4194 54.88C66.2327 55.3333 66.8727 55.9733 67.3394 56.8C67.806 57.6267 68.0394 58.6 68.0394 59.72C68.0394 59.8267 68.0327 59.9467 68.0194 60.08C68.0194 60.2133 68.0127 60.34 67.9994 60.46H59.0994V58.8H66.6794L65.6994 59.32C65.7127 58.7067 65.586 58.1667 65.3194 57.7C65.0527 57.2333 64.686 56.8667 64.2194 56.6C63.766 56.3333 63.2394 56.2 62.6394 56.2C62.026 56.2 61.486 56.3333 61.0194 56.6C60.566 56.8667 60.206 57.24 59.9394 57.72C59.686 58.1867 59.5594 58.74 59.5594 59.38V59.78C59.5594 60.42 59.706 60.9867 59.9994 61.48C60.2927 61.9733 60.706 62.3533 61.2394 62.62C61.7727 62.8867 62.386 63.02 63.0794 63.02C63.6794 63.02 64.2194 62.9267 64.6994 62.74C65.1794 62.5533 65.606 62.26 65.9794 61.86L67.3194 63.4C66.8394 63.96 66.2327 64.3933 65.4994 64.7C64.7794 64.9933 63.9527 65.14 63.0194 65.14ZM75.4608 65.14C74.2741 65.14 73.2341 64.9067 72.3408 64.44C71.4608 63.96 70.7741 63.3067 70.2808 62.48C69.8008 61.6533 69.5608 60.7133 69.5608 59.66C69.5608 58.5933 69.7941 57.6533 70.2608 56.84C70.7408 56.0133 71.3941 55.3667 72.2208 54.9C73.0608 54.4333 74.0141 54.2 75.0808 54.2C76.1208 54.2 77.0474 54.4267 77.8608 54.88C78.6741 55.3333 79.3141 55.9733 79.7808 56.8C80.2474 57.6267 80.4808 58.6 80.4808 59.72C80.4808 59.8267 80.4741 59.9467 80.4608 60.08C80.4608 60.2133 80.4541 60.34 80.4408 60.46H71.5408V58.8H79.1208L78.1408 59.32C78.1541 58.7067 78.0274 58.1667 77.7608 57.7C77.4941 57.2333 77.1274 56.8667 76.6608 56.6C76.2074 56.3333 75.6808 56.2 75.0808 56.2C74.4674 56.2 73.9274 56.3333 73.4608 56.6C73.0074 56.8667 72.6474 57.24 72.3808 57.72C72.1274 58.1867 72.0008 58.74 72.0008 59.38V59.78C72.0008 60.42 72.1474 60.9867 72.4408 61.48C72.7341 61.9733 73.1474 62.3533 73.6808 62.62C74.2141 62.8867 74.8274 63.02 75.5208 63.02C76.1208 63.02 76.6608 62.9267 77.1408 62.74C77.6208 62.5533 78.0474 62.26 78.4208 61.86L79.7608 63.4C79.2808 63.96 78.6741 64.3933 77.9408 64.7C77.2208 64.9933 76.3941 65.14 75.4608 65.14ZM88.8022 65.14C87.9355 65.14 87.1422 64.94 86.4222 64.54C85.7155 64.14 85.1489 63.54 84.7222 62.74C84.3089 61.9267 84.1022 60.9 84.1022 59.66C84.1022 58.4067 84.3022 57.38 84.7022 56.58C85.1155 55.78 85.6755 55.1867 86.3822 54.8C87.0889 54.4 87.8955 54.2 88.8022 54.2C89.8555 54.2 90.7822 54.4267 91.5822 54.88C92.3955 55.3333 93.0355 55.9667 93.5022 56.78C93.9822 57.5933 94.2222 58.5533 94.2222 59.66C94.2222 60.7667 93.9822 61.7333 93.5022 62.56C93.0355 63.3733 92.3955 64.0067 91.5822 64.46C90.7822 64.9133 89.8555 65.14 88.8022 65.14ZM82.8822 68.88V54.32H85.2622V56.84L85.1822 59.68L85.3822 62.52V68.88H82.8822ZM88.5222 63C89.1222 63 89.6555 62.8667 90.1222 62.6C90.6022 62.3333 90.9822 61.9467 91.2622 61.44C91.5422 60.9333 91.6822 60.34 91.6822 59.66C91.6822 58.9667 91.5422 58.3733 91.2622 57.88C90.9822 57.3733 90.6022 56.9867 90.1222 56.72C89.6555 56.4533 89.1222 56.32 88.5222 56.32C87.9222 56.32 87.3822 56.4533 86.9022 56.72C86.4222 56.9867 86.0422 57.3733 85.7622 57.88C85.4822 58.3733 85.3422 58.9667 85.3422 59.66C85.3422 60.34 85.4822 60.9333 85.7622 61.44C86.0422 61.9467 86.4222 62.3333 86.9022 62.6C87.3822 62.8667 87.9222 63 88.5222 63ZM96.5931 65V54.32H99.0931V65H96.5931ZM97.8531 52.56C97.3865 52.56 96.9998 52.4133 96.6931 52.12C96.3998 51.8267 96.2531 51.4733 96.2531 51.06C96.2531 50.6333 96.3998 50.28 96.6931 50C96.9998 49.7067 97.3865 49.56 97.8531 49.56C98.3198 49.56 98.6998 49.7 98.9931 49.98C99.2998 50.2467 99.4531 50.5867 99.4531 51C99.4531 51.44 99.3065 51.8133 99.0131 52.12C98.7198 52.4133 98.3331 52.56 97.8531 52.56ZM108.434 54.2C109.288 54.2 110.048 54.3667 110.714 54.7C111.394 55.0333 111.928 55.5467 112.314 56.24C112.701 56.92 112.894 57.8 112.894 58.88V65H110.394V59.2C110.394 58.2533 110.168 57.5467 109.714 57.08C109.274 56.6133 108.654 56.38 107.854 56.38C107.268 56.38 106.748 56.5 106.294 56.74C105.841 56.98 105.488 57.34 105.234 57.82C104.994 58.2867 104.874 58.88 104.874 59.6V65H102.374V54.32H104.754V57.2L104.334 56.32C104.708 55.64 105.248 55.12 105.954 54.76C106.674 54.3867 107.501 54.2 108.434 54.2ZM120.925 69.02C119.939 69.02 118.972 68.8867 118.025 68.62C117.092 68.3667 116.325 67.9933 115.725 67.5L116.845 65.62C117.312 66.0067 117.899 66.3133 118.605 66.54C119.325 66.78 120.052 66.9 120.785 66.9C121.959 66.9 122.819 66.6267 123.365 66.08C123.912 65.5467 124.185 64.74 124.185 63.66V61.76L124.385 59.34L124.305 56.92V54.32H126.685V63.38C126.685 65.3133 126.192 66.7333 125.205 67.64C124.219 68.56 122.792 69.02 120.925 69.02ZM120.605 64.52C119.592 64.52 118.672 64.3067 117.845 63.88C117.032 63.44 116.385 62.8333 115.905 62.06C115.439 61.2867 115.205 60.38 115.205 59.34C115.205 58.3133 115.439 57.4133 115.905 56.64C116.385 55.8667 117.032 55.2667 117.845 54.84C118.672 54.4133 119.592 54.2 120.605 54.2C121.512 54.2 122.325 54.38 123.045 54.74C123.765 55.1 124.339 55.66 124.765 56.42C125.205 57.18 125.425 58.1533 125.425 59.34C125.425 60.5267 125.205 61.5067 124.765 62.28C124.339 63.04 123.765 63.6067 123.045 63.98C122.325 64.34 121.512 64.52 120.605 64.52ZM120.985 62.4C121.612 62.4 122.172 62.2733 122.665 62.02C123.159 61.7533 123.539 61.3933 123.805 60.94C124.085 60.4733 124.225 59.94 124.225 59.34C124.225 58.74 124.085 58.2133 123.805 57.76C123.539 57.2933 123.159 56.94 122.665 56.7C122.172 56.4467 121.612 56.32 120.985 56.32C120.359 56.32 119.792 56.4467 119.285 56.7C118.792 56.94 118.405 57.2933 118.125 57.76C117.859 58.2133 117.725 58.74 117.725 59.34C117.725 59.94 117.859 60.4733 118.125 60.94C118.405 61.3933 118.792 61.7533 119.285 62.02C119.792 62.2733 120.359 62.4 120.985 62.4Z" fill="#3C3C43"/>
<path d="M39.368 101V92.6H40.1L45.896 99.896H45.512V92.6H46.388V101H45.656L39.872 93.704H40.256V101H39.368ZM48.9497 101V94.7H49.8017V101H48.9497ZM49.3817 93.308C49.2057 93.308 49.0577 93.248 48.9377 93.128C48.8177 93.008 48.7577 92.864 48.7577 92.696C48.7577 92.528 48.8177 92.388 48.9377 92.276C49.0577 92.156 49.2057 92.096 49.3817 92.096C49.5577 92.096 49.7057 92.152 49.8257 92.264C49.9457 92.376 50.0057 92.516 50.0057 92.684C50.0057 92.86 49.9457 93.008 49.8257 93.128C49.7137 93.248 49.5657 93.308 49.3817 93.308ZM54.8604 103.388C54.2844 103.388 53.7324 103.304 53.2044 103.136C52.6764 102.968 52.2484 102.728 51.9204 102.416L52.3524 101.768C52.6484 102.032 53.0124 102.24 53.4444 102.392C53.8844 102.552 54.3484 102.632 54.8364 102.632C55.6364 102.632 56.2244 102.444 56.6004 102.068C56.9764 101.7 57.1644 101.124 57.1644 100.34V98.768L57.2844 97.688L57.2004 96.608V94.7H58.0164V100.232C58.0164 101.32 57.7484 102.116 57.2124 102.62C56.6844 103.132 55.9004 103.388 54.8604 103.388ZM54.7044 100.76C54.1044 100.76 53.5644 100.632 53.0844 100.376C52.6044 100.112 52.2244 99.748 51.9444 99.284C51.6724 98.82 51.5364 98.288 51.5364 97.688C51.5364 97.088 51.6724 96.56 51.9444 96.104C52.2244 95.64 52.6044 95.28 53.0844 95.024C53.5644 94.768 54.1044 94.64 54.7044 94.64C55.2644 94.64 55.7684 94.756 56.2164 94.988C56.6644 95.22 57.0204 95.564 57.2844 96.02C57.5484 96.476 57.6804 97.032 57.6804 97.688C57.6804 98.344 57.5484 98.9 57.2844 99.356C57.0204 99.812 56.6644 100.16 56.2164 100.4C55.7684 100.64 55.2644 100.76 54.7044 100.76ZM54.7884 100.004C55.2524 100.004 55.6644 99.908 56.0244 99.716C56.3844 99.516 56.6684 99.244 56.8764 98.9C57.0844 98.548 57.1884 98.144 57.1884 97.688C57.1884 97.232 57.0844 96.832 56.8764 96.488C56.6684 96.144 56.3844 95.876 56.0244 95.684C55.6644 95.484 55.2524 95.384 54.7884 95.384C54.3324 95.384 53.9204 95.484 53.5524 95.684C53.1924 95.876 52.9084 96.144 52.7004 96.488C52.5004 96.832 52.4004 97.232 52.4004 97.688C52.4004 98.144 52.5004 98.548 52.7004 98.9C52.9084 99.244 53.1924 99.516 53.5524 99.716C53.9204 99.908 54.3324 100.004 54.7884 100.004ZM63.6032 94.64C64.1152 94.64 64.5632 94.74 64.9472 94.94C65.3392 95.132 65.6432 95.428 65.8592 95.828C66.0832 96.228 66.1952 96.732 66.1952 97.34V101H65.3432V97.424C65.3432 96.76 65.1752 96.26 64.8392 95.924C64.5112 95.58 64.0472 95.408 63.4472 95.408C62.9992 95.408 62.6072 95.5 62.2712 95.684C61.9432 95.86 61.6872 96.12 61.5032 96.464C61.3272 96.8 61.2392 97.208 61.2392 97.688V101H60.3872V92.096H61.2392V96.428L61.0712 96.104C61.2712 95.648 61.5912 95.292 62.0312 95.036C62.4712 94.772 62.9952 94.64 63.6032 94.64ZM70.4886 101.06C69.8966 101.06 69.4406 100.9 69.1206 100.58C68.8006 100.26 68.6406 99.808 68.6406 99.224V93.308H69.4926V99.176C69.4926 99.544 69.5846 99.828 69.7686 100.028C69.9606 100.228 70.2326 100.328 70.5846 100.328C70.9606 100.328 71.2726 100.22 71.5206 100.004L71.8206 100.616C71.6526 100.768 71.4486 100.88 71.2086 100.952C70.9766 101.024 70.7366 101.06 70.4886 101.06ZM67.5126 95.408V94.7H71.4126V95.408H67.5126ZM78.2042 101.06C77.6842 101.06 77.1922 100.988 76.7282 100.844C76.2642 100.692 75.9002 100.504 75.6362 100.28L76.0202 99.608C76.2762 99.8 76.6042 99.968 77.0042 100.112C77.4042 100.248 77.8242 100.316 78.2642 100.316C78.8642 100.316 79.2962 100.224 79.5602 100.04C79.8242 99.848 79.9562 99.596 79.9562 99.284C79.9562 99.052 79.8802 98.872 79.7282 98.744C79.5842 98.608 79.3922 98.508 79.1522 98.444C78.9122 98.372 78.6442 98.312 78.3482 98.264C78.0522 98.216 77.7562 98.16 77.4602 98.096C77.1722 98.032 76.9082 97.94 76.6682 97.82C76.4282 97.692 76.2322 97.52 76.0802 97.304C75.9362 97.088 75.8642 96.8 75.8642 96.44C75.8642 96.096 75.9602 95.788 76.1522 95.516C76.3442 95.244 76.6242 95.032 76.9922 94.88C77.3682 94.72 77.8242 94.64 78.3602 94.64C78.7682 94.64 79.1762 94.696 79.5842 94.808C79.9922 94.912 80.3282 95.052 80.5922 95.228L80.2202 95.912C79.9402 95.72 79.6402 95.584 79.3202 95.504C79.0002 95.416 78.6802 95.372 78.3602 95.372C77.7922 95.372 77.3722 95.472 77.1002 95.672C76.8362 95.864 76.7042 96.112 76.7042 96.416C76.7042 96.656 76.7762 96.844 76.9202 96.98C77.0722 97.116 77.2682 97.224 77.5082 97.304C77.7562 97.376 78.0242 97.436 78.3122 97.484C78.6082 97.532 78.9002 97.592 79.1882 97.664C79.4842 97.728 79.7522 97.82 79.9922 97.94C80.2402 98.052 80.4362 98.216 80.5802 98.432C80.7322 98.64 80.8082 98.916 80.8082 99.26C80.8082 99.628 80.7042 99.948 80.4962 100.22C80.2962 100.484 80.0002 100.692 79.6082 100.844C79.2242 100.988 78.7562 101.06 78.2042 101.06ZM82.3716 101V92.096H83.2236V101H82.3716ZM88.2703 101.06C87.6143 101.06 87.0383 100.924 86.5423 100.652C86.0463 100.372 85.6583 99.992 85.3783 99.512C85.0983 99.024 84.9583 98.468 84.9583 97.844C84.9583 97.22 85.0903 96.668 85.3543 96.188C85.6263 95.708 85.9943 95.332 86.4583 95.06C86.9303 94.78 87.4583 94.64 88.0423 94.64C88.6343 94.64 89.1583 94.776 89.6143 95.048C90.0783 95.312 90.4423 95.688 90.7063 96.176C90.9703 96.656 91.1023 97.212 91.1023 97.844C91.1023 97.884 91.0983 97.928 91.0903 97.976C91.0903 98.016 91.0903 98.06 91.0903 98.108H85.6063V97.472H90.6343L90.2983 97.724C90.2983 97.268 90.1983 96.864 89.9983 96.512C89.8063 96.152 89.5423 95.872 89.2063 95.672C88.8703 95.472 88.4823 95.372 88.0423 95.372C87.6103 95.372 87.2223 95.472 86.8783 95.672C86.5343 95.872 86.2663 96.152 86.0743 96.512C85.8823 96.872 85.7863 97.284 85.7863 97.748V97.88C85.7863 98.36 85.8903 98.784 86.0983 99.152C86.3143 99.512 86.6103 99.796 86.9863 100.004C87.3703 100.204 87.8063 100.304 88.2943 100.304C88.6783 100.304 89.0343 100.236 89.3623 100.1C89.6983 99.964 89.9863 99.756 90.2263 99.476L90.7063 100.028C90.4263 100.364 90.0743 100.62 89.6503 100.796C89.2343 100.972 88.7743 101.06 88.2703 101.06ZM95.5124 101.06C94.8564 101.06 94.2804 100.924 93.7844 100.652C93.2884 100.372 92.9004 99.992 92.6204 99.512C92.3404 99.024 92.2004 98.468 92.2004 97.844C92.2004 97.22 92.3324 96.668 92.5964 96.188C92.8684 95.708 93.2364 95.332 93.7004 95.06C94.1724 94.78 94.7004 94.64 95.2844 94.64C95.8764 94.64 96.4004 94.776 96.8564 95.048C97.3204 95.312 97.6844 95.688 97.9484 96.176C98.2124 96.656 98.3444 97.212 98.3444 97.844C98.3444 97.884 98.3404 97.928 98.3324 97.976C98.3324 98.016 98.3324 98.06 98.3324 98.108H92.8484V97.472H97.8764L97.5404 97.724C97.5404 97.268 97.4404 96.864 97.2404 96.512C97.0484 96.152 96.7844 95.872 96.4484 95.672C96.1124 95.472 95.7244 95.372 95.2844 95.372C94.8524 95.372 94.4644 95.472 94.1204 95.672C93.7764 95.872 93.5084 96.152 93.3164 96.512C93.1244 96.872 93.0284 97.284 93.0284 97.748V97.88C93.0284 98.36 93.1324 98.784 93.3404 99.152C93.5564 99.512 93.8524 99.796 94.2284 100.004C94.6124 100.204 95.0484 100.304 95.5364 100.304C95.9204 100.304 96.2764 100.236 96.6044 100.1C96.9404 99.964 97.2284 99.756 97.4684 99.476L97.9484 100.028C97.6684 100.364 97.3164 100.62 96.8924 100.796C96.4764 100.972 96.0164 101.06 95.5124 101.06ZM103.331 101.06C102.787 101.06 102.295 100.936 101.855 100.688C101.415 100.432 101.063 100.068 100.799 99.596C100.543 99.116 100.415 98.532 100.415 97.844C100.415 97.156 100.543 96.576 100.799 96.104C101.055 95.624 101.403 95.26 101.843 95.012C102.283 94.764 102.779 94.64 103.331 94.64C103.931 94.64 104.467 94.776 104.939 95.048C105.419 95.312 105.795 95.688 106.067 96.176C106.339 96.656 106.475 97.212 106.475 97.844C106.475 98.484 106.339 99.044 106.067 99.524C105.795 100.004 105.419 100.38 104.939 100.652C104.467 100.924 103.931 101.06 103.331 101.06ZM100.079 103.328V94.7H100.895V96.596L100.811 97.856L100.931 99.128V103.328H100.079ZM103.271 100.304C103.719 100.304 104.119 100.204 104.471 100.004C104.823 99.796 105.103 99.508 105.311 99.14C105.519 98.764 105.623 98.332 105.623 97.844C105.623 97.356 105.519 96.928 105.311 96.56C105.103 96.192 104.823 95.904 104.471 95.696C104.119 95.488 103.719 95.384 103.271 95.384C102.823 95.384 102.419 95.488 102.059 95.696C101.707 95.904 101.427 96.192 101.219 96.56C101.019 96.928 100.919 97.356 100.919 97.844C100.919 98.332 101.019 98.764 101.219 99.14C101.427 99.508 101.707 99.796 102.059 100.004C102.419 100.204 102.823 100.304 103.271 100.304ZM113.572 101.072C113.028 101.072 112.544 100.984 112.12 100.808C111.696 100.624 111.36 100.372 111.112 100.052C110.872 99.732 110.752 99.36 110.752 98.936C110.752 98.576 110.832 98.248 110.992 97.952C111.152 97.648 111.408 97.352 111.76 97.064C112.12 96.768 112.596 96.46 113.188 96.14C113.692 95.86 114.084 95.62 114.364 95.42C114.652 95.212 114.856 95.016 114.976 94.832C115.096 94.64 115.156 94.436 115.156 94.22C115.156 93.908 115.048 93.656 114.832 93.464C114.624 93.272 114.324 93.176 113.932 93.176C113.508 93.176 113.18 93.284 112.948 93.5C112.716 93.708 112.6 93.98 112.6 94.316C112.6 94.484 112.624 94.644 112.672 94.796C112.728 94.948 112.828 95.116 112.972 95.3C113.124 95.484 113.332 95.716 113.596 95.996L118.036 100.568L117.544 101.132L112.912 96.368C112.632 96.072 112.408 95.816 112.24 95.6C112.08 95.376 111.968 95.164 111.904 94.964C111.84 94.764 111.808 94.552 111.808 94.328C111.808 93.968 111.892 93.656 112.06 93.392C112.236 93.12 112.484 92.912 112.804 92.768C113.124 92.616 113.5 92.54 113.932 92.54C114.324 92.54 114.664 92.608 114.952 92.744C115.248 92.872 115.476 93.06 115.636 93.308C115.804 93.556 115.888 93.856 115.888 94.208C115.888 94.512 115.812 94.796 115.66 95.06C115.516 95.324 115.276 95.584 114.94 95.84C114.604 96.088 114.148 96.368 113.572 96.68C113.068 96.96 112.668 97.216 112.372 97.448C112.084 97.68 111.88 97.908 111.76 98.132C111.64 98.348 111.58 98.588 111.58 98.852C111.58 99.156 111.664 99.424 111.832 99.656C112.008 99.88 112.248 100.056 112.552 100.184C112.864 100.304 113.22 100.364 113.62 100.364C114.18 100.364 114.68 100.248 115.12 100.016C115.56 99.784 115.928 99.432 116.224 98.96C116.528 98.488 116.748 97.896 116.884 97.184L117.568 97.4C117.416 98.2 117.156 98.872 116.788 99.416C116.42 99.96 115.964 100.372 115.42 100.652C114.876 100.932 114.26 101.072 113.572 101.072ZM125.028 101.06C124.428 101.06 123.888 100.924 123.408 100.652C122.936 100.38 122.564 100.004 122.292 99.524C122.02 99.036 121.884 98.476 121.884 97.844C121.884 97.204 122.02 96.644 122.292 96.164C122.564 95.684 122.936 95.312 123.408 95.048C123.888 94.776 124.428 94.64 125.028 94.64C125.58 94.64 126.072 94.764 126.504 95.012C126.944 95.26 127.292 95.624 127.548 96.104C127.812 96.576 127.944 97.156 127.944 97.844C127.944 98.524 127.816 99.104 127.56 99.584C127.304 100.064 126.956 100.432 126.516 100.688C126.084 100.936 125.588 101.06 125.028 101.06ZM125.088 100.304C125.536 100.304 125.936 100.204 126.288 100.004C126.648 99.796 126.928 99.508 127.128 99.14C127.336 98.764 127.44 98.332 127.44 97.844C127.44 97.348 127.336 96.916 127.128 96.548C126.928 96.18 126.648 95.896 126.288 95.696C125.936 95.488 125.536 95.384 125.088 95.384C124.648 95.384 124.252 95.488 123.9 95.696C123.548 95.896 123.268 96.18 123.06 96.548C122.852 96.916 122.748 97.348 122.748 97.844C122.748 98.332 122.852 98.764 123.06 99.14C123.268 99.508 123.548 99.796 123.9 100.004C124.252 100.204 124.648 100.304 125.088 100.304ZM127.464 101V99.104L127.548 97.832L127.428 96.56V92.096H128.28V101H127.464ZM134.601 101V99.608L134.565 99.38V97.052C134.565 96.516 134.413 96.104 134.109 95.816C133.813 95.528 133.369 95.384 132.777 95.384C132.369 95.384 131.981 95.452 131.613 95.588C131.245 95.724 130.933 95.904 130.677 96.128L130.293 95.492C130.613 95.22 130.997 95.012 131.445 94.868C131.893 94.716 132.365 94.64 132.861 94.64C133.677 94.64 134.305 94.844 134.745 95.252C135.193 95.652 135.417 96.264 135.417 97.088V101H134.601ZM132.429 101.06C131.957 101.06 131.545 100.984 131.193 100.832C130.849 100.672 130.585 100.456 130.401 100.184C130.217 99.904 130.125 99.584 130.125 99.224C130.125 98.896 130.201 98.6 130.353 98.336C130.513 98.064 130.769 97.848 131.121 97.688C131.481 97.52 131.961 97.436 132.561 97.436H134.733V98.072H132.585C131.977 98.072 131.553 98.18 131.313 98.396C131.081 98.612 130.965 98.88 130.965 99.2C130.965 99.56 131.105 99.848 131.385 100.064C131.665 100.28 132.057 100.388 132.561 100.388C133.041 100.388 133.453 100.28 133.797 100.064C134.149 99.84 134.405 99.52 134.565 99.104L134.757 99.692C134.597 100.108 134.317 100.44 133.917 100.688C133.525 100.936 133.029 101.06 132.429 101.06ZM137.662 103.388C137.366 103.388 137.082 103.34 136.81 103.244C136.546 103.148 136.318 103.004 136.126 102.812L136.522 102.176C136.682 102.328 136.854 102.444 137.038 102.524C137.23 102.612 137.442 102.656 137.674 102.656C137.954 102.656 138.194 102.576 138.394 102.416C138.602 102.264 138.798 101.992 138.982 101.6L139.39 100.676L139.486 100.544L142.078 94.7H142.918L139.762 101.756C139.586 102.164 139.39 102.488 139.174 102.728C138.966 102.968 138.738 103.136 138.49 103.232C138.242 103.336 137.966 103.388 137.662 103.388ZM139.342 101.18L136.438 94.7H137.326L139.894 100.484L139.342 101.18ZM150.474 94.64C150.986 94.64 151.434 94.74 151.818 94.94C152.21 95.132 152.514 95.428 152.73 95.828C152.954 96.228 153.066 96.732 153.066 97.34V101H152.214V97.424C152.214 96.76 152.046 96.26 151.71 95.924C151.382 95.58 150.918 95.408 150.318 95.408C149.87 95.408 149.478 95.5 149.142 95.684C148.814 95.86 148.558 96.12 148.374 96.464C148.198 96.8 148.11 97.208 148.11 97.688V101H147.258V94.7H148.074V96.428L147.942 96.104C148.142 95.648 148.462 95.292 148.902 95.036C149.342 94.772 149.866 94.64 150.474 94.64ZM159.316 101V99.608L159.28 99.38V97.052C159.28 96.516 159.128 96.104 158.824 95.816C158.528 95.528 158.084 95.384 157.492 95.384C157.084 95.384 156.696 95.452 156.328 95.588C155.96 95.724 155.648 95.904 155.392 96.128L155.008 95.492C155.328 95.22 155.712 95.012 156.16 94.868C156.608 94.716 157.08 94.64 157.576 94.64C158.392 94.64 159.02 94.844 159.46 95.252C159.908 95.652 160.132 96.264 160.132 97.088V101H159.316ZM157.144 101.06C156.672 101.06 156.26 100.984 155.908 100.832C155.564 100.672 155.3 100.456 155.116 100.184C154.932 99.904 154.84 99.584 154.84 99.224C154.84 98.896 154.916 98.6 155.068 98.336C155.228 98.064 155.484 97.848 155.836 97.688C156.196 97.52 156.676 97.436 157.276 97.436H159.448V98.072H157.3C156.692 98.072 156.268 98.18 156.028 98.396C155.796 98.612 155.68 98.88 155.68 99.2C155.68 99.56 155.82 99.848 156.1 100.064C156.38 100.28 156.772 100.388 157.276 100.388C157.756 100.388 158.168 100.28 158.512 100.064C158.864 99.84 159.12 99.52 159.28 99.104L159.472 99.692C159.312 100.108 159.032 100.44 158.632 100.688C158.24 100.936 157.744 101.06 157.144 101.06ZM165.698 101.06C165.154 101.06 164.662 100.936 164.222 100.688C163.782 100.432 163.43 100.068 163.166 99.596C162.91 99.116 162.782 98.532 162.782 97.844C162.782 97.156 162.91 96.576 163.166 96.104C163.422 95.624 163.77 95.26 164.21 95.012C164.65 94.764 165.146 94.64 165.698 94.64C166.298 94.64 166.834 94.776 167.306 95.048C167.786 95.312 168.162 95.688 168.434 96.176C168.706 96.656 168.842 97.212 168.842 97.844C168.842 98.484 168.706 99.044 168.434 99.524C168.162 100.004 167.786 100.38 167.306 100.652C166.834 100.924 166.298 101.06 165.698 101.06ZM162.446 103.328V94.7H163.262V96.596L163.178 97.856L163.298 99.128V103.328H162.446ZM165.638 100.304C166.086 100.304 166.486 100.204 166.838 100.004C167.19 99.796 167.47 99.508 167.678 99.14C167.886 98.764 167.99 98.332 167.99 97.844C167.99 97.356 167.886 96.928 167.678 96.56C167.47 96.192 167.19 95.904 166.838 95.696C166.486 95.488 166.086 95.384 165.638 95.384C165.19 95.384 164.786 95.488 164.426 95.696C164.074 95.904 163.794 96.192 163.586 96.56C163.386 96.928 163.286 97.356 163.286 97.844C163.286 98.332 163.386 98.764 163.586 99.14C163.794 99.508 164.074 99.796 164.426 100.004C164.786 100.204 165.19 100.304 165.638 100.304Z" fill="#3C3C43"/>
</g>
</g>
<defs>
<filter id="filter0_d_329_268" x="0" y="0" width="208" height="156" filterUnits="userSpaceOnUse" color-interpolation-filters="sRGB">
<feFlood flood-opacity="0" result="BackgroundImageFix"/>
<feColorMatrix in="SourceAlpha" type="matrix" values="0 0 0 0 0 0 0 0 0 0 0 0 0 0 0 0 0 0 127 0" result="hardAlpha"/>
<feOffset/>
<feGaussianBlur stdDeviation="7"/>
<feComposite in2="hardAlpha" operator="out"/>
<feColorMatrix type="matrix" values="0 0 0 0 0.377661 0 0 0 0 0.471527 0 0 0 0 0.878281 0 0 0 0.13 0"/>
<feBlend mode="normal" in2="BackgroundImageFix" result="effect1_dropShadow_329_268"/>
<feBlend mode="normal" in="SourceGraphic" in2="effect1_dropShadow_329_268" result="shape"/>
</filter>
</defs>
</svg>
